{
.appVersion = "3306";
.formatVersion = 3;
DisplayStrings = (
"ẞ",
H,
"Ħ",
I,
J,
K,
L,
"Ł",
M,
N,
"Ŋ",
O,
"Ø",
"Œ",
P,
"Þ",
Q,
R,
S,
T,
U,
V,
W,
X,
Y,
Z,
c,
d,
"ð",
e,
g,
h,
o,
q,
"/q_j",
"º",
"0",
"1",
"2",
"3",
"4",
"5",
"6",
"7",
"8",
"9",
",",
"!",
"?",
"*",
"#",
"//",
"/backslash",
"(",
"{",
"[",
"‹",
"@",
"'",
"&",
"¶",
"§",
"©",
"®",
"™",
"°",
"|",
"¢",
$,
"€",
"£",
"¥",
"̃",
"”",
"“",
"„",
"‚",
"‘",
"’",
lmn
);
customParameters = (
{
name = vendorID;
value = NONE;
},
{
name = panose;
value = (
0,
0,
0,
0,
0,
0,
0,
0,
0,
0
);
},
{
name = unicodeRanges;
value = (
0,
1,
2,
3,
5,
6,
29,
31,
33,
35,
38
);
},
{
name = fsType;
value = (
);
},
{
name = glyphOrder;
value = (
.notdef,
A,
Aacute,
Abreve,
uni01CD,
Acircumflex,
Adieresis,
Agrave,
Amacron,
Aogonek,
Aring,
Atilde,
AE,
B,
C,
Cacute,
Ccaron,
Ccedilla,
Cdotaccent,
D,
Eth,
Dcaron,
Dcroat,
E,
Eacute,
Ecaron,
Ecircumflex,
Edieresis,
Edotaccent,
Egrave,
Emacron,
Eogonek,
F,
G,
Gbreve,
uni0122,
Gdotaccent,
H,
Hbar,
I,
IJ,
Iacute,
Icircumflex,
Idieresis,
Idotaccent,
Igrave,
Imacron,
Iogonek,
J,
K,
uni0136,
L,
Lacute,
Lcaron,
uni013B,
Lslash,
M,
N,
Nacute,
Ncaron,
uni0145,
Ntilde,
Eng,
O,
Oacute,
Ocircumflex,
Odieresis,
Ograve,
Ohungarumlaut,
Omacron,
Oslash,
Otilde,
OE,
P,
Thorn,
Q,
R,
Racute,
Rcaron,
uni0156,
S,
Sacute,
Scaron,
Scedilla,
uni0218,
uni1E9E,
T,
Tcaron,
uni021A,
U,
Uacute,
Ubreve,
Ucircumflex,
Udieresis,
Ugrave,
Uhungarumlaut,
Umacron,
Uogonek,
Uring,
V,
W,
Wacute,
Wcircumflex,
Wdieresis,
Wgrave,
X,
Y,
Yacute,
Ycircumflex,
Ydieresis,
Ygrave,
Z,
Zacute,
Zcaron,
Zdotaccent,
a,
aacute,
abreve,
uni01CE,
acircumflex,
adieresis,
agrave,
amacron,
aogonek,
aring,
atilde,
ae,
b,
c,
cacute,
ccaron,
ccedilla,
cdotaccent,
d,
eth,
dcaron,
dcroat,
e,
eacute,
ecaron,
ecircumflex,
edieresis,
edotaccent,
egrave,
emacron,
eogonek,
f,
g,
gbreve,
uni0123,
gdotaccent,
h,
hbar,
i,
dotlessi,
iacute,
icircumflex,
idieresis,
i.loclTRK,
igrave,
ij,
imacron,
iogonek,
j,
uni0237,
k,
uni0137,
l,
lacute,
lcaron,
uni013C,
lslash,

glyphs = (
{
glyphname = .notdef;
lastChange = "2025-10-04 21:26:23 +0000";
layers = (
{
layerId = m01;
shapes = (
{
closed = 1;
nodes = (
(492,-130,o),
(492,-122,qs),
(492,782,ls),
(492,790,o),
(484,790,qs),
(118,790,ls),
(110,790,o),
(110,782,qs),
(110,-122,ls),
(110,-130,o),
(118,-130,qs),
(484,-130,ls)
);
},
{
closed = 1;
nodes = (
(460,758,l),
(460,-98,l),
(142,-98,l),
(142,758,l)
);
}
);
userData = {
assembly = "NPUSHB[ ]	/* 51 values pushed */
8 3 2 3 0 9 2 2 1 2 2 76 0 0 0 3 2 0 3 103 0 2 1 1 2 87 0 2 2 1 95 4 1 1 2 1 79 0 0 15 14 13 12 0 11 0 11 21 5 6 23
CALL[ ]	/* CallFunction */";
};
width = 602;
}
);
note = .notdef;
},
{
glyphname = A;
kernLeft = A;
kernRight = A;
lastChange = "2025-10-04 21:28:13 +0000";
layers = (
{
anchors = (
{
name = bottom;
pos = (237,0);
},
{
name = ogonek;
pos = (393,0);
},
{
name = top;
pos = (237,740);
}
);
layerId = m01;
shapes = (
{
closed = 1;
nodes = (
(-18,0,l),
(151,0,l),
(151,44,l),
(86,44,l),
(141,266,l),
(296,266,l),
(352,44,l),
(263,44,l),
(263,0,l),
(479,0,l),
(479,44,l),
(423,44,l),
(252,740,l),
(212,740,l),
(41,44,l),
(-18,44,l)
);
},
{
closed = 1;
nodes = (
(218,591,l),
(287,308,l),
(149,308,l)
);
}
);
userData = {
assembly = "NPUSHB[ ]	/* 56 values pushed */
52 1 5 1 1 76 7 1 5 0 4 3 5 4 103 0 1 1 20 77 0 3 3 0 95 2 6 2 0 0 15 0 78 50 48 1 0 48 55 50 55 38 35 29 28 26 23 13 11 0 47 1 46 8 7 22
CALL[ ]	/* CallFunction */";
};
width = 457;
}
);
note = A;
unicode = 65;
},
{
glyphname = AE;
kernRight = AE;
lastChange = "2025-10-05 11:34:35 +0000";
layers = (
{
anchors = (
{
name = bottom;
pos = (384,0);
},
{
name = ogonek;
pos = (670,0);
},
{
name = top;
pos = (543,720);
}
);
layerId = m01;
shapes = (
{
closed = 1;
nodes = (
(-8,0,l),
(161,0,l),
(161,44,l),
(94,44,l),
(357,732,l),
(315,732,l),
(49,44,l),
(-8,44,l)
);
},
{
closed = 1;
nodes = (
(170,268,l),
(360,268,l),
(360,308,l),
(170,308,l)
);
},
{
closed = 1;
nodes = (
(269,0,l),
(640,0,l),
(640,234,l),
(607,234,l),
(592,108,ls),
(586,59,o),
(563,45,o),
(515,45,cs),
(413,45,l),
(413,382,l),
(502,382,l),
(502,260,l),
(544,260,l),
(544,548,l),
(502,548,l),
(502,426,l),
(413,426,l),
(413,695,l),
(505,695,ls),
(553,695,o),
(577,681,o),
(583,633,cs),
(597,526,l),
(630,526,l),
(630,740,l),
(219,740,l),
(219,696,l),
(343,696,l),
(343,44,l),
(269,44,l)
);
}
);
userData = {
assembly = "NPUSHB[ ]	/* 96 values pushed */
19 1 3 1 20 1 2 3 66 1 6 7 67 1 0 6 4 76 0 2 3 4 3 2 4 128 0 7 5 6 5 7 6 128 10 1 4 9 1 5 7 4 5 105 0 3 3 1 95 0 1 1 14 77 0 6 6 0 96 8 11 2 0 0 15 0 78 1 0 99 96 83 80 71 68 65 63 59 57 53 50 36 33 29 27 23 21 18 15 0 93 1 92 12 7 22
CALL[ ]	/* CallFunction */";
};
width = 688;
}
);
note = AE;
unicode = 198;
},
{
glyphname = B;
kernLeft = B;
lastChange = "2025-10-04 21:26:23 +0000";
layers = (
{
layerId = m01;
shapes = (
{
closed = 1;
nodes = (
(10,0,l),
(243,0,ls),
(379,0,o),
(453,74,o),
(453,209,cs),
(453,329,o),
(379,387,o),
(324,398,c),
(324,405,l),
(367,414,o),
(414,461,o),
(414,560,cs),
(414,677,o),
(358,740,o),
(237,740,cs),
(10,740,l),
(10,696,l),
(94,696,l),
(94,44,l),
(10,44,l)
);
},
{
closed = 1;
nodes = (
(164,419,l),
(164,698,l),
(245,698,ls),
(310,698,o),
(335,673,o),
(335,608,cs),
(335,514,ls),
(335,449,o),
(310,419,o),
(245,419,cs)
);
},
{
closed = 1;
nodes = (
(164,42,l),
(164,378,l),
(245,378,ls),
(327,378,o),
(371,339,o),
(371,257,cs),
(371,158,ls),
(371,76,o),
(327,42,o),
(245,42,cs)
);
}
);
userData = {
assembly = "NPUSHB[ ]	/* 59 values pushed */
7 1 2 0 5 4 2 5 105 0 3 3 1 95 0 1 1 14 77 8 1 4 4 0 95 6 1 0 0 15 0 78 49 48 37 36 1 0 55 53 48 58 49 58 43 41 36 47 37 47 19 16 0 35 1 34 9 7 22
CALL[ ]	/* CallFunction */";
};
width = 477;
}
);
note = B;
unicode = 66;
},
{
glyphname = C;
kernLeft = C;
kernRight = C;
lastChange = "2025-10-04 21:31:41 +0000";
layers = (
{
anchors = (
{
name = bottom;
pos = (245,0);
},
{
name = top;
pos = (245,720);
}
);
layerId = m01;
shapes = (
{
closed = 1;
nodes = (
(324,-10,o),
(357,48,o),
(367,91,c),
(375,91,l),
(375,0,l),
(417,0,l),
(417,252,l),
(353,252,l),
(353,229,ls),
(353,105,o),
(305,37,o),
(245,37,cs),
(166,37,o),
(124,120,o),
(124,205,cs),
(124,535,ls),
(124,632,o),
(167,703,o),
(245,703,cs),
(305,703,o),
(355,665,o),
(355,511,cs),
(355,488,l),
(417,488,l),
(417,740,l),
(375,740,l),
(375,649,l),
(367,649,l),
(357,692,o),
(324,750,o),
(245,750,cs),
(109,750,o),
(40,560,o),
(40,370,cs),
(40,180,o),
(109,-10,o),
(245,-10,cs)
);
}
);
userData = {
assembly = "NPUSHB[ ]	/* 47 values pushed */
0 2 3 4 3 2 4 128 0 3 3 1 97 0 1 1 20 77 0 4 4 0 97 5 1 0 0 21 0 78 1 0 30 28 23 21 17 15 9 7 0 42 1 42 6 7 22
CALL[ ]	/* CallFunction */";
};
width = 457;
}
);
note = C;
unicode = 67;
},
{
glyphname = D;
kernLeft = B;
kernRight = D;
lastChange = "2025-10-04 21:32:52 +0000";
layers = (
{
anchors = (
{
name = bottom;
pos = (256,0);
},
{
name = top;
pos = (246,720);
}
);
layerId = m01;
shapes = (
{
closed = 1;
nodes = (
(19,0,l),
(218,0,ls),
(385,0,o),
(463,185,o),
(463,370,cs),
(463,555,o),
(385,740,o),
(218,740,cs),
(19,740,l),
(19,696,l),
(103,696,l),
(103,44,l),
(19,44,l)
);
},
{
closed = 1;
nodes = (
(218,698,ls),
(306,698,o),
(379,634,o),
(379,517,cs),
(379,223,ls),
(379,106,o),
(306,42,o),
(218,42,cs),
(173,42,l),
(173,698,l)
);
}
);
userData = {
assembly = "NPUSHB[ ]	/* 42 values pushed */
0 3 3 1 95 0 1 1 14 77 5 1 2 2 0 95 4 1 0 0 15 0 78 27 26 1 0 33 31 26 37 27 37 18 15 0 25 1 24 6 7 22
CALL[ ]	/* CallFunction */";
};
width = 503;
}
);
note = D;
unicode = 68;
},
{
glyphname = Eth;
kernLeft = B;
kernRight = D;
lastChange = "2025-10-04 21:34:07 +0000";
layers = (
{
anchors = (
{
name = bottom;
pos = (266,0);
},
{
name = top;
pos = (256,720);
}
);
layerId = m01;
shapes = (
{
pos = (1,0);
ref = D;
},
{
closed = 1;
nodes = (
(19,351,l),
(295,351,l),
(295,393,l),
(19,393,l)
);
}
);
userData = {
assembly = "NPUSHB[ ]	/* 60 values pushed */
6 1 2 7 1 1 4 2 1 105 0 5 5 3 95 0 3 3 14 77 9 1 4 4 0 95 8 1 0 0 15 0 78 35 34 1 0 50 48 45 43 41 39 34 53 35 53 26 23 15 13 10 8 0 33 1 32 10 7 22
CALL[ ]	/* CallFunction */";
};
width = 504;
}
);
note = Eth;
unicode = 208;
},
{
glyphname = E;
kernLeft = B;
kernRight = AE;
lastChange = "2025-10-04 21:36:21 +0000";
layers = (
{
anchors = (
{
name = bottom;
pos = (233,0);
},
{
name = ogonek;
pos = (391,0);
},
{
name = top;
pos = (233,720);
}
);
layerId = m01;
shapes = (
{
closed = 1;
nodes = (
(19,0,l),
(430,0,l),
(430,234,l),
(397,234,l),
(382,108,ls),
(376,59,o),
(353,45,o),
(305,45,cs),
(173,45,l),
(173,382,l),
(282,382,l),
(282,260,l),
(324,260,l),
(324,548,l),
(282,548,l),
(282,426,l),
(173,426,l),
(173,695,l),
(295,695,ls),
(343,695,o),
(367,681,o),
(373,633,cs),
(387,526,l),
(420,526,l),
(420,740,l),
(19,740,l),
(19,696,l),
(103,696,l),
(103,44,l),
(19,44,l)
);
}
);
userData = {
assembly = "NPUSHB[ ]	/* 87 values pushed */
20 1 3 1 21 1 2 3 67 1 6 7 68 1 0 6 4 76 0 2 3 4 3 2 4 128 0 7 5 6 5 7 6 128 0 4 0 5 7 4 5 105 0 3 3 1 95 0 1 1 14 77 0 6 6 0 96 8 1 0 0 15 0 78 1 0 66 64 60 58 54 51 37 34 30 28 24 22 19 16 0 70 1 69 9 7 22
CALL[ ]	/* CallFunction */";
};
width = 463;
}
);
note = E;
unicode = 69;
},
{
glyphname = F;
kernLeft = B;
lastChange = "2025-10-04 21:26:23 +0000";
layers = (
{
layerId = m01;
shapes = (
{
closed = 1;
nodes = (
(19,0,l),
(335,0,l),
(335,44,l),
(169,44,l),
(169,382,l),
(264,382,l),
(264,260,l),
(304,260,l),
(304,548,l),
(264,548,l),
(264,426,l),
(169,426,l),
(169,695,l),
(275,695,ls),
(323,695,o),
(356,681,o),
(358,633,cs),
(362,526,l),
(400,526,l),
(400,740,l),
(19,740,l),
(19,696,l),
(99,696,l),
(99,44,l),
(19,44,l)
);
}
);
userData = {
assembly = "NPUSHB[ ]	/* 10 values pushed */
20 1 3 1 21 1 2 3 2 76
MPPEM[ ]	/* MeasurePixelPerEm */
PUSHB[ ]	/* 1 value pushed */
42
LT[ ]	/* LessThan */
IF[ ]	/* If */
NPUSHB[ ]	/* 43 values pushed */
0 2 3 5 3 2 5 128 0 4 0 7 6 4 7 105 0 3 3 1 95 0 1 1 14 77 0 6 6 5 97 0 5 5 17 77 8 1 0 0 15 0 78
ELSE[ ]	/* Else */
NPUSHB[ ]	/* 41 values pushed */
0 2 3 5 3 2 5 128 0 4 0 7 6 4 7 105 0 5 0 6 0 5 6 105 0 3 3 1 95 0 1 1 14 77 8 1 0 0 15 0 78
EIF[ ]	/* EndIf */
NPUSHB[ ]	/* 23 values pushed */
1 0 55 52 48 46 43 41 38 35 31 29 24 22 19 16 0 65 1 64 9 7 22
CALL[ ]	/* CallFunction */";
};
width = 419;
}
);
note = F;
unicode = 70;
},
{
glyphname = G;
kernLeft = C;
kernRight = G;
lastChange = "2025-10-04 21:26:23 +0000";
layers = (
{
anchors = (
{
name = bottom;
pos = (229,-10);
},
{
name = top;
pos = (229,732);
}
);
layerId = m01;
shapes = (
{
closed = 1;
nodes = (
(311,-10,o),
(344,64,o),
(354,120,c),
(363,120,l),
(363,0,l),
(408,0,l),
(408,404,l),
(196,404,l),
(196,360,l),
(342,360,l),
(342,307,ls),
(342,173,o),
(327,37,o),
(227,37,cs),
(158,37,o),
(113,127,o),
(113,222,cs),
(113,525,ls),
(113,629,o),
(157,703,o),
(231,703,cs),
(298,703,o),
(344,645,o),
(344,511,cs),
(344,488,l),
(406,488,l),
(406,740,l),
(364,740,l),
(364,649,l),
(356,649,l),
(345,692,o),
(312,750,o),
(238,750,cs),
(97,750,o),
(29,560,o),
(29,368,cs),
(29,158,o),
(110,-10,o),
(229,-10,cs)
);
}
);
userData = {
assembly = "NPUSHB[ ]	/* 56 values pushed */
0 2 3 5 3 2 5 128 0 5 4 3 5 4 126 0 3 3 1 97 0 1 1 20 77 0 4 4 0 97 6 1 0 0 21 0 78 1 0 42 39 29 27 23 21 17 15 9 7 0 55 1 55 7 7 22
CALL[ ]	/* CallFunction */";
};
width = 448;
}
);
note = G;
unicode = 71;
},
{
glyphname = H;
kernLeft = B;
kernRight = H;
lastChange = "2025-10-04 21:36:41 +0000";
layers = (
{
layerId = m01;
shapes = (
{
closed = 1;
nodes = (
(24,0,l),
(232,0,l),
(232,44,l),
(166,44,l),
(166,379,l),
(379,379,l),
(379,44,l),
(313,44,l),
(313,0,l),
(521,0,l),
(521,44,l),
(445,44,l),
(445,696,l),
(521,696,l),
(521,740,l),
(313,740,l),
(313,696,l),
(379,696,l),
(379,421,l),
(166,421,l),
(166,696,l),
(232,696,l),
(232,740,l),
(24,740,l),
(24,696,l),
(100,696,l),
(100,44,l),
(24,44,l)
);
}
);
userData = {
assembly = "NPUSHB[ ]	/* 41 values pushed */
0 2 0 5 0 2 5 103 3 1 1 1 14 77 4 6 2 0 0 15 0 78 1 0 73 70 61 58 43 40 31 28 19 16 0 83 1 82 7 7 22
CALL[ ]	/* CallFunction */";
};
width = 545;
}
);
note = H;
unicode = 72;
},
{
glyphname = Hbar;
kernLeft = B;
kernRight = H;
lastChange = "2025-10-05 11:48:21 +0000";
layers = (
{
layerId = m01;
shapes = (
{
closed = 1;
nodes = (
(24,525,l),
(532,525,l),
(532,569,l),
(24,569,l)
);
},
{
pos = (5,0);
ref = H;
}
);
userData = {
assembly = "NPUSHB[ ]	/* 70 values pushed */
6 4 2 2 11 7 2 1 10 2 1 106 13 1 10 0 9 0 10 9 103 5 1 3 3 14 77 8 12 2 0 0 15 0 78 98 96 1 0 101 100 96 103 98 103 85 82 73 70 62 60 57 55 47 44 36 35 27 24 16 14 11 9 0 95 1 94 14 7 22
CALL[ ]	/* CallFunction */";
};
width = 556;
}
);
note = Hbar;
unicode = 294;
},
{
glyphname = I;
kernLeft = B;
kernRight = H;
lastChange = "2025-10-04 21:37:34 +0000";
layers = (
{
anchors = (
{
name = bottom;
pos = (143,0);
},
{
name = ogonek;
pos = (170,0);
},
{
name = top;
pos = (143,720);
}
);
layerId = m01;
shapes = (
{
closed = 1;
nodes = (
(5,0,l),
(283,0,l),
(283,44,l),
(179,44,l),
(179,696,l),
(283,696,l),
(283,740,l),
(5,740,l),
(5,696,l),
(109,696,l),
(109,44,l),
(5,44,l)
);
}
);
userData = {
assembly = "NPUSHB[ ]	/* 23 values pushed */
0 1 1 14 77 2 1 0 0 15 0 78 1 0 19 16 0 35 1 34 3 7 22
CALL[ ]	/* CallFunction */";
};
width = 288;
}
);
note = I;
unicode = 73;
},
{
glyphname = J;
kernRight = IJ;
lastChange = "2025-10-05 12:52:05 +0000";
layers = (
{
layerId = m01;
shapes = (
{
closed = 1;
nodes = (
(179,696,l),
(263,696,l),
(263,740,l),
(7,740,l),
(7,696,l),
(109,696,l),
(109,28,ls),
(109,-87,o),
(74,-151,o),
(-15,-151,cs),
(-64,-151,o),
(-56,-56,o),
(-121,-56,cs),
(-150,-56,o),
(-166,-76,o),
(-166,-102,cs),
(-166,-149,o),
(-114,-190,o),
(-25,-190,cs),
(120,-190,o),
(175,-92,o),
(179,30,c)
);
}
);
userData = {
assembly = "MPPEM[ ]	/* MeasurePixelPerEm */
PUSHB[ ]	/* 1 value pushed */
19
LT[ ]	/* LessThan */
IF[ ]	/* If */
NPUSHB[ ]	/* 24 values pushed */
0 1 3 2 2 1 114 0 3 3 14 77 0 2 2 0 98 4 1 0 0 25 0 78
ELSE[ ]	/* Else */
NPUSHB[ ]	/* 25 values pushed */
0 1 3 2 3 1 2 128 0 3 3 14 77 0 2 2 0 98 4 1 0 0 25 0 78
EIF[ ]	/* EndIf */
NPUSHB[ ]	/* 15 values pushed */
1 0 25 22 12 10 7 5 0 35 1 35 5 7 22
CALL[ ]	/* CallFunction */";
};
width = 289;
}
);
note = J;
unicode = 74;
},
{
glyphname = K;
kernLeft = B;
kernRight = K;
lastChange = "2025-10-04 21:39:15 +0000";
layers = (
{
anchors = (
{
name = bottom;
pos = (268,0);
},
{
name = top;
pos = (248,720);
}
);
layerId = m01;
shapes = (
{
closed = 1;
nodes = (
(21,0,l),
(241,0,l),
(241,44,l),
(155,44,l),
(155,287,l),
(201,365,l),
(361,44,l),
(287,44,l),
(287,0,l),
(511,0,l),
(511,44,l),
(435,44,l),
(244,431,l),
(401,696,l),
(485,696,l),
(485,740,l),
(300,740,l),
(300,696,l),
(354,696,l),
(155,360,l),
(155,696,l),
(221,696,l),
(221,740,l),
(21,740,l),
(21,696,l),
(87,696,l),
(87,44,l),
(21,44,l)
);
}
);
userData = {
assembly = "NPUSHB[ ]	/* 29 values pushed */
2 1 1 1 14 77 3 4 2 0 0 15 0 78 1 0 61 58 40 37 19 16 0 84 1 83 5 7 22
CALL[ ]	/* CallFunction */";
};
width = 496;
}
);
note = K;
unicode = 75;
},
{
glyphname = L;
kernLeft = B;
kernRight = L;
lastChange = "2025-10-04 21:40:58 +0000";
layers = (
{
anchors = (
{
name = bottom;
pos = (207,0);
},
{
name = top;
pos = (125,720);
}
);
layerId = m01;
shapes = (
{
closed = 1;
nodes = (
(8,0,l),
(389,0,l),
(389,234,l),
(356,234,l),
(341,108,ls),
(335,59,o),
(312,45,o),
(264,45,cs),
(162,45,l),
(162,696,l),
(246,696,l),
(246,740,l),
(8,740,l),
(8,696,l),
(92,696,l),
(92,44,l),
(8,44,l)
);
}
);
userData = {
assembly = "NPUSHB[ ]	/* 50 values pushed */
39 1 2 3 40 1 0 2 2 76 0 3 1 2 1 3 2 128 0 1 1 14 77 0 2 2 0 96 4 1 0 0 15 0 78 1 0 38 36 31 29 19 16 0 42 1 41 5 7 22
CALL[ ]	/* CallFunction */";
};
width = 413;
}
);
note = L;
unicode = 76;
},
{
glyphname = Lslash;
kernLeft = B;
kernRight = L;
lastChange = "2025-10-05 11:48:43 +0000";
layers = (
{
anchors = (
{
name = bottom;
pos = (207,0);
},
{
name = top;
pos = (125,720);
}
);
layerId = m01;
shapes = (
{
ref = L;
},
{
closed = 1;
nodes = (
(10,267,l),
(298,437,l),
(298,479,l),
(10,309,l)
);
}
);
userData = {
assembly = "NPUSHB[ ]	/* 57 values pushed */
42 35 16 9 4 3 1 55 1 2 3 56 1 0 2 3 76 0 3 1 2 1 3 2 128 0 1 1 14 77 0 2 2 0 96 4 1 0 0 15 0 78 1 0 54 52 47 45 27 24 0 58 1 57 5 7 22
CALL[ ]	/* CallFunction */";
};
width = 413;
}
);
note = Lslash;
unicode = 321;
},
{
glyphname = M;
lastChange = "2025-10-04 21:41:42 +0000";
layers = (
{
layerId = m01;
shapes = (
{
closed = 1;
nodes = (
(16,0,l),
(184,0,l),
(184,44,l),
(130,44,l),
(130,740,l),
(16,740,l),
(16,696,l),
(86,696,l),
(86,44,l),
(16,44,l)
);
},
{
closed = 1;
nodes = (
(458,44,l),
(404,44,l),
(404,0,l),
(600,0,l),
(600,44,l),
(526,44,l),
(526,696,l),
(600,696,l),
(600,740,l),
(458,740,l)
);
},
{
closed = 1;
nodes = (
(267,0,l),
(304,62,l),
(130,740,l),
(103,640,l)
);
},
{
closed = 1;
nodes = (
(268,0,l),
(308,0,l),
(498,740,l),
(458,740,l)
);
}
);
userData = {
assembly = "NPUSHB[ ]	/* 35 values pushed */
72 1 2 1 1 76 0 2 1 0 1 2 0 128 3 1 1 1 14 77 4 1 0 0 15 0 78 63 51 19 63 63 5 7 27
CALL[ ]	/* CallFunction */";
};
width = 616;
}
);
note = M;
unicode = 77;
},
{
glyphname = N;
kernLeft = N;
kernRight = N;
lastChange = "2025-10-04 21:42:14 +0000";
layers = (
{
anchors = (
{
name = bottom;
pos = (250,0);
},
{
name = top;
pos = (248,720);
}
);
layerId = m01;
shapes = (
{
closed = 1;
nodes = (
(380,-10,l),
(414,-10,l),
(414,696,l),
(478,696,l),
(478,740,l),
(296,740,l),
(296,696,l),
(370,696,l),
(370,176,l),
(129,740,l),
(17,740,l),
(17,696,l),
(81,696,l),
(81,44,l),
(17,44,l),
(17,0,l),
(199,0,l),
(199,44,l),
(125,44,l),
(125,586,l)
);
}
);
userData = {
assembly = "NPUSHB[ ]	/* 33 values pushed */
3 1 2 2 14 77 0 1 1 15 77 4 1 0 0 21 0 78 1 0 51 48 35 32 17 14 0 61 1 61 5 7 22
CALL[ ]	/* CallFunction */";
};
width = 490;
}
);
note = N;
unicode = 78;
},
{
glyphname = Eng;
kernLeft = N;
kernRight = N;
lastChange = "2025-10-05 12:13:30 +0000";
layers = (
{
layerId = m01;
shapes = (
{
closed = 1;
nodes = (
(389,-180,o),
(414,-90,o),
(414,-10,c),
(372,25,l),
(372,-10,l),
(372,-107,o),
(339,-151,o),
(271,-137,cs),
(233,-129,o),
(243,-73,o),
(194,-62,cs),
(167,-56,o),
(141,-74,o),
(141,-104,cs),
(141,-147,o),
(187,-180,o),
(259,-180,cs)
);
},
{
ref = N;
}
);
userData = {
assembly = "MPPEM[ ]	/* MeasurePixelPerEm */
PUSHB[ ]	/* 1 value pushed */
23
LT[ ]	/* LessThan */
IF[ ]	/* If */
NPUSHB[ ]	/* 30 values pushed */
0 1 3 2 2 1 114 5 1 4 4 14 77 0 3 3 15 77 0 2 2 0 98 6 1 0 0 25 0 78
ELSE[ ]	/* Else */
NPUSHB[ ]	/* 31 values pushed */
0 1 3 2 3 1 2 128 5 1 4 4 14 77 0 3 3 15 77 0 2 2 0 98 6 1 0 0 25 0 78
EIF[ ]	/* EndIf */
NPUSHB[ ]	/* 19 values pushed */
1 0 66 63 50 47 32 29 12 10 7 5 0 76 1 76 7 7 22
CALL[ ]	/* CallFunction */";
};
width = 490;
}
);
note = Eng;
unicode = 330;
},
{
glyphname = O;
kernLeft = C;
kernRight = D;
lastChange = "2025-10-04 21:43:14 +0000";
layers = (
{
anchors = (
{
name = bottom;
pos = (225,0);
},
{
name = ogonek;
pos = (441,10);
},
{
name = top;
pos = (225,720);
}
);
layerId = m01;
shapes = (
{
closed = 1;
nodes = (
(362,-10,o),
(430,180,o),
(430,370,cs),
(430,560,o),
(362,750,o),
(225,750,cs),
(89,750,o),
(20,560,o),
(20,370,cs),
(20,180,o),
(89,-10,o),
(225,-10,cs)
);
},
{
closed = 1;
nodes = (
(146,37,o),
(104,100,o),
(104,215,cs),
(104,525,ls),
(104,640,o),
(147,703,o),
(225,703,cs),
(303,703,o),
(346,640,o),
(346,525,cs),
(346,215,ls),
(346,100,o),
(303,37,o),
(225,37,cs)
);
}
);
userData = {
assembly = "NPUSHB[ ]	/* 42 values pushed */
0 3 3 1 97 0 1 1 20 77 5 1 2 2 0 97 4 1 0 0 21 0 78 21 20 1 0 27 25 20 31 21 31 11 9 0 19 1 19 6 7 22
CALL[ ]	/* CallFunction */";
};
vertOrigin = 200;
vertWidth = 810;
width = 450;
}
);
note = O;
unicode = 79;
},
{
glyphname = Oslash;
kernLeft = C;
kernRight = D;
lastChange = "2025-10-05 11:49:17 +0000";
layers = (
{
anchors = (
{
name = bottom;
pos = (243,0);
},
{
name = ogonek;
pos = (459,10);
},
{
name = top;
pos = (243,720);
}
);
layerId = m01;
shapes = (
{
ref = O;
},
{
closed = 1;
nodes = (
(37,-60,l),
(81,-60,l),
(413,790,l),
(369,790,l)
);
}
);
userData = {
assembly = "NPUSHB[ ]	/* 69 values pushed */
52 51 40 39 32 21 14 3 8 5 4 1 76 0 2 1 2 133 6 1 0 3 0 134 0 4 4 1 97 0 1 1 20 77 7 1 5 5 3 97 0 3 3 21 3 78 46 45 1 0 45 53 46 53 43 41 30 28 19 16 12 10 0 35 1 34 8 7 22
CALL[ ]	/* CallFunction */";
};
vertOrigin = 20;
vertWidth = 890;
width = 450;
}
);
note = Oslash;
unicode = 216;
},
{
glyphname = OE;
kernLeft = C;
kernRight = AE;
lastChange = "2025-10-05 12:09:40 +0000";
layers = (
{
layerId = m01;
shapes = (
{
closed = 1;
nodes = (
(40,180,o),
(113,0,o),
(242,0,c),
(653,0,l),
(653,234,l),
(621,234,l),
(606,108,ls),
(600,59,o),
(576,45,o),
(528,45,cs),
(396,45,l),
(396,382,l),
(505,382,l),
(505,260,l),
(547,260,l),
(547,548,l),
(505,548,l),
(505,426,l),
(396,426,l),
(396,695,l),
(518,695,ls),
(566,695,o),
(591,681,o),
(597,633,cs),
(611,526,l),
(643,526,l),
(643,740,l),
(242,740,l),
(105,740,o),
(40,560,o),
(40,370,c)
);
},
{
closed = 1;
nodes = (
(166,44,o),
(124,100,o),
(124,215,c),
(124,525,l),
(124,639,o),
(167,696,o),
(242,696,c),
(326,696,l),
(326,44,l),
(242,44,l)
);
}
);
userData = {
assembly = "NPUSHB[ ]	/* 120 values pushed */
15 1 4 11 16 1 3 4 62 1 7 8 63 1 10 7 4 76 0 3 4 5 4 3 5 128 0 8 6 7 6 8 7 128 0 5 0 6 8 5 6 105 0 11 11 1 97 0 1 1 20 77 0 4 4 2 95 0 2 2 14 77 0 7 7 9 96 0 9 9 15 77 13 1 10 10 0 97 12 1 0 0 21 0 78 70 69 1 0 77 75 69 81 70 81 67 64 61 59 55 53 49 46 32 29 25 23 19 17 14 11 10 8 0 68 1 68 14 7 22
CALL[ ]	/* CallFunction */";
};
width = 683;
}
);
note = OE;
unicode = 338;
},
{
glyphname = P;
kernLeft = B;
lastChange = "2025-10-04 21:43:44 +0000";
layers = (
{
layerId = m01;
shapes = (
{
closed = 1;
nodes = (
(18,0,l),
(334,0,l),
(334,44,l),
(172,44,l),
(172,290,l),
(207,290,ls),
(371,290,o),
(433,403,o),
(433,515,cs),
(433,628,o),
(371,740,o),
(207,740,cs),
(18,740,l),
(18,696,l),
(102,696,l),
(102,44,l),
(18,44,l)
);
},
{
closed = 1;
nodes = (
(172,337,l),
(172,693,l),
(230,693,ls),
(319,693,o),
(348,644,o),
(348,555,cs),
(348,475,ls),
(348,386,o),
(319,337,o),
(230,337,cs)
);
}
);
userData = {
assembly = "NPUSHB[ ]	/* 42 values pushed */
0 3 0 2 0 3 2 103 0 4 4 1 95 0 1 1 14 77 5 1 0 0 15 0 78 1 0 48 46 42 40 28 25 19 16 0 38 1 37 6 7 22
CALL[ ]	/* CallFunction */";
};
width = 453;
}
);
note = P;
unicode = 80;
},
{
glyphname = Thorn;
kernLeft = B;
lastChange = "2025-10-05 11:36:18 +0000";
layers = (
{
layerId = m01;
shapes = (
{
closed = 1;
nodes = (
(18,0,l),
(304,0,l),
(304,44,l),
(172,44,l),
(172,145,l),
(207,145,ls),
(371,145,o),
(433,258,o),
(433,370,cs),
(433,483,o),
(371,595,o),
(207,595,cs),
(172,595,l),
(172,696,l),
(304,696,l),
(304,740,l),
(18,740,l),
(18,696,l),
(102,696,l),
(102,44,l),
(18,44,l)
);
},
{
closed = 1;
nodes = (
(172,192,l),
(172,548,l),
(230,548,ls),
(319,548,o),
(348,499,o),
(348,410,cs),
(348,330,ls),
(348,241,o),
(319,192,o),
(230,192,cs)
);
}
);
userData = {
assembly = "NPUSHB[ ]	/* 52 values pushed */
0 2 0 5 4 2 5 106 7 1 4 0 3 0 4 3 103 0 1 1 14 77 6 1 0 0 15 0 78 52 51 1 0 58 56 51 61 52 61 40 37 31 28 19 16 0 50 1 49 8 7 22
CALL[ ]	/* CallFunction */";
};
width = 453;
}
);
note = Thorn;
unicode = 222;
},
{
glyphname = Q;
kernLeft = C;
kernRight = D;
lastChange = "2025-10-05 11:37:04 +0000";
layers = (
{
layerId = m01;
shapes = (
{
closed = 1;
nodes = (
(243,-10,o),
(250,-9,o),
(257,-8,c),
(257,-72,ls),
(257,-142,o),
(287,-180,o),
(340,-180,cs),
(405,-180,o),
(424,-123,o),
(424,-78,cs),
(424,0,l),
(384,0,l),
(384,-78,ls),
(384,-93,o),
(387,-130,o),
(350,-130,cs),
(309,-130,o),
(314,-90,o),
(314,-72,cs),
(314,15,l),
(398,72,o),
(440,221,o),
(440,370,cs),
(440,560,o),
(372,750,o),
(235,750,cs),
(99,750,o),
(30,560,o),
(30,370,cs),
(30,180,o),
(99,-10,o),
(235,-10,cs)
);
},
{
closed = 1;
nodes = (
(114,529,ls),
(114,644,o),
(157,703,o),
(235,703,cs),
(313,703,o),
(356,644,o),
(356,529,cs),
(356,205,ls),
(356,138,o),
(341,94,o),
(314,64,c),
(314,84,ls),
(314,150,o),
(288,187,o),
(240,187,cs),
(194,187,o),
(167,153,o),
(167,99,cs),
(167,69,o),
(175,54,o),
(188,41,c),
(140,62,o),
(114,115,o),
(114,205,cs)
);
},
{
closed = 1;
nodes = (
(228,32,o),
(199,40,o),
(199,94,cs),
(199,127,o),
(207,141,o),
(228,141,cs),
(259,141,o),
(257,104,o),
(257,95,cs),
(257,34,l)
);
}
);
userData = {
assembly = "NPUSHB[ ]	/* 52 values pushed */
6 1 3 4 2 4 3 2 128 0 4 4 1 97 0 1 1 20 77 0 2 2 0 97 5 1 0 0 25 0 78 45 44 1 0 51 49 44 55 45 55 35 33 17 15 0 43 1 43 7 7 22
CALL[ ]	/* CallFunction */";
};
width = 470;
}
);
note = Q;
unicode = 81;
},
{
glyphname = R;
kernLeft = B;
kernRight = R;
lastChange = "2025-10-04 21:53:27 +0000";
layers = (
{
anchors = (
{
name = bottom;
pos = (277,0);
},
{
name = top;
pos = (257,720);
}
);
layerId = m01;
shapes = (
{
closed = 1;
nodes = (
(477,-10,o),
(495,47,o),
(495,92,cs),
(495,268,l),
(455,268,l),
(455,95,ls),
(455,67,o),
(454,37,o),
(424,37,cs),
(387,37,o),
(391,80,o),
(391,101,cs),
(391,277,ls),
(391,346,o),
(359,372,o),
(301,384,cs),
(296,385,l),
(296,391,l),
(301,392,ls),
(391,410,o),
(441,469,o),
(441,559,cs),
(441,641,o),
(397,740,o),
(248,740,cs),
(18,740,l),
(18,696,l),
(102,696,l),
(102,44,l),
(18,44,l),
(18,0,l),
(255,0,l),
(255,44,l),
(172,44,l),
(172,370,l),
(220,370,ls),
(301,370,o),
(322,350,o),
(322,277,cs),
(322,93,ls),
(322,32,o),
(353,-10,o),
(409,-10,cs)
);
},
{
closed = 1;
nodes = (
(172,412,l),
(172,698,l),
(231,698,ls),
(320,698,o),
(359,669,o),
(359,580,cs),
(359,525,ls),
(359,436,o),
(320,412,o),
(231,412,cs)
);
}
);
userData = {
assembly = "NPUSHB[ ]	/* 61 values pushed */
8 1 5 0 1 4 5 1 105 0 6 6 3 95 0 3 3 14 77 0 2 2 15 77 0 4 4 0 97 7 1 0 0 21 0 78 65 64 1 0 71 69 64 74 65 74 55 54 39 36 21 18 8 6 0 63 1 63 9 7 22
CALL[ ]	/* CallFunction */";
};
width = 523;
}
);
note = R;
unicode = 82;
},
{
glyphname = S;
kernLeft = S;
kernRight = S;
lastChange = "2025-10-05 12:47:33 +0000";
layers = (
{
anchors = (
{
name = bottom;
pos = (221,0);
},
{
name = top;
pos = (241,720);
}
);
layerId = m01;
shapes = (
{
closed = 1;
nodes = (
(325,-10,o),
(403,56,o),
(403,160,cs),
(403,359,o),
(116,461,o),
(116,622,cs),
(116,677,o),
(149,707,o),
(204,707,cs),
(285,707,o),
(323,632,o),
(323,524,cs),
(323,492,l),
(385,492,l),
(385,740,l),
(348,740,l),
(348,642,l),
(340,642,l),
(331,682,o),
(295,750,o),
(202,750,cs),
(118,750,o),
(49,692,o),
(49,599,cs),
(49,410,o),
(336,319,o),
(336,136,cs),
(336,65,o),
(292,34,o),
(228,34,cs),
(96,34,o),
(96,208,o),
(96,266,cs),
(96,295,l),
(34,295,l),
(34,0,l),
(71,0,l),
(71,130,l),
(79,130,l),
(85,90,o),
(115,-10,o),
(231,-10,cs)
);
}
);
userData = {
assembly = "NPUSHB[ ]	/* 56 values pushed */
0 4 5 1 5 4 1 128 0 1 2 5 1 2 126 0 5 5 3 97 0 3 3 20 77 0 2 2 0 97 6 1 0 0 21 0 78 1 0 43 41 37 35 28 26 16 14 11 9 0 54 1 54 7 7 22
CALL[ ]	/* CallFunction */";
};
width = 437;
}
);
note = S;
unicode = 83;
},
{
glyphname = uni1E9E;
lastChange = "2025-10-05 12:46:58 +0000";
layers = (
{
layerId = m01;
shapes = (
{
closed = 1;
nodes = (
(475,-10,o),
(521,48,o),
(521,134,cs),
(521,297,o),
(301,386,o),
(301,534,cs),
(301,620,o),
(388,625,o),
(453,620,c),
(453,680,o),
(424,773,o),
(289,773,cs),
(160,773,o),
(110,699,o),
(110,565,cs),
(110,540,l),
(16,530,l),
(16,498,l),
(110,498,l),
(110,48,l),
(-7,38,l),
(-7,0,l),
(178,0,l),
(178,585,ls),
(178,700,o),
(210,737,o),
(281,737,cs),
(348,737,o),
(382,706,o),
(382,652,c),
(318,651,o),
(234,612,o),
(234,511,cs),
(234,334,o),
(454,259,o),
(454,120,cs),
(454,61,o),
(437,34,o),
(389,34,cs),
(306,34,o),
(304,179,o),
(304,206,cs),
(304,215,l),
(236,215,l),
(236,0,l),
(274,0,l),
(274,133,l),
(282,133,l),
(288,93,o),
(293,-10,o),
(396,-10,cs)
);
}
);
userData = {
assembly = "NPUSHB[ ]	/* 63 values pushed */
52 51 24 23 4 1 3 1 76 0 1 3 2 3 1 2 128 0 3 3 5 97 0 5 5 20 77 0 4 4 15 77 0 2 2 0 97 6 1 0 0 21 0 78 1 0 49 47 36 33 28 26 16 14 10 8 0 58 1 58 7 7 22
CALL[ ]	/* CallFunction */";
};
width = 541;
}
);
note = uni1E9E;
unicode = 7838;
},
{
glyphname = T;
kernLeft = T;
kernRight = T;
lastChange = "2025-10-04 21:54:58 +0000";
layers = (
{
anchors = (
{
name = bottom;
pos = (238,0);
},
{
name = top;
pos = (238,720);
}
);
layerId = m01;
shapes = (
{
closed = 1;
nodes = (
(61,0,l),
(409,0,l),
(409,42,l),
(270,42,l),
(270,695,l),
(329,695,ls),
(377,695,o),
(408,681,o),
(412,633,cs),
(421,526,l),
(454,526,l),
(454,740,l),
(16,740,l),
(16,526,l),
(49,526,l),
(58,633,ls),
(62,681,o),
(93,695,o),
(141,695,cs),
(200,695,l),
(200,42,l),
(61,42,l)
);
}
);
userData = {
assembly = "NPUSHB[ ]	/* 65 values pushed */
34 21 2 1 4 35 20 2 2 1 2 76 7 1 1 1 4 95 0 4 4 14 77 6 1 2 2 3 97 5 1 3 3 20 77 8 1 0 0 15 0 78 1 0 44 42 38 36 33 31 29 26 23 22 19 17 13 11 0 55 1 54 9 7 22
CALL[ ]	/* CallFunction */";
};
width = 470;
}
);
note = T;
unicode = 84;
},
{
glyphname = U;
kernLeft = U;
kernRight = U;
lastChange = "2025-10-04 21:55:45 +0000";
layers = (
{
anchors = (
{
name = bottom;
pos = (265,0);
},
{
name = ogonek;
pos = (331,0);
},
{
name = top;
pos = (285,720);
}
);
layerId = m01;
shapes = (
{
closed = 1;
nodes = (
(365,-10,o),
(432,52,o),
(432,165,cs),
(432,696,l),
(491,696,l),
(491,740,l),
(319,740,l),
(319,696,l),
(388,696,l),
(388,164,ls),
(388,78,o),
(345,41,o),
(277,41,cs),
(205,41,o),
(156,78,o),
(156,164,cs),
(156,696,l),
(250,696,l),
(250,740,l),
(22,740,l),
(22,696,l),
(86,696,l),
(86,165,ls),
(86,52,o),
(153,-10,o),
(259,-10,cs)
);
}
);
userData = {
assembly = "NPUSHB[ ]	/* 33 values pushed */
3 1 1 1 14 77 0 2 2 0 97 4 1 0 0 21 0 78 1 0 39 36 27 25 15 12 0 48 1 48 5 7 22
CALL[ ]	/* CallFunction */";
};
width = 509;
}
);
note = U;
unicode = 85;
},
{
glyphname = V;
lastChange = "2025-10-04 22:25:02 +0000";
layers = (
{
layerId = m01;
shapes = (
{
closed = 1;
nodes = (
(209,0,l),
(259,0,l),
(429,696,l),
(480,696,l),
(480,740,l),
(322,740,l),
(322,696,l),
(384,696,l),
(246,134,l),
(112,696,l),
(213,696,l),
(213,740,l),
(-23,740,l),
(-23,696,l),
(41,696,l)
);
}
);
userData = {
assembly = "NPUSHB[ ]	/* 20 values pushed */
2 1 1 1 0 95 3 1 0 0 14 1 78 61 17 18 59 4 7 26
CALL[ ]	/* CallFunction */";
};
width = 457;
}
);
note = V;
unicode = 86;
},
{
glyphname = W;
kernLeft = W;
kernRight = W;
lastChange = "2025-10-04 22:26:38 +0000";
layers = (
{
anchors = (
{
name = bottom;
pos = (326,0);
},
{
name = top;
pos = (266,740);
}
);
layerId = m01;
shapes = (
{
closed = 1;
nodes = (
(-17,696,l),
(147,696,l),
(147,740,l),
(-17,740,l)
);
},
{
closed = 1;
nodes = (
(492,696,l),
(618,696,l),
(618,740,l),
(492,740,l)
);
},
{
closed = 1;
nodes = (
(202,0,l),
(226,0,l),
(250,68,l),
(115,726,l),
(50,726,l)
);
},
{
closed = 1;
nodes = (
(365,0,l),
(395,0,l),
(415,71,l),
(280,730,l),
(215,730,l)
);
},
{
closed = 1;
nodes = (
(203,0,l),
(246,0,l),
(411,730,l),
(368,730,l)
);
},
{
closed = 1;
nodes = (
(367,0,l),
(410,0,l),
(576,727,l),
(533,727,l)
);
},
{
closed = 1;
nodes = (
(177,696,l),
(462,696,l),
(462,740,l),
(177,740,l)
);
}
);
userData = {
assembly = "NPUSHB[ ]	/* 43 values pushed */
0 5 3 1 3 5 1 128 0 1 1 132 6 4 2 3 0 0 14 77 0 3 3 17 3 78 98 95 87 86 73 70 61 60 51 48 35 34 25 22 7 7 22
CALL[ ]	/* CallFunction */";
};
width = 597;
}
);
note = W;
unicode = 87;
},
{
glyphname = X;
lastChange = "2025-10-04 22:29:48 +0000";
layers = (
{
layerId = m01;
shapes = (
{
closed = 1;
nodes = (
(10,696,l),
(223,696,l),
(223,740,l),
(10,740,l)
);
},
{
closed = 1;
nodes = (
(300,696,l),
(458,696,l),
(458,740,l),
(300,740,l)
);
},
{
closed = 1;
nodes = (
(16,0,l),
(179,0,l),
(179,44,l),
(16,44,l)
);
},
{
closed = 1;
nodes = (
(263,0,l),
(483,0,l),
(483,44,l),
(263,44,l)
);
},
{
closed = 1;
nodes = (
(344,24,l),
(416,24,l),
(149,716,l),
(77,716,l)
);
},
{
closed = 1;
nodes = (
(230,395,l),
(272,395,l),
(397,717,l),
(355,717,l)
);
},
{
closed = 1;
nodes = (
(79,29,l),
(121,29,l),
(260,389,l),
(218,389,l)
);
}
);
userData = {
assembly = "NPUSHB[ ]	/* 48 values pushed */
0 2 1 5 1 2 5 128 0 5 0 1 5 0 126 3 1 1 1 14 77 4 6 2 0 0 15 0 78 1 0 79 78 69 66 46 43 34 33 24 21 0 89 1 88 7 7 22
CALL[ ]	/* CallFunction */";
};
width = 493;
}
);
note = X;
unicode = 88;
},
{
glyphname = Y;
kernLeft = Y;
kernRight = Y;
lastChange = "2025-10-04 22:33:14 +0000";
layers = (
{
anchors = (
{
name = bottom;
pos = (239,0);
},
{
name = top;
pos = (259,720);
}
);
layerId = m01;
shapes = (
{
closed = 1;
nodes = (
(89,0,l),
(407,0,l),
(407,44,l),
(89,44,l)
);
},
{
closed = 1;
nodes = (
(329,696,l),
(497,696,l),
(497,740,l),
(329,740,l)
);
},
{
closed = 1;
nodes = (
(-26,696,l),
(220,696,l),
(220,740,l),
(-26,740,l)
);
},
{
closed = 1;
nodes = (
(221,300,l),
(274,332,l),
(121,716,l),
(53,716,l)
);
},
{
closed = 1;
nodes = (
(213,28,l),
(283,28,l),
(283,322,l),
(248,352,l),
(213,322,l)
);
},
{
closed = 1;
nodes = (
(388,716,l),
(249,338,l),
(280,306,l),
(434,716,l)
);
}
);
userData = {
assembly = "NPUSHB[ ]	/* 46 values pushed */
0 4 2 0 2 4 0 128 3 1 2 2 1 95 5 1 1 1 14 77 6 1 0 0 15 0 78 1 0 44 41 32 31 27 26 25 24 22 19 0 64 1 63 7 7 22
CALL[ ]	/* CallFunction */";
};
width = 477;
}
);
note = Y;
unicode = 89;
},
{
glyphname = Z;
kernLeft = Z;
kernRight = Z;
lastChange = "2025-10-04 22:33:54 +0000";
layers = (
{
anchors = (
{
name = bottom;
pos = (213,0);
},
{
name = top;
pos = (233,720);
}
);
layerId = m01;
shapes = (
{
closed = 1;
nodes = (
(20,0,l),
(411,0,l),
(411,224,l),
(378,224,l),
(364,107,ls),
(358,59,o),
(329,45,o),
(281,45,cs),
(109,45,l),
(419,720,l),
(419,740,l),
(44,740,l),
(44,516,l),
(77,516,l),
(91,633,ls),
(97,681,o),
(126,695,o),
(174,695,cs),
(330,695,l),
(20,20,l)
);
}
);
userData = {
assembly = "NPUSHB[ ]	/* 71 values pushed */
39 1 5 6 40 1 0 5 2 76 0 6 2 5 2 6 5 128 0 1 1 4 95 0 4 4 14 77 0 2 2 3 97 0 3 3 16 77 0 5 5 0 96 7 1 0 0 15 0 78 1 0 38 36 31 28 24 21 18 17 14 12 8 5 0 42 1 41 8 7 22
CALL[ ]	/* CallFunction */";
};
width = 429;
}
);
note = Z;
unicode = 90;
},
{
glyphname = a;
kernLeft = a;
kernRight = a;
lastChange = "2025-10-04 21:30:20 +0000";
layers = (
{
anchors = (
{
name = bottom;
pos = (200,0);
},
{
name = ogonek;
pos = (344,0);
},
{
name = top;
pos = (200,510);
}
);
layerId = m01;
shapes = (
{
closed = 1;
nodes = (
(213,-10,o),
(238,31,o),
(245,67,c),
(245,11,o),
(276,-10,o),
(316,-10,cs),
(369,-10,o),
(397,32,o),
(399,108,c),
(399,160,l),
(361,160,l),
(361,108,l),
(361,72,o),
(357,42,o),
(338,42,cs),
(319,42,o),
(313,57,o),
(313,84,cs),
(313,398,ls),
(313,467,o),
(309,550,o),
(208,550,cs),
(108,550,o),
(40,451,o),
(40,391,cs),
(40,360,o),
(57,337,o),
(87,337,cs),
(117,337,o),
(136,370,o),
(124,403,cs),
(100,468,o),
(127,504,o),
(176,503,cs),
(239,502,o),
(245,473,o),
(245,408,cs),
(245,313,l),
(185,276,ls),
(120,236,o),
(27,194,o),
(27,105,cs),
(27,41,o),
(72,-10,o),
(145,-10,cs)
);
},
{
closed = 1;
nodes = (
(95,185,o),
(147,212,o),
(192,242,cs),
(245,277,l),
(245,134,l),
(241,82,o),
(204,44,o),
(166,44,cs),
(112,44,o),
(95,76,o),
(95,118,cs)
);
}
);
userData = {
assembly = "NPUSHB[ ]	/* 87 values pushed */
0 2 1 5 1 2 5 128 0 5 7 1 5 7 126 0 7 4 1 7 4 126 0 1 1 3 97 0 3 3 23 77 0 4 4 0 97 6 9 2 0 0 21 77 10 1 8 8 0 97 6 9 2 0 0 21 0 78 51 50 1 0 50 61 51 61 46 45 42 40 37 35 32 30 27 25 20 18 14 12 0 49 1 49 11 7 22
CALL[ ]	/* CallFunction */";
};
width = 403;
}
);
note = a;
unicode = 97;
},
{
glyphname = ae;
kernLeft = a;
kernRight = ae;
lastChange = "2025-10-05 11:40:58 +0000";
layers = (
{
layerId = m01;
shapes = (
{
closed = 1;
nodes = (
(210,-10,o),
(247,52,o),
(259,88,c),
(284,29,o),
(322,-10,o),
(385,-10,cs),
(495,-10,o),
(518,111,o),
(523,189,c),
(485,193,l),
(479,130,o),
(464,42,o),
(399,42,cs),
(347,42,o),
(322,73,o),
(310,138,c),
(310,294,l),
(525,294,l),
(526,345,ls),
(529,474,o),
(490,550,o),
(395,550,cs),
(351,550,o),
(316,532,o),
(290,502,c),
(274,530,o),
(246,550,o),
(197,550,cs),
(97,550,o),
(37,451,o),
(37,391,cs),
(37,360,o),
(54,337,o),
(84,337,cs),
(114,337,o),
(133,368,o),
(121,403,cs),
(100,461,o),
(116,505,o),
(173,508,cs),
(236,505,o),
(242,473,o),
(242,408,cs),
(242,311,l),
(182,276,ls),
(116,238,o),
(24,194,o),
(24,105,cs),
(24,41,o),
(69,-10,o),
(142,-10,cs)
);
},
{
closed = 1;
nodes = (
(310,416,l),
(310,477,o),
(352,508,o),
(393,508,cs),
(447,508,o),
(462,462,o),
(462,374,cs),
(462,338,o),
(446,330,o),
(425,330,cs),
(310,330,l)
);
},
{
closed = 1;
nodes = (
(92,185,o),
(142,214,o),
(189,242,cs),
(242,274,l),
(242,144,l),
(238,92,o),
(201,44,o),
(163,44,cs),
(109,44,o),
(92,76,o),
(92,118,cs)
);
}
);
userData = {
assembly = "NPUSHB[ ]	/* 122 values pushed */
28 1 2 1 55 1 6 7 2 76 0 2 1 9 1 2 9 128 0 7 5 6 5 7 6 128 13 1 9 0 5 7 9 5 103 0 10 10 3 97 4 1 3 3 23 77 0 1 1 3 97 4 1 3 3 23 77 0 6 6 0 97 8 12 2 0 0 21 77 14 1 11 11 0 97 8 12 2 0 0 21 0 78 71 70 61 59 1 0 70 81 71 81 66 64 59 69 61 69 53 51 48 46 43 41 38 35 32 30 27 25 20 18 14 12 0 58 1 58 15 7 22
CALL[ ]	/* CallFunction */";
};
width = 553;
}
);
note = ae;
unicode = 230;
},
{
glyphname = b;
kernRight = b;
lastChange = "2025-10-04 21:35:21 +0000";
layers = (
{
layerId = m01;
shapes = (
{
closed = 1;
nodes = (
(46,0,l),
(89,0,l),
(89,85,l),
(99,85,l),
(111,44,o),
(142,-10,o),
(214,-10,cs),
(329,-10,o),
(394,120,o),
(394,288,cs),
(394,441,o),
(340,550,o),
(241,550,cs),
(177,550,o),
(132,504,o),
(117,467,c),
(114,467,l),
(114,750,l),
(-36,730,l),
(-36,698,l),
(46,698,l)
);
},
{
closed = 1;
nodes = (
(158,32,o),
(114,69,o),
(114,169,cs),
(114,391,l),
(119,437,o),
(151,499,o),
(219,499,cs),
(270,499,o),
(317,467,o),
(317,386,cs),
(317,169,ls),
(317,78,o),
(277,32,o),
(214,32,cs)
);
}
);
userData = {
assembly = "NPUSHB[ ]	/* 58 values pushed */
29 1 5 3 1 76 0 2 2 16 77 0 5 5 3 97 0 3 3 23 77 7 1 4 4 0 97 1 6 2 0 0 21 0 78 43 42 1 0 49 47 42 54 43 54 35 33 27 25 8 6 0 41 1 41 8 7 22
CALL[ ]	/* CallFunction */";
};
width = 433;
}
);
note = b;
unicode = 98;
},
{
glyphname = c;
kernLeft = c;
lastChange = "2025-10-04 21:32:29 +0000";
layers = (
{
anchors = (
{
name = bottom;
pos = (186,0);
},
{
name = top;
pos = (186,540);
}
);
annotations = (
{
pos = (-29.215,279.144);
type = Arrow;
}
);
layerId = m01;
shapes = (
{
closed = 1;
nodes = (
(239,383,o),
(249,348,o),
(282,348,cs),
(320,348,o),
(334,431,o),
(305,487,cs),
(280,535,o),
(237,550,o),
(193,550,cs),
(71,550,o),
(21,408,o),
(21,265,cs),
(21,110,o),
(70,-10,o),
(183,-10,cs),
(293,-10,o),
(326,110,o),
(329,189,c),
(288,193,l),
(285,129,o),
(260,42,o),
(197,42,cs),
(126,42,o),
(95,104,o),
(95,220,cs),
(95,330,l),
(98,437,o),
(133,493,o),
(186,508,cs),
(236,522,o),
(269,484,o),
(257,443,cs)
);
}
);
userData = {
assembly = "NPUSHB[ ]	/* 56 values pushed */
0 2 3 5 3 2 5 128 0 5 4 3 5 4 126 0 3 3 1 97 0 1 1 23 77 0 4 4 0 97 6 1 0 0 21 0 78 1 0 34 32 29 27 22 20 16 14 9 7 0 38 1 38 7 7 22
CALL[ ]	/* CallFunction */";
};
width = 344;
}
);
note = c;
unicode = 99;
},
{
glyphname = d;
kernLeft = c;
kernRight = d;
lastChange = "2025-10-04 21:33:40 +0000";
layers = (
{
anchors = (
{
name = bottom;
pos = (229,0);
},
{
name = top;
pos = (229,740);
}
);
layerId = m01;
shapes = (
{
closed = 1;
nodes = (
(240,-10,o),
(288,34,o),
(302,75,c),
(301,34,o),
(333,-10,o),
(373,-10,cs),
(431,-10,o),
(454,29,o),
(456,108,c),
(456,160,l),
(418,160,l),
(418,108,l),
(418,72,o),
(417,42,o),
(396,42,c),
(377,42,o),
(370,57,o),
(370,84,c),
(370,750,l),
(220,730,l),
(220,696,l),
(302,696,l),
(302,504,l),
(284,527,o),
(254,550,o),
(207,550,cs),
(85,550,o),
(22,412,o),
(22,241,cs),
(22,98,o),
(71,-10,o),
(176,-10,cs)
);
},
{
closed = 1;
nodes = (
(146,41,o),
(99,73,o),
(99,154,cs),
(99,371,ls),
(99,462,o),
(139,508,o),
(202,508,cs),
(258,508,o),
(302,471,o),
(302,371,cs),
(302,149,l),
(297,103,o),
(265,41,o),
(197,41,cs)
);
}
);
userData = {
assembly = "NPUSHB[ ]	/* 76 values pushed */
0 4 7 3 7 4 3 128 0 2 2 16 77 0 7 7 1 97 0 1 1 23 77 0 3 3 0 97 5 8 2 0 0 21 77 9 1 6 6 0 97 5 8 2 0 0 21 0 78 52 51 1 0 60 58 51 64 52 64 43 41 38 36 33 31 28 26 9 7 0 50 1 50 10 7 22
CALL[ ]	/* CallFunction */";
};
width = 464;
}
);
note = d;
unicode = 100;
},
{
glyphname = eth;
kernLeft = c;
kernRight = b;
lastChange = "2025-10-05 11:44:25 +0000";
layers = (
{
layerId = m01;
shapes = (
{
closed = 1;
nodes = (
(298,-10,o),
(387,76,o),
(387,311,cs),
(387,526,o),
(287,716,o),
(89,760,c),
(79,725,l),
(241,689,o),
(330,510,o),
(330,387,cs),
(330,378,l),
(322,378,l),
(314,428,o),
(286,505,o),
(187,505,cs),
(67,505,o),
(29,390,o),
(29,245,cs),
(29,79,o),
(86,-10,o),
(193,-10,cs)
);
},
{
closed = 1;
nodes = (
(116,35,o),
(97,86,o),
(97,180,cs),
(97,315,ls),
(97,409,o),
(116,463,o),
(188,463,cs),
(265,463,o),
(285,399,o),
(285,315,cs),
(285,180,ls),
(285,86,o),
(268,35,o),
(192,35,cs)
);
}
);
userData = {
assembly = "NPUSHB[ ]	/* 44 values pushed */
18 1 1 74 0 1 0 3 2 1 3 105 5 1 2 2 0 97 4 1 0 0 21 0 78 31 30 1 0 35 33 30 39 31 39 9 7 0 29 1 29 6 7 22
CALL[ ]	/* CallFunction */";
};
width = 414;
}
);
note = eth;
unicode = 240;
},
{
glyphname = dcroat;
kernLeft = c;
kernRight = d;
lastChange = "2025-10-04 21:26:23 +0000";
layers = (
{
anchors = (
{
name = bottom;
pos = (229,0);
},
{
name = top;
pos = (229,740);
}
);
layerId = m01;
shapes = (
{
closed = 1;
nodes = (
(138,598,l),
(437,598,l),
(437,628,l),
(138,628,l)
);
},
{
ref = d;
}
);
userData = {
assembly = "NPUSHB[ ]	/* 94 values pushed */
0 8 11 7 11 8 7 128 5 1 3 6 1 2 1 3 2 105 0 4 4 16 77 0 11 11 1 97 0 1 1 23 77 0 7 7 0 97 9 12 2 0 0 21 77 13 1 10 10 0 97 9 12 2 0 0 21 0 78 68 67 1 0 76 74 67 80 68 80 59 57 54 52 49 47 45 43 40 38 36 34 21 19 16 14 9 7 0 66 1 66 14 7 22
CALL[ ]	/* CallFunction */";
};
width = 460;
}
);
note = dcroat;
unicode = 273;
},
{
glyphname = e;
kernLeft = c;
kernRight = ae;
lastChange = "2025-10-04 21:35:44 +0000";
layers = (
{
anchors = (
{
name = bottom;
pos = (178,0);
},
{
name = ogonek;
pos = (239,0);
},
{
name = top;
pos = (193,510);
}
);
layerId = m01;
shapes = (
{
closed = 1;
nodes = (
(292,-10,o),
(324,111,o),
(331,189,c),
(291,193,l),
(285,122,o),
(261,42,o),
(196,42,cs),
(125,42,o),
(94,104,o),
(94,220,cs),
(94,294,l),
(332,294,l),
(333,345,l),
(333,474,o),
(287,550,o),
(192,550,cs),
(68,550,o),
(20,408,o),
(20,265,cs),
(20,110,o),
(69,-10,o),
(182,-10,cs)
);
},
{
closed = 1;
nodes = (
(244,511,o),
(269,462,o),
(269,374,cs),
(269,338,o),
(253,330,o),
(232,330,cs),
(94,330,l),
(97,437,o),
(126,511,o),
(190,511,cs)
);
}
);
userData = {
assembly = "NPUSHB[ ]	/* 64 values pushed */
0 4 2 3 2 4 3 128 8 1 5 0 2 4 5 2 103 0 6 6 1 97 0 1 1 23 77 0 3 3 0 97 7 1 0 0 21 0 78 31 29 1 0 36 34 29 39 31 39 25 23 20 18 15 12 9 7 0 28 1 28 9 7 22
CALL[ ]	/* CallFunction */";
};
width = 353;
}
);
note = e;
unicode = 101;
},
{
glyphname = f;
kernLeft = f;
lastChange = "2025-10-05 11:56:53 +0000";
layers = (
{
layerId = m01;
shapes = (
{
closed = 1;
nodes = (
(97,44,l),
(10,44,l),
(10,0,l),
(298,0,l),
(298,44,l),
(165,44,l),
(165,498,l),
(298,498,l),
(298,540,l),
(165,540,l),
(165,625,ls),
(165,692,o),
(184,719,o),
(207,729,cs),
(248,747,o),
(286,735,o),
(284,680,cs),
(283,651,o),
(302,623,o),
(337,629,cs),
(364,634,o),
(372,667,o),
(367,691,cs),
(357,740,o),
(306,781,o),
(230,771,cs),
(138,759,o),
(97,689,o),
(97,570,cs),
(97,540,l),
(13,530,l),
(13,498,l),
(97,498,l)
);
}
);
userData = {
assembly = "NPUSHB[ ]	/* 45 values pushed */
0 2 3 4 3 2 4 128 0 3 3 1 97 0 1 1 16 77 5 1 0 0 4 95 0 4 4 17 77 0 6 6 15 6 78 57 50 52 35 36 41 50 7 7 29
CALL[ ]	/* CallFunction */";
};
width = 308;
}
);
note = f;
unicode = 102;
},
{
glyphname = g;
kernLeft = g;
kernRight = g;
lastChange = "2025-10-05 12:08:26 +0000";
layers = (
{
anchors = (
{
name = bottom;
pos = (196,-205);
},
{
name = top;
pos = (196,510);
}
);
layerId = m01;
shapes = (
{
closed = 1;
nodes = (
(116,-144,o),
(65,-111,o),
(65,-42,cs),
(65,32,o),
(138,57,o),
(163,60,c),
(240,55,l),
(277,52,o),
(344,36,o),
(344,-40,cs),
(344,-101,o),
(286,-144,o),
(206,-144,cs)
);
},
{
closed = 1;
nodes = (
(143,254,o),
(115,295,o),
(115,362,cs),
(115,404,ls),
(115,471,o),
(143,512,o),
(204,512,cs),
(265,512,o),
(293,471,o),
(293,404,cs),
(293,362,ls),
(293,295,o),
(265,254,o),
(204,254,cs)
);
},
{
closed = 1;
nodes = (
(418,508,l),
(418,548,l),
(251,537,l),
(277,507,l)
);
},
{
closed = 1;
nodes = (
(317,-190,o),
(398,-126,o),
(398,-25,cs),
(398,64,o),
(339,113,o),
(253,120,cs),
(135,130,ls),
(109,132,o),
(66,128,o),
(59,170,cs),
(56,189,o),
(78,212,o),
(117,242,c),
(134,228,o),
(161,216,o),
(204,216,cs),
(321,216,o),
(361,302,o),
(361,383,cs),
(361,516,o),
(269,550,o),
(204,550,cs),
(97,550,o),
(47,464,o),
(47,383,cs),
(47,339,o),
(58,299,o),
(91,266,c),
(40,227,o),
(11,193,o),
(14,150,cs),
(17,104,o),
(49,71,o),
(101,65,c),
(101,61,l),
(66,51,o),
(10,13,o),
(10,-56,cs),
(10,-133,o),
(73,-190,o),
(196,-190,cs)
);
}
);
userData = {
assembly = "NPUSHB[ ]	/* 92 values pushed */
0 3 1 8 4 3 114 0 2 0 4 1 2 4 105 12 1 7 0 5 6 7 5 105 0 6 0 10 9 6 10 105 0 8 8 1 97 0 1 1 23 77 13 1 9 9 0 97 11 1 0 0 25 0 78 80 79 68 67 1 0 88 85 79 95 80 95 74 72 67 78 68 78 61 58 53 51 41 39 37 35 31 29 24 22 0 66 1 66 14 7 22
CALL[ ]	/* CallFunction */";
};
width = 402;
}
);
note = g;
unicode = 103;
},
{
glyphname = h;
kernLeft = h;
kernRight = h;
lastChange = "2025-10-04 21:37:09 +0000";
layers = (
{
layerId = m01;
shapes = (
{
closed = 1;
nodes = (
(10,0,l),
(261,0,l),
(261,44,l),
(162,44,l),
(162,410,l),
(171,446,o),
(204,494,o),
(261,494,cs),
(307,494,o),
(331,466,o),
(331,414,cs),
(331,0,l),
(473,0,l),
(473,44,l),
(399,44,l),
(399,430,ls),
(399,508,o),
(358,550,o),
(293,550,cs),
(225,550,o),
(180,509,o),
(165,474,c),
(162,474,l),
(162,750,l),
(12,730,l),
(12,696,l),
(94,696,l),
(94,44,l),
(10,44,l)
);
}
);
userData = {
assembly = "NPUSHB[ ]	/* 40 values pushed */
0 1 1 16 77 0 4 4 2 97 0 2 2 23 77 3 5 2 0 0 15 0 78 1 0 57 55 45 42 32 30 23 21 0 69 1 68 6 7 22
CALL[ ]	/* CallFunction */";
};
width = 489;
}
);
note = h;
unicode = 104;
},
{
glyphname = hbar;
kernLeft = h;
kernRight = h;
lastChange = "2025-10-05 11:50:59 +0000";
layers = (
{
layerId = m01;
shapes = (
{
pos = (2,0);
ref = h;
},
{
closed = 1;
nodes = (
(10,597,l),
(305,597,l),
(305,635,l),
(10,635,l)
);
}
);
userData = {
assembly = "NPUSHB[ ]	/* 58 values pushed */
4 1 2 5 1 1 6 2 1 105 0 3 3 16 77 0 8 8 6 97 0 6 6 23 77 7 9 2 0 0 15 0 78 1 0 73 71 61 58 48 46 40 38 35 33 31 29 16 14 11 9 0 85 1 84 10 7 22
CALL[ ]	/* CallFunction */";
};
width = 491;
}
);
note = hbar;
unicode = 295;
},
{
glyphname = dotlessi;
kernLeft = i;
lastChange = "2025-10-04 21:26:23 +0000";
layers = (
{
anchors = (
{
name = bottom;
pos = (166,0);
},
{
name = ogonek;
pos = (221,0);
},
{
name = top;
pos = (166,510);
}
);
layerId = m01;
shapes = (
{
closed = 1;
nodes = (
(14,0,l),
(330,0,l),
(330,44,l),
(211,44,l),
(211,550,l),
(31,530,l),
(31,498,l),
(143,498,l),
(143,44,l),
(14,44,l)
);
}
);
userData = {
assembly = "NPUSHB[ ]	/* 29 values pushed */
15 1 0 1 1 76 0 1 1 17 77 2 1 0 0 15 0 78 1 0 23 21 0 33 1 32 3 7 22
CALL[ ]	/* CallFunction */";
};
width = 345;
}
);
note = dotlessi;
unicode = 305;
},
{
glyphname = uni0237;
kernLeft = j;
lastChange = "2025-10-04 21:38:04 +0000";
layers = (
{
layerId = m01;
shapes = (
{
closed = 1;
nodes = (
(-20,530,l),
(-20,496,l),
(102,496,l),
(102,-2,ls),
(102,-107,o),
(97,-145,o),
(59,-153,cs),
(21,-161,o),
(24,-123,o),
(21,-106,cs),
(17,-80,o),
(5,-56,o),
(-25,-54,cs),
(-54,-52,o),
(-76,-74,o),
(-71,-105,cs),
(-64,-149,o),
(-21,-197,o),
(52,-190,cs),
(145,-181,o),
(170,-81,o),
(170,0,cs),
(170,550,l)
);
}
);
userData = {
assembly = "PUSHB[ ]	/* 6 values pushed */
21 1 1 3 1 76
MPPEM[ ]	/* MeasurePixelPerEm */
PUSHB[ ]	/* 1 value pushed */
23
LT[ ]	/* LessThan */
IF[ ]	/* If */
NPUSHB[ ]	/* 24 values pushed */
0 1 3 2 2 1 114 0 3 3 17 77 0 2 2 0 98 4 1 0 0 25 0 78
ELSE[ ]	/* Else */
NPUSHB[ ]	/* 25 values pushed */
0 1 3 2 3 1 2 128 0 3 3 17 77 0 2 2 0 98 4 1 0 0 25 0 78
EIF[ ]	/* EndIf */
NPUSHB[ ]	/* 15 values pushed */
1 0 29 27 12 10 7 5 0 33 1 33 5 7 22
CALL[ ]	/* CallFunction */";
};
width = 219;
}
);
note = uni0237;
unicode = 567;
},
{
glyphname = k;
kernLeft = h;
kernRight = k;
lastChange = "2025-10-04 21:40:37 +0000";
layers = (
{
anchors = (
{
name = bottom;
pos = (229,0);
},
{
name = top;
pos = (234,740);
}
);
layerId = m01;
shapes = (
{
closed = 1;
nodes = (
(10,0,l),
(229,0,l),
(229,44,l),
(160,44,l),
(160,225,l),
(205,288,l),
(324,44,l),
(267,44,l),
(267,0,l),
(469,0,l),
(469,44,l),
(398,44,l),
(246,336,l),
(362,496,l),
(452,496,l),
(452,540,l),
(270,540,l),
(270,496,l),
(316,496,l),
(160,287,l),
(160,750,l),
(10,730,l),
(10,696,l),
(92,696,l),
(92,44,l),
(10,44,l)
);
}
);
userData = {
assembly = "NPUSHB[ ]	/* 33 values pushed */
0 1 1 16 77 0 2 2 17 77 3 4 2 0 0 15 0 78 1 0 60 57 39 36 23 21 0 83 1 82 5 7 22
CALL[ ]	/* CallFunction */";
};
width = 479;
}
);
note = k;
unicode = 107;
},
{
glyphname = l;
kernLeft = h;
kernRight = l;
lastChange = "2026-01-04 15:46:32 +0000";
layers = (
{
anchors = (
{
name = bottom;
pos = (150,0);
},
{
name = top;
pos = (125,710);
}
);
layerId = m01;
shapes = (
{
closed = 1;
nodes = (
(4,0,l),
(320,0,l),
(320,44,l),
(201,44,l),
(201,750,l),
(21,730,l),
(21,698,l),
(133,698,l),
(133,44,l),
(4,44,l)
);
}
);
userData = {
assembly = "NPUSHB[ ]	/* 23 values pushed */
0 1 1 16 77 2 1 0 0 15 0 78 1 0 23 21 0 33 1 32 3 7 22
CALL[ ]	/* CallFunction */";
};
width = 330;
}
);
note = l;
unicode = 108;
},
{
glyphname = lslash;
kernLeft = h;
kernRight = l;
lastChange = "2025-10-05 11:51:43 +0000";
layers = (
{
anchors = (
{
name = bottom;
pos = (136,0);
},
{
name = top;
pos = (111,710);
}
);
layerId = m01;
shapes = (
{
ref = l;
},
{
closed = 1;
nodes = (
(57,282,l),
(310,432,l),
(290,466,l),
(38,316,l)
);
}
);
userData = {
assembly = "NPUSHB[ ]	/* 32 values pushed */
40 33 16 9 4 0 1 1 76 0 1 1 16 77 2 1 0 0 15 0 78 1 0 31 29 0 49 1 48 3 7 22
CALL[ ]	/* CallFunction */";
};
width = 330;
}
);
note = lslash;
unicode = 322;
},
{
glyphname = m;
kernLeft = m;
kernRight = h;
lastChange = "2025-10-04 21:42:43 +0000";
layers = (
{
layerId = m01;
shapes = (
{
closed = 1;
nodes = (
(10,0,l),
(221,0,l),
(221,44,l),
(152,44,l),
(152,406,ls),
(152,440,o),
(184,495,o),
(218,495,cs),
(250,495,o),
(264,471,o),
(264,447,cs),
(264,0,l),
(402,0,l),
(402,44,l),
(333,44,l),
(333,406,ls),
(333,430,o),
(356,495,o),
(402,495,cs),
(433,495,o),
(445,471,o),
(445,447,cs),
(445,0,l),
(584,0,l),
(584,44,l),
(515,44,l),
(515,470,ls),
(515,522,o),
(476,550,o),
(435,550,cs),
(380,550,o),
(348,510,o),
(336,479,c),
(333,479,l),
(330,525,o),
(291,550,o),
(254,550,cs),
(208,550,o),
(166,510,o),
(155,479,c),
(152,479,l),
(152,550,l),
(10,530,l),
(10,498,l),
(82,498,l),
(82,44,l),
(10,44,l)
);
}
);
userData = {
assembly = "NPUSHB[ ]	/* 52 values pushed */
25 15 2 0 5 1 76 7 1 5 5 1 97 3 2 2 1 1 17 77 6 4 8 3 0 0 15 0 78 1 0 92 90 80 77 66 64 54 51 41 39 32 30 23 21 0 104 1 103 9 7 22
CALL[ ]	/* CallFunction */";
};
width = 594;
}
);
note = m;
unicode = 109;
},
{
glyphname = n;
kernLeft = m;
kernRight = h;
lastChange = "2025-10-04 21:42:55 +0000";
layers = (
{
anchors = (
{
name = bottom;
pos = (235,0);
},
{
name = top;
pos = (235,510);
}
);
layerId = m01;
shapes = (
{
closed = 1;
nodes = (
(10,0,l),
(249,0,l),
(249,44,l),
(150,44,l),
(150,391,ls),
(150,428,o),
(182,494,o),
(239,494,cs),
(285,494,o),
(299,466,o),
(299,414,cs),
(299,0,l),
(451,0,l),
(451,44,l),
(367,44,l),
(367,430,ls),
(367,508,o),
(336,550,o),
(271,550,cs),
(203,550,o),
(168,504,o),
(153,469,c),
(150,469,l),
(150,550,l),
(10,530,l),
(10,496,l),
(82,496,l),
(82,44,l),
(10,44,l)
);
}
);
userData = {
assembly = "NPUSHB[ ]	/* 42 values pushed */
15 1 0 4 1 76 0 4 4 1 97 2 1 1 1 17 77 3 5 2 0 0 15 0 78 1 0 57 55 45 42 32 30 23 21 0 69 1 68 6 7 22
CALL[ ]	/* CallFunction */";
};
width = 470;
}
);
note = n;
unicode = 110;
},
{
glyphname = eng;
kernLeft = m;
lastChange = "2025-10-04 21:26:23 +0000";
layers = (
{
anchors = (
{
name = bottom;
pos = (235,0);
},
{
name = top;
pos = (235,510);
}
);
layerId = m01;
shapes = (
{
closed = 1;
nodes = (
(10,0,l),
(249,0,l),
(249,34,l),
(150,34,l),
(150,401,ls),
(150,438,o),
(182,504,o),
(239,504,cs),
(285,504,o),
(299,476,o),
(299,424,cs),
(299,0,l),
(367,0,l),
(367,430,ls),
(367,508,o),
(336,550,o),
(271,550,cs),
(203,550,o),
(168,504,o),
(153,469,c),
(150,469,l),
(150,550,l),
(10,530,l),
(10,506,l),
(82,506,l),
(82,34,l),
(10,34,l)
);
},
{
closed = 1;
nodes = (
(333,10,l),
(299,0,l),
(299,-115,o),
(244,-179,o),
(190,-164,cs),
(120,-145,o),
(151,-99,o),
(107,-78,cs),
(82,-66,o),
(54,-86,o),
(54,-111,cs),
(54,-160,o),
(111,-186,o),
(167,-190,cs),
(300,-200,o),
(367,-119,o),
(367,0,c)
);
}
);
userData = {
assembly = "PUSHB[ ]	/* 6 values pushed */
47 1 4 3 1 76
MPPEM[ ]	/* MeasurePixelPerEm */
PUSHB[ ]	/* 1 value pushed */
23
LT[ ]	/* LessThan */
IF[ ]	/* If */
NPUSHB[ ]	/* 35 values pushed */
0 1 4 2 2 1 114 0 3 3 5 97 6 1 5 5 17 77 0 4 4 15 77 0 2 2 0 98 7 1 0 0 25 0 78
ELSE[ ]	/* Else */
NPUSHB[ ]	/* 36 values pushed */
0 1 4 2 4 1 2 128 0 3 3 5 97 6 1 5 5 17 77 0 4 4 15 77 0 2 2 0 98 7 1 0 0 25 0 78
EIF[ ]	/* EndIf */
NPUSHB[ ]	/* 21 values pushed */
1 0 64 62 55 53 33 30 19 17 12 10 7 5 0 69 1 69 8 7 22
CALL[ ]	/* CallFunction */";
};
width = 386;
}
);
note = eng;
unicode = 331;
},
{
glyphname = o;
kernLeft = c;
kernRight = b;
lastChange = "2025-10-04 21:44:04 +0000";
layers = (
{
anchors = (
{
name = bottom;
pos = (192,0);
},
{
name = ogonek;
pos = (355,10);
},
{
name = top;
pos = (192,510);
}
);
layerId = m01;
shapes = (
{
closed = 1;
nodes = (
(326,-10,o),
(369,130,o),
(369,270,cs),
(369,410,o),
(326,550,o),
(192,550,cs),
(58,550,o),
(15,410,o),
(15,270,cs),
(15,130,o),
(58,-10,o),
(192,-10,cs)
);
},
{
closed = 1;
nodes = (
(108,32,o),
(85,96,o),
(85,220,cs),
(85,320,ls),
(85,444,o),
(108,508,o),
(192,508,cs),
(276,508,o),
(299,444,o),
(299,320,cs),
(299,220,ls),
(299,96,o),
(276,32,o),
(192,32,cs)
);
}
);
userData = {
assembly = "NPUSHB[ ]	/* 42 values pushed */
0 3 3 1 97 0 1 1 23 77 5 1 2 2 0 97 4 1 0 0 21 0 78 17 16 1 0 21 19 16 23 17 23 9 7 0 15 1 15 6 7 22
CALL[ ]	/* CallFunction */";
};
width = 384;
}
);
note = o;
unicode = 111;
},
{
glyphname = oslash;
kernLeft = c;
kernRight = b;
lastChange = "2025-10-05 11:52:04 +0000";
layers = (
{
anchors = (
{
name = bottom;
pos = (196,0);
},
{
name = ogonek;
pos = (359,10);
},
{
name = top;
pos = (196,510);
}
);
layerId = m01;
shapes = (
{
ref = o;
},
{
closed = 1;
nodes = (
(49,-50,l),
(87,-50,l),
(340,566,l),
(302,566,l)
);
}
);
userData = {
assembly = "NPUSHB[ ]	/* 69 values pushed */
44 43 35 34 28 19 12 3 8 5 4 1 76 0 2 1 2 133 6 1 0 3 0 134 0 4 4 1 97 0 1 1 23 77 7 1 5 5 3 97 0 3 3 21 3 78 40 39 1 0 39 45 40 45 38 36 27 25 17 14 11 9 0 31 1 30 8 7 22
CALL[ ]	/* CallFunction */";
};
width = 390;
}
);
note = oslash;
unicode = 248;
},
{
glyphname = oe;
kernLeft = c;
kernRight = ae;
lastChange = "2025-10-05 11:53:01 +0000";
layers = (
{
anchors = (
{
name = bottom;
pos = (193,0);
},
{
name = ogonek;
pos = (356,10);
},
{
name = top;
pos = (193,510);
}
);
layerId = m01;
shapes = (
{
closed = 1;
nodes = (
(317,-10,o),
(350,130,o),
(350,270,cs),
(350,410,o),
(317,550,o),
(183,550,cs),
(49,550,o),
(16,410,o),
(16,270,cs),
(16,130,o),
(49,-10,o),
(183,-10,cs)
);
},
{
closed = 1;
nodes = (
(99,32,o),
(86,96,o),
(86,220,cs),
(86,320,ls),
(86,444,o),
(99,508,o),
(183,508,cs),
(267,508,o),
(280,444,o),
(280,320,cs),
(280,220,ls),
(280,96,o),
(267,32,o),
(183,32,cs)
);
},
{
pos = (261,0);
ref = e;
}
);
userData = {
assembly = "NPUSHB[ ]	/* 102 values pushed */
11 1 9 8 38 1 4 5 2 76 0 5 3 4 3 5 4 128 13 1 9 0 3 5 9 3 103 10 1 8 8 1 97 2 1 1 1 23 77 0 4 4 0 97 6 11 2 0 0 21 77 12 1 7 7 0 97 6 11 2 0 0 21 0 78 51 49 42 41 1 0 56 54 49 59 51 59 46 44 41 48 42 48 36 34 31 29 26 24 21 18 15 13 9 7 0 40 1 40 14 7 22
CALL[ ]	/* CallFunction */";
};
width = 610;
}
);
note = oe;
unicode = 339;
},
{
glyphname = p;
kernLeft = m;
kernRight = b;
lastChange = "2025-10-04 21:44:25 +0000";
layers = (
{
layerId = m01;
shapes = (
{
closed = 1;
nodes = (
(-10,-190,l),
(322,-190,l),
(322,-146,l),
(158,-146,l),
(158,36,l),
(176,13,o),
(209,-10,o),
(258,-10,cs),
(375,-10,o),
(438,123,o),
(438,288,cs),
(438,440,o),
(385,550,o),
(285,550,cs),
(221,550,o),
(176,502,o),
(161,465,c),
(158,465,l),
(158,550,l),
(8,530,l),
(8,498,l),
(90,498,l),
(90,-146,l),
(-10,-146,l)
);
},
{
closed = 1;
nodes = (
(158,391,l),
(163,437,o),
(195,499,o),
(263,499,cs),
(314,499,o),
(361,467,o),
(361,386,cs),
(361,169,ls),
(361,78,o),
(321,32,o),
(258,32,cs),
(202,32,o),
(158,69,o),
(158,169,cs)
);
}
);
userData = {
assembly = "NPUSHB[ ]	/* 59 values pushed */
25 15 2 4 5 1 76 0 5 5 1 97 2 1 1 1 17 77 7 1 4 4 3 97 0 3 3 21 77 6 1 0 0 19 0 78 55 54 1 0 61 59 54 66 55 66 41 39 33 31 23 21 0 53 1 52 8 7 22
CALL[ ]	/* CallFunction */";
};
width = 467;
}
);
note = p;
unicode = 112;
},
{
glyphname = thorn;
kernLeft = h;
kernRight = b;
lastChange = "2025-10-05 11:53:43 +0000";
layers = (
{
layerId = m01;
shapes = (
{
closed = 1;
nodes = (
(-10,-190,l),
(322,-190,l),
(322,-146,l),
(158,-146,l),
(158,36,l),
(176,13,o),
(209,-10,o),
(258,-10,cs),
(375,-10,o),
(438,123,o),
(438,288,cs),
(438,440,o),
(385,550,o),
(285,550,cs),
(221,550,o),
(176,502,o),
(161,465,c),
(158,465,l),
(158,750,l),
(8,730,l),
(8,698,l),
(90,698,l),
(90,-146,l),
(-10,-146,l)
);
},
{
closed = 1;
nodes = (
(158,391,l),
(163,437,o),
(195,499,o),
(263,499,cs),
(314,499,o),
(361,467,o),
(361,386,cs),
(361,169,ls),
(361,78,o),
(321,32,o),
(258,32,cs),
(202,32,o),
(158,69,o),
(158,169,cs)
);
}
);
userData = {
assembly = "NPUSHB[ ]	/* 62 values pushed */
25 1 4 5 1 76 0 1 1 16 77 0 5 5 2 97 0 2 2 23 77 7 1 4 4 3 97 0 3 3 21 77 6 1 0 0 19 0 78 55 54 1 0 61 59 54 66 55 66 41 39 33 31 23 21 0 53 1 52 8 7 22
CALL[ ]	/* CallFunction */";
};
width = 467;
}
);
note = thorn;
unicode = 254;
},
{
glyphname = q;
kernLeft = c;
lastChange = "2025-10-04 21:45:00 +0000";
layers = (
{
layerId = m01;
shapes = (
{
closed = 1;
nodes = (
(141,-190,l),
(472,-190,l),
(472,-146,l),
(373,-146,l),
(373,540,l),
(335,540,l),
(335,455,l),
(325,455,l),
(313,496,o),
(277,550,o),
(207,550,cs),
(85,550,o),
(25,412,o),
(25,251,cs),
(25,98,o),
(74,-10,o),
(179,-10,cs),
(243,-10,o),
(287,38,o),
(302,75,c),
(305,75,l),
(305,-146,l),
(141,-146,l)
);
},
{
closed = 1;
nodes = (
(149,41,o),
(102,73,o),
(102,154,cs),
(102,371,ls),
(102,462,o),
(142,508,o),
(205,508,cs),
(261,508,o),
(305,464,o),
(305,364,cs),
(305,149,l),
(300,103,o),
(268,41,o),
(200,41,cs)
);
}
);
userData = {
assembly = "NPUSHB[ ]	/* 58 values pushed */
9 1 4 5 1 76 0 5 5 2 97 3 1 2 2 23 77 7 1 4 4 1 97 0 1 1 21 77 6 1 0 0 19 0 78 47 46 1 0 55 53 46 59 47 59 32 30 24 22 16 14 0 45 1 44 8 7 22
CALL[ ]	/* CallFunction */";
};
width = 442;
}
);
note = q;
unicode = 113;
},
{
glyphname = r;
kernLeft = m;
kernRight = r;
lastChange = "2025-10-04 21:26:23 +0000";
layers = (
{
anchors = (
{
name = bottom;
pos = (84,0);
},
{
name = top;
pos = (134,510);
}
);
layerId = m01;
shapes = (
{
closed = 1;
nodes = (
(311,44,l),
(168,44,l),
(168,283,l),
(170,372,o),
(189,494,o),
(265,500,cs),
(300,503,o),
(310,476,o),
(334,458,cs),
(360,438,o),
(397,453,o),
(393,487,cs),
(388,527,o),
(349,550,o),
(308,550,cs),
(227,550,o),
(181,486,o),
(171,439,c),
(168,439,l),
(168,550,l),
(18,530,l),
(18,498,l),
(100,498,l),
(100,44,l),
(10,44,l),
(10,0,l),
(311,0,l)
);
}
);
userData = {
assembly = "PUSHB[ ]	/* 7 values pushed */
52 42 2 1 2 1 76
MPPEM[ ]	/* MeasurePixelPerEm */
PUSHB[ ]	/* 1 value pushed */
24
LT[ ]	/* LessThan */
IF[ ]	/* If */
NPUSHB[ ]	/* 24 values pushed */
0 1 2 3 2 1 114 0 2 2 0 97 4 1 0 0 23 77 0 3 3 15 3 78
ELSE[ ]	/* Else */
NPUSHB[ ]	/* 25 values pushed */
0 1 2 3 2 1 3 128 0 2 2 0 97 4 1 0 0 23 77 0 3 3 15 3 78
EIF[ ]	/* EndIf */
NPUSHB[ ]	/* 9 values pushed */
50 48 59 35 36 33 5 7 26
CALL[ ]	/* CallFunction */";
};
width = 390;
}
);
note = r;
unicode = 114;
},
{
glyphname = s;
kernLeft = s;
kernRight = s;
lastChange = "2025-10-04 22:57:13 +0000";
layers = (
{
anchors = (
{
name = bottom;
pos = (144,0);
},
{
name = top;
pos = (154,510);
}
);
layerId = m01;
shapes = (
{
closed = 1;
nodes = (
(278,-10,o),
(312,50,o),
(312,131,cs),
(312,297,o),
(104,314,o),
(104,443,cs),
(104,478,o),
(119,506,o),
(159,506,cs),
(243,506,o),
(246,418,o),
(246,349,cs),
(246,346,l),
(308,346,l),
(308,540,l),
(271,540,l),
(271,469,l),
(263,469,l),
(254,507,o),
(228,550,o),
(156,550,cs),
(82,550,o),
(44,496,o),
(44,422,cs),
(44,257,o),
(252,252,o),
(252,107,cs),
(252,57,o),
(232,34,o),
(192,34,cs),
(81,34,o),
(97,189,o),
(97,222,cs),
(97,234,l),
(25,234,l),
(25,0,l),
(62,0,l),
(62,113,l),
(70,113,l),
(77,58,o),
(105,-10,o),
(193,-10,cs)
);
}
);
userData = {
assembly = "NPUSHB[ ]	/* 56 values pushed */
0 4 5 1 5 4 1 128 0 1 2 5 1 2 126 0 5 5 3 97 0 3 3 23 77 0 2 2 0 97 6 1 0 0 21 0 78 1 0 40 38 33 32 26 24 14 12 9 7 0 50 1 50 7 7 22
CALL[ ]	/* CallFunction */";
};
width = 342;
}
);
note = s;
unicode = 115;
},
{
glyphname = germandbls;
kernLeft = f;
kernRight = s;
lastChange = "2025-10-05 11:55:59 +0000";
layers = (
{
layerId = m01;
shapes = (
{
closed = 1;
nodes = (
(430,-10,o),
(475,77,o),
(452,168,cs),
(412,326,o),
(259,331,o),
(259,437,cs),
(259,542,o),
(367,540,o),
(408,644,cs),
(428,695,o),
(394,773,o),
(282,773,cs),
(143,773,o),
(85,685,o),
(85,565,cs),
(85,540,l),
(11,530,l),
(11,498,l),
(85,498,l),
(85,48,l),
(8,38,l),
(8,0,l),
(153,0,l),
(153,585,ls),
(153,700,o),
(206,737,o),
(272,737,cs),
(324,737,o),
(357,696,o),
(337,642,cs),
(296,530,o),
(199,539,o),
(199,411,cs),
(199,297,o),
(341,281,o),
(392,148,cs),
(412,96,o),
(402,34,o),
(336,34,cs),
(281,34,o),
(251,85,o),
(251,142,cs),
(251,174,l),
(198,174,l),
(198,0,l),
(236,0,l),
(236,58,l),
(244,58,l),
(253,29,o),
(268,-10,o),
(342,-10,cs)
);
}
);
userData = {
assembly = "NPUSHB[ ]	/* 63 values pushed */
0 5 3 1 3 5 1 128 0 1 2 3 1 2 126 0 3 3 6 97 0 6 6 16 77 0 4 4 15 77 0 2 2 0 97 7 1 0 0 21 0 78 1 0 61 59 51 48 39 36 32 30 14 12 9 7 0 79 1 79 8 7 22
CALL[ ]	/* CallFunction */";
};
width = 463;
}
);
note = germandbls;
unicode = 223;
},
{
glyphname = t;
kernLeft = t;
kernRight = t;
lastChange = "2025-10-04 22:57:34 +0000";
layers = (
{
anchors = (
{
name = bottom;
pos = (167,0);
},
{
name = top;
pos = (152,508);
}
);
layerId = m01;
shapes = (
{
closed = 1;
nodes = (
(353,-10,o),
(363,92,o),
(363,182,cs),
(363,208,l),
(321,208,l),
(321,182,ls),
(321,93,o),
(310,41,o),
(248,41,cs),
(183,41,o),
(162,90,o),
(162,185,cs),
(162,498,l),
(353,498,l),
(353,540,l),
(162,540,l),
(162,647,l),
(124,647,l),
(94,540,l),
(0,540,l),
(0,498,l),
(94,498,l),
(94,180,ls),
(94,58,o),
(145,-10,o),
(233,-10,cs)
);
}
);
userData = {
assembly = "NPUSHB[ ]	/* 63 values pushed */
9 1 1 3 1 76 0 2 3 2 133 0 6 1 5 1 6 5 128 4 1 1 1 3 97 0 3 3 17 77 0 5 5 0 97 7 1 0 0 21 0 78 1 0 39 37 34 32 28 25 23 20 17 15 8 5 0 42 1 42 8 7 22
CALL[ ]	/* CallFunction */";
};
width = 383;
}
);
note = t;
unicode = 116;
},
{
glyphname = u;
kernLeft = u;
kernRight = u;
lastChange = "2025-10-04 21:26:23 +0000";
layers = (
{
anchors = (
{
name = bottom;
pos = (226,0);
},
{
name = ogonek;
pos = (336,0);
},
{
name = top;
pos = (216,510);
}
);
layerId = m01;
shapes = (
{
closed = 1;
nodes = (
(230,528,l),
(230,496,l),
(312,496,l),
(312,149,l),
(312,108,o),
(270,46,o),
(212,46,cs),
(166,46,o),
(143,64,o),
(143,121,cs),
(143,550,l),
(-7,528,l),
(-7,496,l),
(75,496,l),
(75,119,ls),
(75,30,o),
(122,-10,o),
(186,-10,cs),
(252,-10,o),
(295,44,o),
(309,85,c),
(312,85,l),
(312,-10,l),
(452,12,l),
(452,44,l),
(380,42,l),
(380,550,l)
);
}
);
userData = {
assembly = "PUSHB[ ]	/* 6 values pushed */
53 1 2 1 1 76
MPPEM[ ]	/* MeasurePixelPerEm */
PUSHB[ ]	/* 1 value pushed */
9
LT[ ]	/* LessThan */
IF[ ]	/* If */
NPUSHB[ ]	/* 23 values pushed */
3 1 1 1 17 77 0 4 4 15 77 0 2 2 0 97 5 1 0 0 21 0 78
ELSE[ ]	/* Else */
NPUSHB[ ]	/* 19 values pushed */
3 1 1 1 17 77 0 2 2 0 97 4 5 2 0 0 21 0 78
EIF[ ]	/* EndIf */
NPUSHB[ ]	/* 17 values pushed */
1 0 51 49 35 32 21 19 15 12 0 58 1 58 6 7 22
CALL[ ]	/* CallFunction */";
};
width = 454;
}
);
note = u;
unicode = 117;
},
{
glyphname = v;
lastChange = "2025-10-04 21:52:30 +0000";
layers = (
{
layerId = m01;
shapes = (
{
closed = 1;
nodes = (
(197,0,l),
(237,0,l),
(378,496,l),
(443,496,l),
(443,540,l),
(275,540,l),
(275,496,l),
(340,496,l),
(233,116,l),
(126,496,l),
(226,496,l),
(226,540,l),
(-20,540,l),
(-20,496,l),
(57,496,l)
);
}
);
userData = {
assembly = "NPUSHB[ ]	/* 36 values pushed */
0 2 1 0 1 2 0 128 3 1 1 1 17 77 4 1 0 0 21 0 78 1 0 35 32 23 22 13 10 0 44 1 44 5 7 22
CALL[ ]	/* CallFunction */";
};
width = 423;
}
);
note = v;
unicode = 118;
},
{
glyphname = w;
kernLeft = w;
kernRight = w;
lastChange = "2025-10-04 21:56:49 +0000";
layers = (
{
anchors = (
{
name = bottom;
pos = (299,0);
},
{
name = top;
pos = (311,510);
}
);
layerId = m01;
shapes = (
{
closed = 1;
nodes = (
(386,0,l),
(430,0,l),
(544,520,l),
(500,520,l)
);
},
{
closed = 1;
nodes = (
(296,520,l),
(170,0,l),
(214,0,l),
(306,352,l),
(386,0,l),
(420,0,l),
(430,77,l),
(334,520,l)
);
},
{
closed = 1;
nodes = (
(-15,496,l),
(189,496,l),
(189,540,l),
(-15,540,l)
);
},
{
closed = 1;
nodes = (
(225,496,l),
(409,496,l),
(409,540,l),
(225,540,l)
);
},
{
closed = 1;
nodes = (
(445,496,l),
(613,496,l),
(613,540,l),
(445,540,l)
);
},
{
closed = 1;
nodes = (
(170,0,l),
(204,0,l),
(216,71,l),
(118,520,l),
(54,520,l)
);
}
);
userData = {
assembly = "NPUSHB[ ]	/* 45 values pushed */
4 1 2 1 0 1 2 0 128 5 3 2 1 1 17 77 6 7 2 0 0 21 0 78 1 0 71 69 60 57 48 47 38 35 23 22 13 10 0 78 1 78 8 7 22
CALL[ ]	/* CallFunction */";
};
width = 597;
}
);
note = w;
unicode = 119;
},
{
glyphname = x;
lastChange = "2025-10-04 22:02:35 +0000";
layers = (
{
layerId = m01;
shapes = (
{
closed = 1;
nodes = (
(301,10,l),
(370,10,l),
(124,518,l),
(55,518,l)
);
},
{
closed = 1;
nodes = (
(192,272,l),
(233,272,l),
(349,524,l),
(308,524,l)
);
},
{
closed = 1;
nodes = (
(63,19,l),
(104,19,l),
(220,271,l),
(179,271,l)
);
},
{
closed = 1;
nodes = (
(-7,0,l),
(157,0,l),
(157,44,l),
(-7,44,l)
);
},
{
closed = 1;
nodes = (
(214,0,l),
(430,0,l),
(430,45,l),
(214,45,l)
);
},
{
closed = 1;
nodes = (
(244,496,l),
(402,496,l),
(402,540,l),
(244,540,l)
);
},
{
closed = 1;
nodes = (
(-10,496,l),
(201,496,l),
(201,540,l),
(-10,540,l)
);
}
);
userData = {
assembly = "NPUSHB[ ]	/* 39 values pushed */
0 3 2 0 2 3 0 128 4 1 2 2 17 77 1 5 2 0 0 15 0 78 1 0 62 59 51 50 42 39 21 18 0 81 1 80 6 7 22
CALL[ ]	/* CallFunction */";
};
width = 420;
}
);
note = x;
unicode = 120;
},
{
glyphname = y;
kernLeft = y;
kernRight = y;
lastChange = "2025-10-04 22:34:34 +0000";
layers = (
{
anchors = (
{
name = bottom;
pos = (201,0);
},
{
name = top;
pos = (201,510);
}
);
layerId = m01;
shapes = (
{
closed = 1;
nodes = (
(171,-210,o),
(202,-87,o),
(231,18,cs),
(363,496,l),
(425,496,l),
(425,540,l),
(267,540,l),
(267,496,l),
(322,496,l),
(222,131,l),
(108,496,l),
(198,496,l),
(198,540,l),
(-38,540,l),
(-38,496,l),
(41,496,l),
(191,23,l),
(160,-109,o),
(130,-151,o),
(93,-147,cs),
(62,-144,o),
(66,-113,o),
(23,-102,cs),
(-11,-93,o),
(-37,-122,o),
(-37,-149,cs),
(-37,-192,o),
(7,-210,o),
(43,-210,cs)
);
}
);
userData = {
assembly = "NPUSHB[ ]	/* 53 values pushed */
0 4 3 1 3 4 1 128 0 2 1 0 1 2 0 128 5 1 3 3 17 77 0 1 1 0 97 6 1 0 0 19 0 78 1 0 51 48 39 38 29 26 12 10 7 5 0 62 1 62 7 7 22
CALL[ ]	/* CallFunction */";
};
width = 401;
}
);
note = y;
unicode = 121;
},
{
glyphname = z;
kernLeft = z;
kernRight = z;
lastChange = "2025-10-04 22:04:42 +0000";
layers = (
{
anchors = (
{
name = bottom;
pos = (177,0);
},
{
name = top;
pos = (203,510);
}
);
layerId = m01;
shapes = (
{
closed = 1;
nodes = (
(11,0,l),
(342,0,l),
(342,224,l),
(309,224,l),
(295,104,ls),
(289,56,o),
(265,42,o),
(217,42,cs),
(90,42,l),
(347,520,l),
(347,540,l),
(35,540,l),
(35,316,l),
(67,316,l),
(81,436,ls),
(87,484,o),
(112,498,o),
(160,498,cs),
(268,498,l),
(11,20,l)
);
}
);
userData = {
assembly = "NPUSHB[ ]	/* 10 values pushed */
28 1 1 4 2 1 0 5 2 76
MPPEM[ ]	/* MeasurePixelPerEm */
PUSHB[ ]	/* 1 value pushed */
28
LT[ ]	/* LessThan */
IF[ ]	/* If */
NPUSHB[ ]	/* 42 values pushed */
0 2 1 6 1 2 6 128 0 6 5 1 6 5 126 0 3 3 23 77 0 1 1 4 95 0 4 4 17 77 0 5 5 0 95 7 1 0 0 15 0 78
ELSE[ ]	/* Else */
NPUSHB[ ]	/* 42 values pushed */
0 3 4 3 133 0 2 1 6 1 2 6 128 0 6 5 1 6 5 126 0 1 1 4 95 0 4 4 17 77 0 5 5 0 95 7 1 0 0 15 0 78
EIF[ ]	/* EndIf */
NPUSHB[ ]	/* 21 values pushed */
1 0 43 41 37 34 27 24 22 20 17 15 11 8 0 47 1 46 8 7 22
CALL[ ]	/* CallFunction */";
};
width = 363;
}
);
note = z;
unicode = 122;
},
{
glyphname = f_b;
kernLeft = f;
kernRight = b;
lastChange = "2025-10-05 11:59:20 +0000";
layers = (
{
anchors = (
{
name = bottom_1;
pos = (179,0);
},
{
name = bottom_2;
pos = (537,0);
},
{
name = caret_1;
pos = (358,0);
},
{
name = top_1;
pos = (179,740);
},
{
name = top_2;
pos = (537,740);
}
);
layerId = m01;
shapes = (
{
closed = 1;
nodes = (
(336,-22,l),
(379,0,l),
(379,85,l),
(389,85,l),
(401,44,o),
(432,-10,o),
(504,-10,cs),
(619,-10,o),
(684,120,o),
(684,288,cs),
(684,441,o),
(630,550,o),
(531,550,cs),
(467,550,o),
(422,502,o),
(407,465,c),
(404,465,l),
(404,770,l),
(336,730,l)
);
},
{
closed = 1;
nodes = (
(448,32,o),
(404,71,o),
(404,159,cs),
(404,391,l),
(409,437,o),
(441,499,o),
(509,499,cs),
(560,499,o),
(607,467,o),
(607,386,cs),
(607,169,ls),
(607,78,o),
(567,32,o),
(504,32,cs)
);
},
{
closed = 1;
nodes = (
(97,44,l),
(10,44,l),
(10,0,l),
(298,0,l),
(298,44,l),
(165,44,l),
(165,498,l),
(298,498,l),
(298,540,l),
(165,540,l),
(165,625,ls),
(165,692,o),
(194,715,o),
(224,728,cs),
(268,747,o),
(338,728,o),
(336,680,c),
(404,688,l),
(394,737,o),
(333,792,o),
(237,771,cs),
(144,751,o),
(97,684,o),
(97,565,cs),
(97,540,l),
(13,530,l),
(13,498,l),
(97,498,l)
);
}
);
userData = {
assembly = "NPUSHB[ ]	/* 96 values pushed */
68 1 11 3 1 76 0 7 7 16 77 0 1 1 6 97 0 6 6 16 77 5 1 3 3 2 95 0 2 2 17 77 0 11 11 8 97 0 8 8 23 77 0 4 4 15 77 13 1 10 10 0 97 9 12 2 0 0 21 0 78 89 88 1 0 95 93 88 100 89 100 82 80 74 72 66 64 58 56 47 44 35 32 23 20 18 15 10 8 0 87 1 87 14 7 22
CALL[ ]	/* CallFunction */";
};
width = 716;
}
);
note = f_b;
},
{
glyphname = f_f_i;
lastChange = "2025-10-05 11:59:35 +0000";
layers = (
{
anchors = (
{
name = caret_1;
pos = (222,0);
},
{
name = caret_2;
pos = (465,0);
}
);
layerId = m01;
shapes = (
{
closed = 1;
nodes = (
(97,44,l),
(10,44,l),
(10,0,l),
(268,0,l),
(268,44,l),
(165,44,l),
(165,498,l),
(268,498,l),
(268,540,l),
(165,540,l),
(165,605,ls),
(165,672,o),
(192,699,o),
(217,708,cs),
(259,723,o),
(305,718,o),
(305,640,cs),
(305,565,l),
(373,565,l),
(373,641,ls),
(373,711,o),
(308,761,o),
(232,751,cs),
(140,739,o),
(97,674,o),
(97,565,cs),
(97,540,l),
(13,530,l),
(13,498,l),
(97,498,l)
);
},
{
closed = 1;
nodes = (
(305,44,l),
(218,44,l),
(218,0,l),
(506,0,l),
(506,44,l),
(373,44,l),
(373,498,l),
(506,498,l),
(506,540,l),
(373,540,l),
(373,625,ls),
(373,692,o),
(393,716,o),
(418,728,cs),
(456,746,o),
(494,738,o),
(492,680,cs),
(491,652,o),
(510,623,o),
(545,629,cs),
(572,634,o),
(580,667,o),
(575,691,cs),
(565,740,o),
(514,781,o),
(438,771,cs),
(346,759,o),
(305,684,o),
(305,565,cs),
(305,540,l),
(221,540,l),
(221,498,l),
(305,498,l)
);
},
{
closed = 1;
nodes = (
(424,0,l),
(730,0,l),
(730,44,l),
(621,44,l),
(621,540,l),
(441,540,l),
(441,498,l),
(553,498,l),
(553,44,l),
(424,44,l)
);
}
);
userData = {
assembly = "NPUSHB[ ]	/* 88 values pushed */
0 4 12 6 12 4 6 128 0 5 5 3 97 0 3 3 16 77 0 12 12 2 97 0 2 2 20 77 10 8 2 1 1 6 95 14 11 2 6 6 17 77 9 7 13 3 0 0 15 0 78 111 109 1 0 117 115 109 121 111 121 98 95 86 83 74 71 62 59 50 47 42 40 37 35 31 29 24 22 13 10 0 108 1 107 15 7 22
CALL[ ]	/* CallFunction */";
};
width = 740;
}
);
note = f_f_i;
},
{
glyphname = f_f_l;
lastChange = "2025-10-05 11:59:55 +0000";
layers = (
{
anchors = (
{
name = caret_1;
pos = (244,0);
},
{
name = caret_2;
pos = (487,0);
}
);
layerId = m01;
shapes = (
{
closed = 1;
nodes = (
(97,44,l),
(10,44,l),
(10,0,l),
(268,0,l),
(268,44,l),
(165,44,l),
(165,498,l),
(268,498,l),
(268,540,l),
(165,540,l),
(165,605,ls),
(165,672,o),
(192,699,o),
(217,708,cs),
(259,723,o),
(305,718,o),
(305,640,cs),
(305,565,l),
(373,565,l),
(373,641,ls),
(373,711,o),
(308,761,o),
(232,751,cs),
(140,739,o),
(97,674,o),
(97,565,cs),
(97,540,l),
(13,530,l),
(13,498,l),
(97,498,l)
);
},
{
closed = 1;
nodes = (
(305,44,l),
(218,44,l),
(218,0,l),
(506,0,l),
(506,44,l),
(373,44,l),
(373,498,l),
(506,498,l),
(506,540,l),
(373,540,l),
(373,625,ls),
(373,692,o),
(412,716,o),
(438,728,cs),
(484,749,o),
(555,738,o),
(553,670,c),
(621,679,l),
(611,738,o),
(533,785,o),
(458,771,cs),
(359,753,o),
(305,684,o),
(305,565,cs),
(305,540,l),
(221,540,l),
(221,498,l),
(305,498,l)
);
},
{
closed = 1;
nodes = (
(424,0,l),
(730,0,l),
(730,44,l),
(621,44,l),
(621,752,l),
(553,722,l),
(553,44,l),
(424,44,l)
);
}
);
userData = {
assembly = "NPUSHB[ ]	/* 85 values pushed */
0 4 4 16 77 0 6 6 3 97 0 3 3 16 77 0 12 12 2 97 0 2 2 20 77 10 8 2 1 1 7 95 14 11 2 7 7 17 77 9 5 13 3 0 0 15 0 78 113 111 1 0 119 117 111 123 113 123 100 97 88 85 76 73 71 68 63 61 51 48 39 37 31 29 24 22 13 10 0 110 1 109 15 7 22
CALL[ ]	/* CallFunction */";
};
width = 731;
}
);
note = f_f_l;
},
{
glyphname = f_h;
kernLeft = f;
kernRight = h;
lastChange = "2025-10-05 12:00:17 +0000";
layers = (
{
anchors = (
{
name = bottom_1;
pos = (183,0);
},
{
name = bottom_2;
pos = (548,0);
},
{
name = caret_1;
pos = (244,0);
},
{
name = caret_2;
pos = (487,0);
},
{
name = top_1;
pos = (183,740);
},
{
name = top_2;
pos = (548,740);
}
);
layerId = m01;
shapes = (
{
closed = 1;
nodes = (
(97,44,l),
(10,44,l),
(10,0,l),
(268,0,l),
(268,44,l),
(165,44,l),
(165,498,l),
(268,498,l),
(268,540,l),
(165,540,l),
(165,605,ls),
(165,672,o),
(192,699,o),
(217,708,cs),
(259,723,o),
(305,718,o),
(305,640,cs),
(305,565,l),
(373,565,l),
(373,641,ls),
(373,711,o),
(308,761,o),
(232,751,cs),
(140,739,o),
(97,674,o),
(97,565,cs),
(97,540,l),
(13,530,l),
(13,498,l),
(97,498,l)
);
},
{
closed = 1;
nodes = (
(221,0,l),
(472,0,l),
(472,44,l),
(373,44,l),
(373,401,l),
(379,440,o),
(415,494,o),
(472,494,cs),
(518,494,o),
(542,466,o),
(542,414,cs),
(542,0,l),
(684,0,l),
(684,44,l),
(610,44,l),
(610,430,ls),
(610,508,o),
(569,550,o),
(504,550,cs),
(436,550,o),
(391,504,o),
(376,469,c),
(373,469,l),
(373,750,l),
(305,720,l),
(305,44,l),
(221,44,l)
);
}
);
userData = {
assembly = "NPUSHB[ ]	/* 74 values pushed */
0 3 3 16 77 0 8 8 2 97 0 2 2 16 77 10 1 1 1 9 95 0 9 9 17 77 0 6 6 4 97 0 4 4 23 77 7 5 11 3 0 0 15 0 78 1 0 105 102 100 97 92 90 80 77 66 64 54 51 41 39 32 30 24 22 13 10 0 115 1 114 12 7 22
CALL[ ]	/* CallFunction */";
};
width = 696;
}
);
note = f_h;
},
{
glyphname = f_i;
kernLeft = f;
lastChange = "2025-10-05 12:00:35 +0000";
layers = (
{
anchors = (
{
name = bottom_1;
pos = (119,0);
},
{
name = bottom_2;
pos = (358,0);
},
{
name = caret_1;
pos = (222,0);
},
{
name = caret_2;
pos = (465,0);
},
{
name = top_1;
pos = (119,740);
},
{
name = top_2;
pos = (358,740);
}
);
layerId = m01;
shapes = (
{
closed = 1;
nodes = (
(102,44,l),
(15,44,l),
(15,0,l),
(303,0,l),
(303,44,l),
(170,44,l),
(170,498,l),
(303,498,l),
(303,540,l),
(170,540,l),
(170,611,ls),
(170,678,o),
(206,697,o),
(233,706,cs),
(271,719,o),
(329,716,o),
(327,658,cs),
(326,630,o),
(345,601,o),
(380,607,cs),
(407,612,o),
(415,645,o),
(410,669,cs),
(400,718,o),
(337,758,o),
(253,749,cs),
(163,739,o),
(102,684,o),
(102,565,cs),
(102,540,l),
(18,540,l),
(18,498,l),
(102,498,l)
);
},
{
closed = 1;
nodes = (
(211,0,l),
(517,0,l),
(517,44,l),
(408,44,l),
(408,540,l),
(228,540,l),
(228,498,l),
(340,498,l),
(340,44,l),
(211,44,l)
);
}
);
userData = {
assembly = "NPUSHB[ ]	/* 60 values pushed */
0 3 4 5 4 3 5 128 0 4 4 2 97 0 2 2 16 77 7 1 1 1 5 95 0 5 5 17 77 6 8 2 0 0 15 0 78 1 0 67 64 55 52 43 40 35 33 30 28 24 22 13 10 0 77 1 76 9 7 22
CALL[ ]	/* CallFunction */";
};
width = 477;
}
);
note = f_i;
},
{
glyphname = f_l;
kernLeft = f;
kernRight = l;
lastChange = "2025-10-05 12:00:58 +0000";
layers = (
{
anchors = (
{
name = bottom_1;
pos = (130,0);
},
{
name = bottom_2;
pos = (371,0);
},
{
name = caret_1;
pos = (250,0);
},
{
name = top_1;
pos = (130,740);
},
{
name = top_2;
pos = (371,740);
}
);
layerId = m01;
shapes = (
{
closed = 1;
nodes = (
(97,44,l),
(10,44,l),
(10,0,l),
(268,0,l),
(268,44,l),
(165,44,l),
(165,498,l),
(268,498,l),
(268,540,l),
(165,540,l),
(165,605,ls),
(165,672,o),
(192,699,o),
(217,708,cs),
(259,723,o),
(332,718,o),
(332,640,cs),
(332,565,l),
(400,565,l),
(400,641,ls),
(400,711,o),
(308,761,o),
(232,751,cs),
(140,739,o),
(97,674,o),
(97,565,cs),
(97,540,l),
(13,530,l),
(13,498,l),
(97,498,l)
);
},
{
closed = 1;
nodes = (
(203,0,l),
(509,0,l),
(509,44,l),
(400,44,l),
(400,752,l),
(332,722,l),
(332,44,l),
(203,44,l)
);
}
);
userData = {
assembly = "NPUSHB[ ]	/* 57 values pushed */
0 3 3 16 77 0 5 5 2 97 0 2 2 16 77 7 1 1 1 6 95 0 6 6 17 77 4 8 2 0 0 15 0 78 1 0 69 66 64 61 56 54 44 41 32 30 24 22 13 10 0 79 1 78 9 7 22
CALL[ ]	/* CallFunction */";
};
width = 519;
}
);
note = f_l;
},
{
glyphname = q_j;
lastChange = "2025-10-05 15:05:24 +0000";
layers = (
{
anchors = (
{
name = bottom_1;
pos = (175,0);
},
{
name = bottom_2;
pos = (504,0);
},
{
name = caret_1;
pos = (339,0);
},
{
name = top_1;
pos = (175,510);
},
{
name = top_2;
pos = (504,510);
}
);
layerId = m01;
shapes = (
{
closed = 1;
nodes = (
(420,530,l),
(420,496,l),
(542,496,l),
(542,-2,ls),
(542,-107,o),
(539,-145,o),
(501,-153,cs),
(463,-161,o),
(474,-123,o),
(471,-106,cs),
(467,-80,o),
(455,-56,o),
(425,-54,cs),
(396,-52,o),
(374,-74,o),
(379,-105,cs),
(386,-149,o),
(421,-197,o),
(494,-190,cs),
(587,-181,o),
(610,-81,o),
(610,0,cs),
(610,550,l)
);
},
{
pos = (519,289);
ref = periodcentered.loclCAT;
},
{
closed = 1;
nodes = (
(131,-190,l),
(363,-190,l),
(363,540,l),
(325,540,l),
(325,455,l),
(315,455,l),
(303,496,o),
(267,550,o),
(197,550,cs),
(75,550,o),
(15,412,o),
(15,251,cs),
(15,98,o),
(64,-10,o),
(169,-10,cs),
(233,-10,o),
(277,38,o),
(292,75,c),
(295,75,l),
(295,-146,l),
(131,-146,l)
);
},
{
closed = 1;
nodes = (
(139,41,o),
(92,73,o),
(92,154,cs),
(92,371,ls),
(92,462,o),
(132,508,o),
(195,508,cs),
(251,508,o),
(295,464,o),
(295,364,cs),
(295,149,l),
(290,103,o),
(258,41,o),
(190,41,cs)
);
}
);
userData = {
assembly = "PUSHB[ ]	/* 7 values pushed */
73 21 2 10 11 1 76
MPPEM[ ]	/* MeasurePixelPerEm */
PUSHB[ ]	/* 1 value pushed */
23
LT[ ]	/* LessThan */
IF[ ]	/* If */
NPUSHB[ ]	/* 59 values pushed */
0 7 3 8 8 7 114 12 1 0 0 1 97 0 1 1 14 77 0 11 11 4 97 9 5 2 4 4 23 77 15 1 10 10 3 97 0 3 3 21 77 13 1 2 2 19 77 0 8 8 6 98 14 1 6 6 25 6 78
ELSE[ ]	/* Else */
MPPEM[ ]	/* MeasurePixelPerEm */
PUSHB[ ]	/* 1 value pushed */
50
LT[ ]	/* LessThan */
IF[ ]	/* If */
NPUSHB[ ]	/* 60 values pushed */
0 7 3 8 3 7 8 128 12 1 0 0 1 97 0 1 1 14 77 0 11 11 4 97 9 5 2 4 4 23 77 15 1 10 10 3 97 0 3 3 21 77 13 1 2 2 19 77 0 8 8 6 98 14 1 6 6 25 6 78
ELSE[ ]	/* Else */
NPUSHB[ ]	/* 58 values pushed */
0 7 3 8 3 7 8 128 0 1 12 1 0 4 1 0 105 0 11 11 4 97 9 5 2 4 4 23 77 15 1 10 10 3 97 0 3 3 21 77 13 1 2 2 19 77 0 8 8 6 98 14 1 6 6 25 6 78
EIF[ ]	/* EndIf */
EIF[ ]	/* EndIf */
NPUSHB[ ]	/* 43 values pushed */
87 86 53 52 13 12 1 0 95 93 86 99 87 99 81 79 64 62 59 57 52 85 53 85 44 42 36 34 28 26 12 51 13 50 7 5 0 11 1 11 16 7 22
CALL[ ]	/* CallFunction */";
};
width = 668;
}
);
note = q_j;
},
{
glyphname = ordfeminine;
lastChange = "2025-10-05 11:30:08 +0000";
layers = (
{
anchors = (
{
name = bottom;
pos = (180.092,369);
},
{
name = ogonek;
pos = (286.718,369);
},
{
name = top;
pos = (180.092,712.99);
}
);
layerId = m01;
shapes = (
{
closed = 1;
nodes = (
(190,362,o),
(208,390,o),
(213,414,c),
(213,376,o),
(236,362,o),
(266,362,cs),
(305,362,o),
(326,391,o),
(327,442,c),
(327,477,l),
(299,477,l),
(299,442,l),
(299,418,o),
(296,397,o),
(282,397,cs),
(268,397,o),
(264,407,o),
(264,426,cs),
(264,637,ls),
(264,684,o),
(261,740,o),
(186,740,cs),
(112,740,o),
(62,673,o),
(62,633,cs),
(62,612,o),
(74,596,o),
(96,596,cs),
(119,596,o),
(133,619,o),
(124,641,cs),
(106,685,o),
(126,709,o),
(162,708,cs),
(209,708,o),
(213,688,o),
(213,644,cs),
(213,580,l),
(169,555,ls),
(121,528,o),
(52,500,o),
(52,440,cs),
(52,397,o),
(85,362,o),
(139,362,cs)
);
},
{
closed = 1;
nodes = (
(102,494,o),
(141,512,o),
(174,532,cs),
(213,556,l),
(213,459,l),
(210,424,o),
(183,399,o),
(155,399,cs),
(115,399,o),
(102,420,o),
(102,449,cs)
);
}
);
userData = {
assembly = "NPUSHB[ ]	/* 76 values pushed */
0 2 1 5 1 2 5 128 0 5 4 1 5 4 126 0 3 0 1 2 3 1 105 0 4 7 0 4 89 9 1 7 0 0 7 89 9 1 7 7 0 97 6 8 2 0 7 0 81 49 48 1 0 48 58 49 58 40 38 35 33 30 28 25 23 18 16 13 11 0 47 1 47 10 6 22
CALL[ ]	/* CallFunction */";
};
width = 364;
}
);
note = ordfeminine;
unicode = 170;
},
{
glyphname = ordmasculine;
lastChange = "2025-10-05 11:31:00 +0000";
layers = (
{
anchors = (
{
name = bottom;
pos = (185.242,370);
},
{
name = ogonek;
pos = (306,376.73);
},
{
name = top;
pos = (185.242,713.249);
}
);
layerId = m01;
shapes = (
{
closed = 1;
nodes = (
(285,363,o),
(316,457,o),
(316,552,cs),
(316,646,o),
(285,740,o),
(185,740,cs),
(86,740,o),
(54,646,o),
(54,552,cs),
(54,457,o),
(86,363,o),
(185,363,cs)
);
},
{
closed = 1;
nodes = (
(123,392,o),
(106,435,o),
(106,518,cs),
(106,585,ls),
(106,669,o),
(123,712,o),
(185,712,cs),
(247,712,o),
(265,669,o),
(265,585,cs),
(265,518,ls),
(265,435,o),
(247,392,o),
(185,392,cs)
);
}
);
userData = {
assembly = "NPUSHB[ ]	/* 46 values pushed */
0 1 0 3 2 1 3 105 5 1 2 0 0 2 89 5 1 2 2 0 97 4 1 0 2 0 81 17 16 1 0 21 19 16 23 17 23 9 7 0 15 1 15 6 6 22
CALL[ ]	/* CallFunction */";
};
width = 368;
}
);
note = ordmasculine;
unicode = 186;
},
{
glyphname = zero;
lastChange = "2025-10-05 15:07:13 +0000";
layers = (
{
layerId = m01;
shapes = (
{
closed = 1;
nodes = (
(503,-10,o),
(504,750,o),
(230,750,cs),
(-44,750,o),
(-43,-10,o),
(230,-10,cs)
);
},
{
closed = 1;
nodes = (
(136,37,o),
(99,120,o),
(99,235,cs),
(99,505,ls),
(99,620,o),
(137,703,o),
(230,703,cs),
(323,703,o),
(361,620,o),
(361,505,cs),
(361,235,ls),
(361,120,o),
(324,37,o),
(230,37,cs)
);
},
{
closed = 1;
nodes = (
(283,347,o),
(283,371,qs),
(283,394,o),
(251,423,o),
(231,423,qs),
(209,423,o),
(178,394,o),
(178,371,qs),
(178,347,o),
(209,318,o),
(231,318,qs),
(251,318,o)
);
}
);
userData = {
assembly = "NPUSHB[ ]	/* 42 values pushed */
0 3 3 1 97 0 1 1 20 77 5 1 2 2 0 97 4 1 0 0 21 0 78 17 16 1 0 23 21 16 27 17 27 9 7 0 15 1 15 6 7 22
CALL[ ]	/* CallFunction */";
};
width = 460;
}
);
note = zero;
unicode = 48;
},
{
glyphname = one;
lastChange = "2025-10-04 22:37:29 +0000";
layers = (
{
layerId = m01;
shapes = (
{
closed = 1;
nodes = (
(3,0,l),
(419,0,l),
(419,44,l),
(250,44,l),
(250,750,l),
(226,750,l),
(195,699,o),
(154,676,o),
(89,670,cs),
(0,662,l),
(0,625,l),
(182,625,l),
(182,44,l),
(3,44,l)
);
}
);
userData = {
assembly = "NPUSHB[ ]	/* 33 values pushed */
0 1 2 0 2 1 0 128 0 2 2 20 77 3 1 0 0 15 0 78 1 0 21 19 14 13 0 31 1 30 4 7 22
CALL[ ]	/* CallFunction */";
};
width = 439;
}
);
note = one;
unicode = 49;
},
{
glyphname = two;
lastChange = "2025-10-04 22:39:34 +0000";
layers = (
{
layerId = m01;
shapes = (
{
closed = 1;
nodes = (
(112,-10,o),
(127,7,o),
(127,27,cs),
(127,52,o),
(116,62,o),
(99,74,cs),
(83,85,l),
(94,108,o),
(108,128,o),
(141,128,cs),
(216,128,o),
(217,-10,o),
(327,-10,cs),
(419,-10,o),
(421,94,o),
(421,153,cs),
(421,249,l),
(379,249,l),
(379,154,ls),
(379,109,o),
(383,57,o),
(337,57,cs),
(268,57,o),
(245,166,o),
(153,166,cs),
(106,166,o),
(81,136,o),
(68,110,c),
(69,193,o),
(127,251,o),
(182,292,cs),
(272,359,ls),
(327,400,o),
(405,464,o),
(405,573,cs),
(405,672,o),
(334,750,o),
(227,750,cs),
(107,750,o),
(38,649,o),
(38,559,cs),
(38,495,o),
(73,467,o),
(103,467,cs),
(127,467,o),
(149,485,o),
(149,515,cs),
(149,546,o),
(120,557,o),
(97,612,cs),
(80,653,o),
(131,705,o),
(209,705,cs),
(288,705,o),
(336,660,o),
(336,571,cs),
(336,474,o),
(275,421,o),
(241,392,cs),
(153,317,ls),
(114,284,o),
(28,215,o),
(28,88,cs),
(28,17,o),
(55,-10,o),
(87,-10,cs)
);
}
);
userData = {
assembly = "NPUSHB[ ]	/* 67 values pushed */
43 1 4 5 44 2 2 0 4 2 76 0 2 1 5 1 2 5 128 0 5 4 1 5 4 126 0 1 1 3 97 0 3 3 20 77 0 4 4 0 96 6 1 0 0 15 0 78 1 0 42 40 35 32 23 21 17 15 12 10 0 46 1 45 7 7 22
CALL[ ]	/* CallFunction */";
};
width = 451;
}
);
note = two;
unicode = 50;
},
{
glyphname = three;
lastChange = "2025-10-04 22:44:06 +0000";
layers = (
{
layerId = m01;
shapes = (
{
closed = 1;
nodes = (
(316,-10,o),
(409,74,o),
(409,236,cs),
(409,394,o),
(334,465,o),
(250,465,cs),
(214,465,o),
(189,454,o),
(174,446,c),
(172,449,l),
(376,678,l),
(376,740,l),
(53,740,l),
(53,526,l),
(86,526,l),
(93,601,ls),
(98,659,o),
(142,678,o),
(182,678,cs),
(331,678,l),
(87,401,l),
(116,371,l),
(156,404,o),
(187,423,o),
(239,423,cs),
(316,423,o),
(341,369,o),
(341,302,cs),
(341,174,ls),
(341,82,o),
(287,35,o),
(200,35,cs),
(126,35,o),
(73,81,o),
(75,156,cs),
(76,191,o),
(116,200,o),
(131,231,cs),
(145,259,o),
(123,288,o),
(96,288,cs),
(59,288,o),
(31,251,o),
(31,182,cs),
(31,75,o),
(104,-10,o),
(202,-10,cs)
);
}
);
userData = {
assembly = "NPUSHB[ ]	/* 69 values pushed */
0 5 4 7 4 5 7 128 0 1 3 2 3 1 2 128 0 7 0 3 1 7 3 105 0 4 4 6 97 0 6 6 20 77 0 2 2 0 97 8 1 0 0 21 0 78 1 0 51 49 40 38 35 33 30 28 17 15 12 10 7 5 0 58 1 58 9 7 22
CALL[ ]	/* CallFunction */";
};
width = 431;
}
);
note = three;
unicode = 51;
},
{
glyphname = four;
lastChange = "2025-10-04 22:41:44 +0000";
layers = (
{
layerId = m01;
shapes = (
{
closed = 1;
nodes = (
(141,0,l),
(457,0,l),
(457,44,l),
(338,44,l),
(338,213,l),
(452,213,l),
(452,257,l),
(338,257,l),
(338,740,l),
(300,740,l),
(23,247,l),
(23,213,l),
(270,213,l),
(270,44,l),
(141,44,l)
);
},
{
closed = 1;
nodes = (
(72,257,l),
(270,620,l),
(270,257,l)
);
}
);
userData = {
assembly = "NPUSHB[ ]	/* 47 values pushed */
14 1 1 3 1 76 4 1 3 5 1 1 0 3 1 105 0 2 2 14 77 6 1 0 0 15 0 78 1 0 47 44 41 38 28 25 22 19 13 10 0 57 1 56 7 7 22
CALL[ ]	/* CallFunction */";
};
width = 483;
}
);
note = four;
unicode = 52;
},
{
glyphname = five;
lastChange = "2025-10-04 22:43:21 +0000";
layers = (
{
layerId = m01;
shapes = (
{
closed = 1;
nodes = (
(312,-10,o),
(395,88,o),
(395,247,cs),
(395,394,o),
(323,475,o),
(214,475,cs),
(149,475,o),
(112,449,o),
(91,416,c),
(121,673,l),
(372,673,l),
(372,740,l),
(86,740,l),
(41,358,l),
(81,353,l),
(98,391,o),
(133,433,o),
(210,433,cs),
(296,433,o),
(327,384,o),
(327,316,cs),
(327,174,ls),
(327,82,o),
(281,35,o),
(190,35,cs),
(98,35,o),
(63,84,o),
(65,157,cs),
(66,192,o),
(102,200,o),
(117,231,cs),
(130,259,o),
(109,288,o),
(82,288,cs),
(45,288,o),
(17,251,o),
(17,182,cs),
(17,74,o),
(76,-10,o),
(193,-10,cs)
);
}
);
userData = {
assembly = "NPUSHB[ ]	/* 63 values pushed */
0 6 5 1 5 6 1 128 0 1 2 5 1 2 126 0 4 4 16 77 0 5 5 3 95 0 3 3 14 77 0 2 2 0 97 7 1 0 0 21 0 78 1 0 41 40 37 34 30 28 26 23 13 11 8 6 0 48 1 48 8 7 22
CALL[ ]	/* CallFunction */";
};
width = 422;
}
);
note = five;
unicode = 53;
},
{
glyphname = six;
lastChange = "2025-10-04 22:46:23 +0000";
layers = (
{
layerId = m01;
shapes = (
{
closed = 1;
nodes = (
(348,-10,o),
(412,102,o),
(412,231,cs),
(412,355,o),
(354,465,o),
(235,465,cs),
(135,465,o),
(98,382,o),
(90,328,c),
(82,328,l),
(82,363,ls),
(82,580,o),
(129,696,o),
(247,710,cs),
(299,716,o),
(338,687,o),
(330,645,cs),
(324,611,o),
(296,608,o),
(289,567,cs),
(284,540,o),
(303,516,o),
(327,516,cs),
(365,516,o),
(385,555,o),
(385,606,cs),
(385,697,o),
(332,753,o),
(246,750,cs),
(83,744,o),
(24,560,o),
(24,332,cs),
(24,67,o),
(121,-10,o),
(224,-10,cs)
);
},
{
closed = 1;
nodes = (
(153,35,o),
(112,86,o),
(112,180,cs),
(112,272,ls),
(112,366,o),
(156,423,o),
(233,423,cs),
(305,423,o),
(344,369,o),
(344,275,cs),
(344,180,ls),
(344,86,o),
(305,35,o),
(229,35,cs)
);
}
);
userData = {
assembly = "NPUSHB[ ]	/* 40 values pushed */
0 1 0 3 2 1 3 105 5 1 2 2 0 97 4 1 0 0 21 0 78 31 30 1 0 37 35 30 39 31 39 23 21 0 29 1 29 6 7 22
CALL[ ]	/* CallFunction */";
};
width = 432;
}
);
note = six;
unicode = 54;
},
{
glyphname = seven;
lastChange = "2025-10-04 22:50:41 +0000";
layers = (
{
layerId = m01;
shapes = (
{
closed = 1;
nodes = (
(116,0,l),
(181,0,l),
(181,47,ls),
(181,459,o),
(391,455,o),
(391,652,cs),
(391,723,o),
(364,750,o),
(332,750,cs),
(286,750,o),
(274,697,o),
(319,670,cs),
(339,658,o),
(341,625,o),
(289,625,cs),
(214,625,o),
(224,750,o),
(131,750,cs),
(86,750,o),
(73,715,o),
(66,692,c),
(62,692,l),
(62,740,l),
(18,740,l),
(18,521,l),
(62,521,l),
(62,586,ls),
(62,631,o),
(67,689,o),
(112,689,cs),
(171,689,o),
(184,587,o),
(276,587,cs),
(323,587,o),
(342,608,o),
(351,624,c),
(351,461,o),
(116,456,o),
(116,47,cs)
);
}
);
userData = {
assembly = "NPUSHB[ ]	/* 46 values pushed */
19 1 1 3 1 76 0 2 1 0 1 2 0 128 0 1 1 3 95 0 3 3 14 77 4 1 0 0 15 0 78 1 0 18 15 11 9 7 4 0 24 1 23 5 7 22
CALL[ ]	/* CallFunction */";
};
width = 397;
}
);
note = seven;
unicode = 55;
},
{
glyphname = eight;
lastChange = "2025-10-04 22:51:20 +0000";
layers = (
{
layerId = m01;
shapes = (
{
closed = 1;
nodes = (
(360,-10,o),
(426,109,o),
(426,227,cs),
(426,341,o),
(358,413,o),
(306,435,c),
(306,443,l),
(343,459,o),
(392,509,o),
(392,589,cs),
(392,696,o),
(313,750,o),
(225,750,cs),
(137,750,o),
(58,696,o),
(58,587,cs),
(58,509,o),
(107,459,o),
(144,443,c),
(144,435,l),
(92,413,o),
(24,341,o),
(24,227,cs),
(24,109,o),
(90,-10,o),
(225,-10,cs)
);
},
{
closed = 1;
nodes = (
(154,459,o),
(117,498,o),
(117,566,cs),
(117,608,ls),
(117,676,o),
(154,710,o),
(225,710,cs),
(296,710,o),
(333,676,o),
(333,608,cs),
(333,566,ls),
(333,498,o),
(296,459,o),
(225,459,cs)
);
},
{
closed = 1;
nodes = (
(140,35,o),
(95,77,o),
(95,162,cs),
(95,284,ls),
(95,369,o),
(140,417,o),
(225,417,cs),
(310,417,o),
(355,369,o),
(355,284,cs),
(355,162,ls),
(355,77,o),
(310,35,o),
(225,35,cs)
);
}
);
userData = {
assembly = "NPUSHB[ ]	/* 42 values pushed */
0 2 2 1 97 0 1 1 20 77 5 1 3 3 0 97 4 1 0 0 21 0 78 50 49 1 0 49 63 50 63 43 41 18 16 0 33 1 33 6 7 22
CALL[ ]	/* CallFunction */";
};
width = 450;
}
);
note = eight;
unicode = 56;
},
{
glyphname = nine;
lastChange = "2025-10-04 22:52:13 +0000";
layers = (
{
layerId = m01;
shapes = (
{
closed = 1;
nodes = (
(88,753,o),
(24,641,o),
(24,512,cs),
(24,388,o),
(82,278,o),
(201,278,cs),
(301,278,o),
(338,361,o),
(346,415,c),
(354,415,l),
(354,380,ls),
(354,163,o),
(307,47,o),
(189,33,cs),
(137,27,o),
(98,56,o),
(106,98,cs),
(112,132,o),
(140,135,o),
(147,176,cs),
(152,203,o),
(133,227,o),
(109,227,cs),
(71,227,o),
(51,188,o),
(51,137,cs),
(51,46,o),
(104,-10,o),
(190,-7,cs),
(353,-1,o),
(412,183,o),
(412,411,cs),
(412,676,o),
(315,753,o),
(212,753,cs)
);
},
{
closed = 1;
nodes = (
(283,708,o),
(324,657,o),
(324,563,cs),
(324,471,ls),
(324,377,o),
(280,320,o),
(203,320,cs),
(131,320,o),
(92,374,o),
(92,468,cs),
(92,563,ls),
(92,657,o),
(131,708,o),
(207,708,cs)
);
}
);
userData = {
assembly = "NPUSHB[ ]	/* 25 values pushed */
0 2 0 0 2 0 101 0 3 3 1 97 0 1 1 20 3 78 36 40 38 44 4 7 26
CALL[ ]	/* CallFunction */";
};
width = 432;
}
);
note = nine;
unicode = 57;
},
{
glyphname = period;
kernLeft = period;
kernRight = period;
lastChange = "2025-10-04 21:26:23 +0000";
layers = (
{
layerId = m01;
shapes = (
{
closed = 1;
nodes = (
(138,-11,o),
(162,13,o),
(162,44,cs),
(162,75,o),
(138,99,o),
(107,99,cs),
(76,99,o),
(52,75,o),
(52,44,cs),
(52,13,o),
(76,-11,o),
(107,-11,cs)
);
}
);
userData = {
assembly = "NPUSHB[ ]	/* 23 values pushed */
0 1 1 0 97 2 1 0 0 21 0 78 1 0 7 5 0 11 1 11 3 7 22
CALL[ ]	/* CallFunction */";
};
width = 213;
}
);
note = period;
unicode = 46;
},
{
glyphname = comma;
kernLeft = period;
kernRight = period;
lastChange = "2025-10-05 08:23:55 +0000";
layers = (
{
layerId = m01;
shapes = (
{
closed = 1;
nodes = (
(52,-79,c),
(52,-121,l),
(159,-121,o),
(172,-22,o),
(167,39,cs),
(164,81,o),
(141,100,o),
(112,100,cs),
(81,100,o),
(57,77,o),
(57,43,cs),
(57,7,o),
(81,-16,o),
(123,-11,c),
(125,-54,o),
(96,-79,o)
);
}
);
userData = {
assembly = "PUSHB[ ]	/* 8 values pushed */
0 0 0 118 46 1 7 23
CALL[ ]	/* CallFunction */";
};
width = 217;
}
);
note = comma;
unicode = 44;
},
{
glyphname = exclam;
lastChange = "2025-10-05 10:42:06 +0000";
layers = (
{
layerId = m01;
shapes = (
{
closed = 1;
nodes = (
(82,740,l),
(97,172,l),
(137,172,l),
(152,740,l)
);
},
{
closed = 1;
nodes = (
(148,-10,o),
(172,14,o),
(172,45,cs),
(172,76,o),
(148,100,o),
(117,100,cs),
(86,100,o),
(62,76,o),
(62,45,cs),
(62,14,o),
(86,-10,o),
(117,-10,cs)
);
}
);
userData = {
assembly = "MPPEM[ ]	/* MeasurePixelPerEm */
PUSHB[ ]	/* 1 value pushed */
50
LT[ ]	/* LessThan */
IF[ ]	/* If */
NPUSHB[ ]	/* 26 values pushed */
4 1 0 1 3 1 0 3 128 0 1 1 16 77 0 3 3 2 97 5 1 2 2 21 2 78
ELSE[ ]	/* Else */
NPUSHB[ ]	/* 23 values pushed */
0 1 0 1 133 4 1 0 3 0 133 0 3 3 2 97 5 1 2 2 21 2 78
EIF[ ]	/* EndIf */
NPUSHB[ ]	/* 19 values pushed */
23 22 1 0 29 27 22 33 23 33 12 10 0 21 1 21 6 7 22
CALL[ ]	/* CallFunction */";
};
width = 227;
}
);
note = exclam;
unicode = 33;
},
{
glyphname = question;
lastChange = "2025-10-05 08:15:26 +0000";
layers = (
{
layerId = m01;
shapes = (
{
closed = 1;
nodes = (
(202,197,ls),
(202,380,o),
(375,414,o),
(375,577,cs),
(375,672,o),
(316,750,o),
(208,750,cs),
(87,750,o),
(28,649,o),
(28,559,cs),
(28,495,o),
(63,467,o),
(93,467,cs),
(117,467,o),
(139,485,o),
(139,515,cs),
(139,554,o),
(95,573,o),
(87,610,cs),
(80,643,o),
(107,709,o),
(185,709,cs),
(264,709,o),
(306,663,o),
(306,573,cs),
(306,417,o),
(164,384,o),
(164,197,cs),
(164,172,l),
(202,172,l)
);
},
{
closed = 1;
nodes = (
(214,-10,o),
(238,14,o),
(238,45,cs),
(238,76,o),
(214,100,o),
(183,100,cs),
(152,100,o),
(128,76,o),
(128,45,cs),
(128,14,o),
(152,-10,o),
(183,-10,cs)
);
}
);
userData = {
assembly = "PUSHB[ ]	/* 6 values pushed */
21 1 2 1 1 76
MPPEM[ ]	/* MeasurePixelPerEm */
PUSHB[ ]	/* 1 value pushed */
50
LT[ ]	/* LessThan */
IF[ ]	/* If */
NPUSHB[ ]	/* 38 values pushed */
0 2 1 0 1 2 0 128 6 1 0 5 1 0 5 126 0 1 1 3 97 0 3 3 16 77 0 5 5 4 97 7 1 4 4 21 4 78
ELSE[ ]	/* Else */
NPUSHB[ ]	/* 36 values pushed */
0 2 1 0 1 2 0 128 6 1 0 5 1 0 5 126 0 3 0 1 2 3 1 105 0 5 5 4 97 7 1 4 4 21 4 78
EIF[ ]	/* EndIf */
NPUSHB[ ]	/* 23 values pushed */
41 40 1 0 47 45 40 51 41 51 28 26 19 17 14 12 0 39 1 39 8 7 22
CALL[ ]	/* CallFunction */";
};
width = 398;
}
);
note = question;
unicode = 63;
},
{
glyphname = bullet;
lastChange = "2025-10-04 21:26:23 +0000";
layers = (
{
layerId = m01;
shapes = (
{
closed = 1;
nodes = (
(230,335,o),
(230,371,qs),
(230,405,o),
(182,449,o),
(152,449,qs),
(118,449,o),
(72,405,o),
(72,371,qs),
(72,335,o),
(118,292,o),
(152,292,qs),
(182,292,o)
);
}
);
userData = {
assembly = "NPUSHB[ ]	/* 28 values pushed */
0 1 0 0 1 89 0 1 1 0 97 2 1 0 1 0 81 1 0 7 5 0 11 1 11 3 7 22
CALL[ ]	/* CallFunction */";
};
width = 301;
}
);
note = bullet;
unicode = 8226;
},
{
glyphname = asterisk;
lastChange = "2025-10-05 08:16:03 +0000";
layers = (
{
layerId = m01;
shapes = (
{
closed = 1;
nodes = (
(261,440,o),
(261,455,qs),
(261,471,o),
(248,498,o),
(235,528,o),
(232,553,q),
(245,559,l),
(275,534,o),
(295,496,o),
(314,485,qs),
(327,478,o),
(357,483,o),
(367,499,qs),
(376,516,o),
(366,546,o),
(353,553,qs),
(339,561,o),
(308,563,o),
(276,566,o),
(253,576,q),
(253,590,l),
(276,601,o),
(308,603,o),
(339,605,o),
(353,613,qs),
(366,621,o),
(376,651,o),
(367,667,qs),
(357,683,o),
(327,689,o),
(314,681,qs),
(300,673,o),
(282,648,o),
(264,622,o),
(243,606,q),
(232,613,l),
(235,639,o),
(248,668,o),
(261,696,o),
(261,711,qs),
(261,726,o),
(241,750,o),
(222,750,qs),
(203,750,o),
(183,726,o),
(183,711,qs),
(183,696,o),
(196,668,o),
(209,639,o),
(212,613,q),
(201,606,l),
(181,622,o),
(162,648,o),
(144,673,o),
(130,681,qs),
(117,689,o),
(87,683,o),
(77,667,qs),
(68,651,o),
(78,621,o),
(91,613,qs),
(105,605,o),
(136,603,o),
(168,601,o),
(191,590,q),
(191,576,l),
(168,566,o),
(136,563,o),
(105,561,o),
(91,553,qs),
(78,546,o),
(68,516,o),
(77,499,qs),
(87,483,o),
(117,478,o),
(130,485,qs),
(150,496,o),
(169,534,o),
(199,559,q),
(212,553,l),
(209,528,o),
(196,498,o),
(183,471,o),
(183,455,qs),
(183,440,o),
(203,416,o),
(222,416,qs),
(241,416,o)
);
}
);
userData = {
assembly = "NPUSHB[ ]	/* 10 values pushed */
57 1 2 3 7 1 0 1 2 76
MPPEM[ ]	/* MeasurePixelPerEm */
PUSHB[ ]	/* 1 value pushed */
50
LT[ ]	/* LessThan */
IF[ ]	/* If */
NPUSHB[ ]	/* 28 values pushed */
4 1 2 3 1 3 2 1 128 5 1 1 0 3 1 0 126 6 1 0 0 132 0 3 3 16 3 78
ELSE[ ]	/* Else */
NPUSHB[ ]	/* 22 values pushed */
0 3 2 3 133 4 1 2 1 2 133 5 1 1 0 1 133 6 1 0 0 118
EIF[ ]	/* EndIf */
NPUSHB[ ]	/* 19 values pushed */
1 0 80 79 72 71 51 49 29 28 21 20 0 99 1 99 7 7 22
CALL[ ]	/* CallFunction */";
};
width = 444;
}
);
note = asterisk;
unicode = 42;
},
{
glyphname = numbersign;
lastChange = "2025-10-05 08:16:41 +0000";
layers = (
{
layerId = m01;
shapes = (
{
closed = 1;
nodes = (
(100,0,l),
(142,0,l),
(308,720,l),
(266,720,l)
);
},
{
closed = 1;
nodes = (
(326,0,l),
(368,0,l),
(534,720,l),
(492,720,l)
);
},
{
closed = 1;
nodes = (
(72,449,l),
(615,449,l),
(615,491,l),
(72,491,l)
);
},
{
closed = 1;
nodes = (
(20,218,l),
(563,218,l),
(563,260,l),
(20,260,l)
);
}
);
userData = {
assembly = "MPPEM[ ]	/* MeasurePixelPerEm */
PUSHB[ ]	/* 1 value pushed */
24
LT[ ]	/* LessThan */
IF[ ]	/* If */
NPUSHB[ ]	/* 41 values pushed */
17 14 9 3 1 12 10 2 0 11 1 0 103 6 1 4 4 14 77 15 8 2 2 2 3 95 7 5 2 3 3 17 77 16 13 2 11 11 15 11 78
ELSE[ ]	/* Else */
NPUSHB[ ]	/* 39 values pushed */
7 5 2 3 15 8 2 2 1 3 2 104 17 14 9 3 1 12 10 2 0 11 1 0 103 6 1 4 4 14 77 16 13 2 11 11 15 11 78
EIF[ ]	/* EndIf */
NPUSHB[ ]	/* 34 values pushed */
54 52 0 0 60 57 52 63 54 63 0 51 0 51 49 46 44 43 41 39 38 36 33 34 18 50 18 33 35 33 34 18 7 31
CALL[ ]	/* CallFunction */";
};
width = 635;
}
);
note = numbersign;
unicode = 35;
},
{
glyphname = slash;
lastChange = "2025-10-05 08:16:54 +0000";
layers = (
{
layerId = m01;
shapes = (
{
closed = 1;
nodes = (
(-1,-143,l),
(44,-143,l),
(263,804,l),
(218,804,l)
);
}
);
userData = {
assembly = "NPUSHB[ ]	/* 21 values pushed */
0 1 0 1 133 2 1 0 0 118 1 0 7 4 0 11 1 10 3 7 22
CALL[ ]	/* CallFunction */";
};
width = 268;
}
);
note = slash;
unicode = 47;
},
{
glyphname = backslash;
lastChange = "2025-10-05 08:17:05 +0000";
layers = (
{
layerId = m01;
shapes = (
{
closed = 1;
nodes = (
(2,804,l),
(221,-143,l),
(266,-143,l),
(47,804,l)
);
}
);
userData = {
assembly = "NPUSHB[ ]	/* 21 values pushed */
0 1 0 1 133 2 1 0 0 118 1 0 7 4 0 11 1 10 3 7 22
CALL[ ]	/* CallFunction */";
};
width = 268;
}
);
note = backslash;
unicode = 92;
},
{
glyphname = hyphen;
kernLeft = hyphen;
kernRight = hyphen;
lastChange = "2025-10-05 08:17:26 +0000";
layers = (
{
layerId = m01;
shapes = (
{
closed = 1;
nodes = (
(72,254,l),
(338,254,l),
(338,298,l),
(72,298,l)
);
}
);
userData = {
assembly = "NPUSHB[ ]	/* 28 values pushed */
0 1 0 0 1 87 0 1 1 0 95 2 1 0 1 0 79 1 0 7 4 0 11 1 10 3 7 22
CALL[ ]	/* CallFunction */";
};
width = 410;
}
);
note = hyphen;
unicode = 45;
},
{
glyphname = endash;
kernLeft = hyphen;
kernRight = hyphen;
lastChange = "2025-10-05 08:17:33 +0000";
layers = (
{
layerId = m01;
shapes = (
{
closed = 1;
nodes = (
(72,254,l),
(418,254,l),
(418,298,l),
(72,298,l)
);
}
);
userData = {
assembly = "NPUSHB[ ]	/* 28 values pushed */
0 1 0 0 1 87 0 1 1 0 95 2 1 0 1 0 79 1 0 7 4 0 11 1 10 3 7 22
CALL[ ]	/* CallFunction */";
};
width = 490;
}
);
note = endash;
unicode = 8211;
},
{
glyphname = emdash;
kernLeft = hyphen;
kernRight = hyphen;
lastChange = "2025-10-05 08:17:39 +0000";
layers = (
{
layerId = m01;
shapes = (
{
closed = 1;
nodes = (
(72,254,l),
(628,254,l),
(628,298,l),
(72,298,l)
);
}
);
userData = {
assembly = "NPUSHB[ ]	/* 28 values pushed */
0 1 0 0 1 87 0 1 1 0 95 2 1 0 1 0 79 1 0 7 4 0 11 1 10 3 7 22
CALL[ ]	/* CallFunction */";
};
width = 700;
}
);
note = emdash;
unicode = 8212;
},
{
glyphname = underscore;
lastChange = "2025-10-05 08:18:31 +0000";
layers = (
{
layerId = m01;
shapes = (
{
closed = 1;
nodes = (
(15,-89,l),
(361,-89,l),
(361,-45,l),
(15,-45,l)
);
}
);
userData = {
assembly = "PUSHB[ ]	/* 2 values pushed */
6 100
WCVTP[ ]	/* WriteCVTInPixels */
NPUSHB[ ]	/* 28 values pushed */
0 1 0 0 1 87 0 1 1 0 95 2 1 0 1 0 79 1 0 7 4 0 11 1 10 3 7 22
CALL[ ]	/* CallFunction */
PUSHB[ ]	/* 2 values pushed */
6 0
WCVTP[ ]	/* WriteCVTInPixels */";
};
width = 376;
}
);
note = underscore;
unicode = 95;
},
{
glyphname = parenleft;
lastChange = "2025-10-05 08:19:43 +0000";
layers = (
{
layerId = m01;
shapes = (
{
closed = 1;
nodes = (
(248,-122,l),
(192,-56,o),
(113,109,o),
(113,319,cs),
(113,529,o),
(192,694,o),
(248,760,c),
(206,760,l),
(145,694,o),
(63,529,o),
(63,319,cs),
(63,109,o),
(145,-56,o),
(206,-122,c)
);
}
);
userData = {
assembly = "MPPEM[ ]	/* MeasurePixelPerEm */
PUSHB[ ]	/* 1 value pushed */
42
LT[ ]	/* LessThan */
IF[ ]	/* If */
NPUSHB[ ]	/* 12 values pushed */
2 1 1 0 1 134 0 0 0 16 0 78
ELSE[ ]	/* Else */
NPUSHB[ ]	/* 10 values pushed */
0 0 1 0 133 2 1 1 1 118
EIF[ ]	/* EndIf */
NPUSHB[ ]	/* 10 values pushed */
0 0 0 27 0 27 30 3 7 23
CALL[ ]	/* CallFunction */";
};
width = 278;
}
);
note = parenleft;
unicode = 40;
},
{
glyphname = braceleft;
lastChange = "2025-10-05 08:21:58 +0000";
layers = (
{
layerId = m01;
shapes = (
{
closed = 1;
nodes = (
(280,-141,l),
(280,-103,l),
(236,-103,ls),
(174,-103,o),
(159,-72,o),
(169,-25,cs),
(182,38,o),
(210,150,o),
(210,228,cs),
(210,276,o),
(173,319,o),
(114,319,c),
(114,326,l),
(173,326,o),
(210,369,o),
(210,417,cs),
(210,495,o),
(182,607,o),
(169,670,cs),
(159,717,o),
(174,748,o),
(236,748,cs),
(280,748,l),
(280,786,l),
(230,786,ls),
(149,786,o),
(116,729,o),
(126,668,cs),
(138,595,o),
(167,489,o),
(167,417,cs),
(167,350,o),
(116,346,o),
(74,346,cs),
(36,346,l),
(36,299,l),
(74,299,ls),
(116,299,o),
(167,295,o),
(167,228,cs),
(167,156,o),
(138,50,o),
(126,-23,cs),
(116,-84,o),
(149,-141,o),
(230,-141,cs)
);
}
);
userData = {
assembly = "NPUSHB[ ]	/* 52 values pushed */
26 1 1 2 1 76 0 2 0 1 5 2 1 105 0 5 6 1 0 5 0 101 0 4 4 3 97 0 3 3 16 4 78 1 0 33 31 21 19 17 15 11 9 7 5 0 35 1 35 7 7 22
CALL[ ]	/* CallFunction */";
};
width = 316;
}
);
note = braceleft;
unicode = 123;
},
{
glyphname = bracketleft;
lastChange = "2025-10-05 08:22:38 +0000";
layers = (
{
layerId = m01;
shapes = (
{
closed = 1;
nodes = (
(88,-128,l),
(265,-128,l),
(265,-86,l),
(134,-86,l),
(134,724,l),
(265,724,l),
(265,766,l),
(86,766,l),
(86,-127,l),
(88,-127,l)
);
}
);
userData = {
assembly = "NPUSHB[ ]	/* 34 values pushed */
0 3 4 1 0 3 0 99 0 2 2 1 95 0 1 1 16 2 78 1 0 18 15 12 9 7 4 0 21 1 20 5 7 22
CALL[ ]	/* CallFunction */";
};
width = 325;
}
);
note = bracketleft;
unicode = 91;
},
{
glyphname = guilsinglleft;
lastChange = "2025-10-05 08:25:16 +0000";
layers = (
{
layerId = m01;
shapes = (
{
closed = 1;
nodes = (
(209,75,l),
(237,101,l),
(115,275,l),
(237,449,l),
(209,475,l),
(50,281,l),
(50,269,l)
);
}
);
userData = {
assembly = "NPUSHB[ ]	/* 20 values pushed */
14 1 1 0 1 76 0 0 1 0 133 0 1 1 118 40 38 2 7 24
CALL[ ]	/* CallFunction */";
};
width = 292;
}
);
note = guilsinglleft;
unicode = 8249;
},
{
glyphname = quotesingle;
kernLeft = quotedbl;
kernRight = quotedbl;
lastChange = "2025-10-05 08:25:35 +0000";
layers = (
{
layerId = m01;
shapes = (
{
closed = 1;
nodes = (
(97,450,l),
(135,450,l),
(151,740,l),
(81,740,l)
);
}
);
userData = {
assembly = "NPUSHB[ ]	/* 23 values pushed */
2 1 0 0 1 97 0 1 1 20 0 78 1 0 10 8 0 17 1 17 3 7 22
CALL[ ]	/* CallFunction */";
};
width = 233;
}
);
note = quotesingle;
unicode = 39;
},
{
glyphname = at;
kernLeft = c;
kernRight = b;
lastChange = "2025-10-05 08:32:23 +0000";
layers = (
{
layerId = m01;
shapes = (
{
closed = 1;
nodes = (
(497,246,l),
(477,241,l),
(477,214,o),
(468,199,o),
(450,199,cs),
(431,199,o),
(423,214,o),
(423,241,cs),
(423,555,l),
(365,555,l),
(365,490,l),
(362,490,l),
(351,522,o),
(317,565,o),
(262,565,cs),
(172,565,o),
(126,462,o),
(126,359,cs),
(126,257,o),
(171,155,o),
(261,155,cs),
(316,155,o),
(351,198,o),
(362,230,c),
(366,230,l),
(371,181,o),
(400,155,o),
(441,155,cs),
(485,155,o),
(517,185,o),
(517,241,c)
);
},
{
closed = 1;
nodes = (
(233,201,o),
(197,225,o),
(197,307,cs),
(197,413,ls),
(197,495,o),
(233,519,o),
(273,519,cs),
(332,519,o),
(360,455,o),
(365,406,c),
(365,317,l),
(360,268,o),
(332,201,o),
(273,201,cs)
);
},
{
closed = 1;
nodes = (
(413.771,62.367,o),
(363.333,25,o),
(283,25,c),
(161.226,25,o),
(84,117.987,o),
(84,280,c),
(84,461,l),
(84,623.551,o),
(153.819,716,o),
(281,716,c),
(408.462,716,o),
(477,629.298,o),
(477,479,c),
(477,241,l),
(517,241,l),
(517,479,l),
(517,648.702,o),
(433.538,756,o),
(281,756,c),
(128.181,756,o),
(44,642.449,o),
(44,461,c),
(44,280,l),
(44,98.013,o),
(136.774,-15,o),
(283,-15,c),
(378.667,-15,o),
(440.229,31.633,o),
(477.364,76.196,c),
(446.636,101.804,l)
);
}
);
userData = {
assembly = "NPUSHB[ ]	/* 100 values pushed */
0 6 4 11 4 6 11 128 0 5 11 10 11 5 10 128 0 1 0 8 4 1 8 105 0 4 0 11 5 4 11 105 13 1 10 7 2 10 89 0 7 3 1 2 9 7 2 105 0 9 0 0 9 89 0 9 9 0 97 12 1 0 9 0 81 72 71 1 0 80 78 71 86 72 86 64 62 57 55 50 48 45 43 41 39 37 35 30 28 19 17 10 8 0 70 1 70 14 7 22
CALL[ ]	/* CallFunction */";
};
width = 562;
}
);
note = at;
unicode = 64;
},
{
glyphname = ampersand;
lastChange = "2025-10-05 08:37:15 +0000";
layers = (
{
layerId = m01;
shapes = (
{
closed = 1;
nodes = (
(138,696,o),
(179,712,o),
(219,712,cs),
(264,712,o),
(298,688,o),
(298,629,cs),
(298,561,o),
(227,517,o),
(217,510,cs),
(194,494,l),
(163,538,o),
(138,576,o),
(138,630,cs)
);
},
{
closed = 1;
nodes = (
(295,-10,o),
(355,23,o),
(393,85,c),
(450,0,l),
(553,0,l),
(553,28,l),
(519,33,o),
(499,43,o),
(475,79,cs),
(426,153,l),
(432,181,o),
(437,224,o),
(437,257,cs),
(437,404,l),
(503,404,l),
(502,442,l),
(338,442,l),
(339,404,l),
(397,404,l),
(397,258,ls),
(397,239,o),
(395,217,o),
(393,200,c),
(217,461,l),
(243,478,ls),
(282,504,o),
(351,552,o),
(351,631,cs),
(351,699,o),
(302,750,o),
(220,750,cs),
(137,750,o),
(82,695,o),
(82,613,cs),
(82,548,o),
(108,506,o),
(140,459,c),
(86,420,o),
(32,351,o),
(32,224,cs),
(32,85,o),
(104,-10,o),
(222,-10,cs)
);
},
{
closed = 1;
nodes = (
(98,298,ls),
(98,369,o),
(131,402,o),
(163,426,c),
(369,121,l),
(340,68,o),
(296,32,o),
(229,32,cs),
(150,32,o),
(98,77,o),
(98,157,cs)
);
}
);
userData = {
assembly = "NPUSHB[ ]	/* 59 values pushed */
0 2 4 5 4 2 5 128 0 4 4 1 97 0 1 1 20 77 0 3 3 15 77 7 1 5 5 0 97 6 1 0 0 21 0 78 88 87 1 0 87 100 88 100 80 78 65 62 42 39 17 15 0 71 1 71 8 7 22
CALL[ ]	/* CallFunction */";
};
width = 538;
}
);
note = ampersand;
unicode = 38;
},
{
glyphname = paragraph;
lastChange = "2025-10-05 10:39:21 +0000";
layers = (
{
layerId = m01;
shapes = (
{
closed = 1;
nodes = (
(243,-100,l),
(287,-100,l),
(287,696,l),
(327,696,l),
(327,-100,l),
(371,-100,l),
(371,696,l),
(410,696,l),
(410,740,l),
(269,740,ls),
(105,740,o),
(23,628,o),
(23,515,cs),
(23,403,o),
(105,290,o),
(243,290,c)
);
}
);
userData = {
assembly = "NPUSHB[ ]	/* 42 values pushed */
0 1 4 0 4 1 0 128 3 5 2 0 0 132 0 4 4 2 95 0 2 2 14 4 78 1 0 34 31 28 25 16 13 7 4 0 38 1 37 6 7 22
CALL[ ]	/* CallFunction */";
};
width = 430;
}
);
note = paragraph;
unicode = 182;
},
{
glyphname = section;
lastChange = "2025-10-05 10:43:59 +0000";
layers = (
{
layerId = m01;
shapes = (
{
closed = 1;
nodes = (
(275,414,l),
(254,433,o),
(225,448,o),
(182,448,cs),
(102,448,o),
(60,388,o),
(60,308,cs),
(60,129,o),
(286,124,o),
(286,-34,cs),
(286,-88,o),
(264,-115,o),
(221,-115,cs),
(100,-115,o),
(107,57,o),
(107,93,cs),
(107,104,l),
(39,104,l),
(39,-150,l),
(74,-150,l),
(74,-28,l),
(83,-28,l),
(90,-87,o),
(126,-161,o),
(222,-161,cs),
(314,-161,o),
(351,-96,o),
(351,-8,cs),
(351,173,o),
(125,191,o),
(125,331,cs),
(125,369,o),
(141,411,o),
(185,411,cs),
(215,411,o),
(235,400,o),
(250,383,c)
);
},
{
closed = 1;
nodes = (
(157,156,l),
(175,147,o),
(196,142,o),
(222,142,cs),
(314,142,o),
(351,207,o),
(351,296,cs),
(351,476,o),
(125,494,o),
(125,635,cs),
(125,673,o),
(141,704,o),
(185,704,cs),
(277,704,o),
(291,597,o),
(291,532,cs),
(291,529,l),
(347,529,l),
(347,740,l),
(312,740,l),
(312,663,l),
(303,663,l),
(294,704,o),
(260,751,o),
(182,751,cs),
(102,751,o),
(60,692,o),
(60,611,cs),
(60,432,o),
(286,427,o),
(286,269,cs),
(286,215,o),
(264,179,o),
(221,179,cs),
(202,179,o),
(186,184,o),
(173,191,c)
);
}
);
userData = {
assembly = "NPUSHB[ ]	/* 53 values pushed */
0 4 5 1 5 4 1 128 0 1 2 5 1 2 126 0 2 6 1 0 2 0 101 0 5 5 3 97 0 3 3 20 5 78 1 0 50 48 43 42 36 34 15 13 8 7 0 69 1 69 7 7 22
CALL[ ]	/* CallFunction */";
};
width = 396;
}
);
note = section;
unicode = 167;
},
{
glyphname = copyright;
lastChange = "2025-10-05 10:47:17 +0000";
layers = (
{
layerId = m01;
shapes = (
{
closed = 1;
nodes = (
(296,458,o),
(303,431,o),
(330,431,cs),
(361,431,o),
(372,498,o),
(349,544,cs),
(329,583,o),
(293,595,o),
(258,595,cs),
(157,595,o),
(117,480,o),
(117,362,cs),
(117,236,o),
(157,138,o),
(249,138,cs),
(339,138,o),
(369,236,o),
(372,301,c),
(338,303,l),
(335,251,o),
(314,178,o),
(260,178,cs),
(203,178,o),
(178,231,o),
(178,326,cs),
(178,416,l),
(179,503,o),
(208,550,o),
(251,563,cs),
(291,575,o),
(321,547,o),
(310,508,cs)
);
},
{
attr = {
strokeWidth = 40;
};
closed = 1;
nodes = (
(385,12,o),
(476,173,o),
(476,370,cs),
(476,568,o),
(385,728,o),
(250,728,cs),
(115,728,o),
(24,568,o),
(24,370,cs),
(24,173,o),
(115,12,o),
(250,12,cs)
);
}
);
userData = {
assembly = "PUSHB[ ]	/* 2 values pushed */
6 100
WCVTP[ ]	/* WriteCVTInPixels */
NPUSHB[ ]	/* 100 values pushed */
79 1 8 9 1 76 0 6 7 9 7 6 9 128 0 9 8 7 9 8 126 0 1 0 3 5 1 3 105 0 5 0 7 6 5 7 105 0 8 12 1 4 2 8 4 105 11 1 2 0 0 2 89 11 1 2 2 0 97 10 1 0 2 0 81 41 40 21 20 1 0 77 75 71 69 63 61 57 55 49 47 40 83 41 83 31 29 20 39 21 39 11 9 0 19 1 19 13 7 22
CALL[ ]	/* CallFunction */
PUSHB[ ]	/* 2 values pushed */
6 0
WCVTP[ ]	/* WriteCVTInPixels */";
};
width = 500;
}
);
note = copyright;
unicode = 169;
},
{
glyphname = registered;
lastChange = "2025-10-05 10:50:53 +0000";
layers = (
{
layerId = m01;
shapes = (
{
closed = 1;
nodes = (
(345,384,o),
(353,407,o),
(353,424,cs),
(353,474,l),
(331,474,l),
(331,431,ls),
(331,420,o),
(330,413,o),
(321,413,cs),
(309,413,o),
(309,426,o),
(309,434,cs),
(309,477,ls),
(309,504,o),
(298,519,o),
(271,519,cs),
(269,519,l),
(269,522,l),
(272,522,ls),
(308,522,o),
(332,552,o),
(332,588,cs),
(332,620,o),
(310,659,o),
(252,659,cs),
(154,659,l),
(154,639,l),
(187,635,l),
(187,412,l),
(154,408,l),
(154,388,l),
(254,388,l),
(254,408,l),
(220,412,l),
(220,508,l),
(237,508,ls),
(268,508,o),
(277,502,o),
(277,473,cs),
(277,424,ls),
(277,401,o),
(289,384,o),
(314,384,cs)
);
},
{
closed = 1;
nodes = (
(220,535,l),
(220,636,l),
(243,636,ls),
(279,636,o),
(298,627,o),
(298,592,cs),
(298,579,ls),
(298,543,o),
(279,535,o),
(243,535,cs)
);
},
{
attr = {
strokeWidth = 30;
};
closed = 1;
nodes = (
(367,305,o),
(444,397,o),
(444,517,cs),
(444,636,o),
(367,727,o),
(251,727,cs),
(133,727,o),
(56,636,o),
(56,517,cs),
(56,397,o),
(133,305,o),
(251,305,cs)
);
}
);
userData = {
assembly = "PUSHB[ ]	/* 2 values pushed */
6 100
WCVTP[ ]	/* WriteCVTInPixels */
NPUSHB[ ]	/* 102 values pushed */
0 6 8 4 8 6 4 128 0 1 0 3 7 1 3 105 0 7 0 10 9 7 10 105 14 1 9 0 5 8 9 5 105 0 8 13 1 4 2 8 4 105 12 1 2 0 0 2 89 12 1 2 2 0 97 11 1 0 2 0 81 102 101 41 40 21 20 1 0 108 106 101 111 102 111 94 92 79 76 61 58 48 46 40 100 41 100 31 29 20 39 21 39 11 9 0 19 1 19 15 7 22
CALL[ ]	/* CallFunction */
PUSHB[ ]	/* 2 values pushed */
6 0
WCVTP[ ]	/* WriteCVTInPixels */";
};
width = 500;
}
);
note = registered;
unicode = 174;
},
{
glyphname = trademark;
lastChange = "2025-10-05 11:00:17 +0000";
layers = (
{
layerId = m01;
shapes = (
{
closed = 1;
nodes = (
(54,401,l),
(215,401,l),
(215,420,l),
(150,420,l),
(150,720,l),
(177,720,ls),
(200,720,o),
(214,713,o),
(216,692,cs),
(220,642,l),
(235,642,l),
(235,740,l),
(34,740,l),
(34,642,l),
(49,642,l),
(53,692,ls),
(55,713,o),
(69,720,o),
(92,720,cs),
(118,720,l),
(118,420,l),
(54,420,l)
);
},
{
closed = 1;
nodes = (
(256,401,l),
(333,401,l),
(333,420,l),
(308,420,l),
(308,740,l),
(256,740,l),
(256,720,l),
(289,720,l),
(289,420,l),
(256,420,l)
);
},
{
closed = 1;
nodes = (
(459,420,l),
(434,420,l),
(434,401,l),
(524,401,l),
(524,420,l),
(490,420,l),
(490,720,l),
(524,720,l),
(524,740,l),
(459,740,l)
);
},
{
closed = 1;
nodes = (
(371,401,l),
(388,429,l),
(308,740,l),
(296,694,l)
);
},
{
closed = 1;
nodes = (
(371,401,l),
(390,401,l),
(477,740,l),
(459,740,l)
);
}
);
userData = {
assembly = "NPUSHB[ ]	/* 97 values pushed */
82 67 2 10 3 117 106 2 1 0 99 94 73 60 54 49 2 7 7 1 3 76 14 12 11 13 4 7 1 7 134 4 1 2 3 1 2 89 0 10 0 3 10 89 9 8 2 3 6 1 0 1 3 0 105 4 1 2 2 1 97 5 1 1 2 1 81 52 52 0 0 52 128 52 127 97 96 86 85 80 78 71 69 0 51 0 51 36 35 33 49 35 36 42 15 6 29
CALL[ ]	/* CallFunction */";
};
width = 571;
}
);
note = trademark;
unicode = 8482;
},
{
glyphname = degree;
lastChange = "2025-10-05 11:02:51 +0000";
layers = (
{
layerId = m01;
shapes = (
{
attr = {
strokeWidth = 40;
};
closed = 1;
nodes = (
(276,476,o),
(330,530,o),
(330,598,cs),
(330,666,o),
(276,720,o),
(209,720,cs),
(142,720,o),
(88,666,o),
(88,598,cs),
(88,530,o),
(142,476,o),
(209,476,cs)
);
}
);
userData = {
assembly = "PUSHB[ ]	/* 2 values pushed */
6 100
WCVTP[ ]	/* WriteCVTInPixels */
NPUSHB[ ]	/* 46 values pushed */
0 1 0 3 2 1 3 105 5 1 2 0 0 2 89 5 1 2 2 0 97 4 1 0 2 0 81 17 16 1 0 23 21 16 27 17 27 9 7 0 15 1 15 6 7 22
CALL[ ]	/* CallFunction */
PUSHB[ ]	/* 2 values pushed */
6 0
WCVTP[ ]	/* WriteCVTInPixels */";
};
width = 426;
}
);
note = degree;
unicode = 176;
},
{
glyphname = bar;
lastChange = "2025-10-05 11:03:01 +0000";
layers = (
{
layerId = m01;
shapes = (
{
closed = 1;
nodes = (
(105,-143,l),
(149,-143,l),
(149,804,l),
(105,804,l)
);
}
);
userData = {
assembly = "NPUSHB[ ]	/* 29 values pushed */
9 8 3 2 4 1 0 1 76 0 0 1 0 133 2 1 1 1 118 0 0 0 11 0 11 21 3 7 23
CALL[ ]	/* CallFunction */";
};
width = 252;
}
);
note = bar;
unicode = 124;
},
{
glyphname = cent;
kernLeft = c;
lastChange = "2025-10-05 17:21:43 +0000";
layers = (
{
anchors = (
{
name = bottom;
pos = (182,0);
},
{
name = top;
pos = (208,510);
}
);
layerId = m01;
shapes = (
{
ref = c;
},
{
closed = 1;
nodes = (
(160,-109,l),
(202,-109,l),
(202,642,l),
(160,642,l)
);
}
);
userData = {
assembly = "NPUSHB[ ]	/* 79 values pushed */
11 1 3 2 50 31 17 10 4 4 3 49 42 32 3 1 5 43 1 0 1 4 76 0 2 3 2 133 0 4 3 5 3 4 5 128 0 5 1 3 5 1 126 6 1 0 1 0 134 0 3 3 23 77 0 1 1 21 1 78 1 0 38 36 27 25 20 19 15 13 4 3 0 45 1 45 7 7 22
CALL[ ]	/* CallFunction */";
};
width = 349;
}
);
note = cent;
unicode = 162;
},
{
glyphname = dollar;
kernLeft = S;
kernRight = S;
lastChange = "2025-10-05 11:03:54 +0000";
layers = (
{
anchors = (
{
name = bottom;
pos = (209,0);
},
{
name = top;
pos = (229,720);
}
);
layerId = m01;
shapes = (
{
closed = 1;
nodes = (
(316,0,o),
(393,56,o),
(393,160,cs),
(393,359,o),
(106,461,o),
(106,622,cs),
(106,677,o),
(139,707,o),
(194,707,cs),
(289,707,o),
(343,673,o),
(343,552,c),
(375,552,l),
(375,730,l),
(314,740,o),
(253,750,o),
(192,750,cs),
(108,750,o),
(39,692,o),
(39,599,cs),
(39,410,o),
(326,319,o),
(326,136,cs),
(326,65,o),
(282,34,o),
(218,34,cs),
(151,34,o),
(56,59,o),
(56,235,c),
(24,235,l),
(24,20,l),
(90,10,o),
(155,0,o),
(221,0,cs)
);
},
{
closed = 1;
nodes = (
(191,-111,l),
(233,-111,l),
(233,835,l),
(191,835,l)
);
}
);
userData = {
assembly = "NPUSHB[ ]	/* 106 values pushed */
25 1 4 3 24 1 7 4 47 1 5 7 76 68 48 16 4 1 5 77 1 2 1 63 56 2 0 2 57 1 6 0 7 76 0 3 4 3 133 0 7 4 5 4 7 5 128 0 5 1 4 5 1 126 0 1 2 4 1 2 126 0 6 0 6 134 0 4 4 20 77 0 2 2 0 97 8 1 0 0 21 0 78 1 0 71 69 61 59 42 40 33 31 29 27 15 14 11 9 0 64 1 64 9 7 22
CALL[ ]	/* CallFunction */";
};
width = 422;
}
);
note = dollar;
unicode = 36;
},
{
glyphname = Euro;
kernRight = C;
lastChange = "2025-10-05 10:51:35 +0000";
layers = (
{
anchors = (
{
name = bottom;
pos = (306,0);
},
{
name = top;
pos = (310,720);
}
);
layerId = m01;
shapes = (
{
closed = 1;
nodes = (
(20,399,l),
(357,399,l),
(357,441,l),
(20,441,l)
);
},
{
closed = 1;
nodes = (
(20,307,l),
(357,307,l),
(357,349,l),
(20,349,l)
);
},
{
closed = 1;
nodes = (
(338,-10,o),
(366,-6,o),
(423,11,c),
(423,192,l),
(391,192,l),
(391,67,o),
(365,37,o),
(281,37,cs),
(202,37,o),
(160,100,o),
(160,215,cs),
(160,525,ls),
(160,640,o),
(203,703,o),
(281,703,cs),
(365,703,o),
(391,673,o),
(391,548,c),
(423,548,l),
(423,730,l),
(367,743,o),
(348,750,o),
(281,750,cs),
(145,750,o),
(76,560,o),
(76,370,cs),
(76,180,o),
(145,-10,o),
(281,-10,cs)
);
}
);
userData = {
assembly = "NPUSHB[ ]	/* 83 values pushed */
0 5 6 3 6 5 3 128 7 1 3 8 1 2 1 3 2 105 9 1 1 10 13 2 0 11 1 0 103 0 6 6 4 97 0 4 4 20 77 0 11 11 12 97 0 12 12 21 12 78 1 0 75 73 60 58 56 54 51 49 45 43 40 38 36 34 30 28 22 20 17 15 12 10 6 4 0 78 1 78 14 7 22
CALL[ ]	/* CallFunction */";
};
width = 495;
}
);
note = Euro;
unicode = 8364;
},
{
glyphname = sterling;
lastChange = "2025-10-05 11:47:48 +0000";
layers = (
{
layerId = m01;
shapes = (
{
closed = 1;
nodes = (
(120,35,o),
(89,47,o),
(89,82,cs),
(89,115,o),
(114,136,o),
(155,136,cs),
(187,136,o),
(213,120,o),
(237,91,c),
(218,65,o),
(182,39,o),
(150,37,cs)
);
},
{
closed = 1;
nodes = (
(187,-9,o),
(229,22,o),
(261,62,c),
(293,27,o),
(328,-9,o),
(387,-9,cs),
(471,-9,o),
(506,63,o),
(500,136,cs),
(496,182,l),
(454,182,l),
(458,136,ls),
(467,37,o),
(385,6,o),
(292,112,c),
(372,271,o),
(277,417,o),
(208,522,cs),
(153,606,o),
(198,698,o),
(291,703,cs),
(364,707,o),
(411,662,o),
(411,548,c),
(443,548,l),
(443,720,l),
(398,737,o),
(368,750,o),
(301,750,cs),
(130,750,o),
(77,572,o),
(213,367,cs),
(259,297,o),
(286,204,o),
(263,138,c),
(225,164,o),
(194,180,o),
(151,180,cs),
(80,180,o),
(40,130,o),
(40,75,cs),
(40,30,o),
(74,-9,o),
(139,-9,cs)
);
},
{
closed = 1;
nodes = (
(89,306,l),
(436,306,l),
(436,348,l),
(89,348,l)
);
}
);
width = 520;
}
);
note = sterling;
unicode = 163;
},
{
glyphname = yen;
kernLeft = Y;
kernRight = Y;
lastChange = "2025-10-05 10:41:49 +0000";
layers = (
{
anchors = (
{
name = bottom;
pos = (257,0);
},
{
name = top;
pos = (277,720);
}
);
layerId = m01;
shapes = (
{
closed = 1;
nodes = (
(56,387,l),
(209,387,l),
(209,431,l),
(56,431,l)
);
},
{
closed = 1;
nodes = (
(56,286,l),
(443,286,l),
(443,330,l),
(56,330,l)
);
},
{
ref = Y;
},
{
closed = 1;
nodes = (
(295,387,l),
(443,387,l),
(443,431,l),
(295,431,l)
);
}
);
userData = {
assembly = "NPUSHB[ ]	/* 82 values pushed */
0 8 3 2 3 8 2 128 10 1 4 11 1 3 8 4 3 103 12 1 2 13 1 1 0 2 1 103 7 1 6 6 5 95 9 1 5 5 14 77 14 1 0 0 15 0 78 1 0 84 82 79 77 74 72 69 67 59 56 47 46 42 41 40 39 37 34 26 24 21 19 16 14 11 9 0 93 1 92 15 7 22
CALL[ ]	/* CallFunction */";
};
width = 513;
}
);
note = yen;
unicode = 165;
},
{
glyphname = plus;
lastChange = "2025-10-05 11:04:20 +0000";
layers = (
{
layerId = m01;
shapes = (
{
closed = 1;
nodes = (
(244,153,l),
(288,153,l),
(288,590,l),
(244,590,l)
);
},
{
closed = 1;
nodes = (
(48,394,l),
(48,350,l),
(485,350,l),
(485,394,l)
);
}
);
userData = {
assembly = "NPUSHB[ ]	/* 49 values pushed */
0 3 2 3 133 6 1 0 1 0 134 4 1 2 1 1 2 87 4 1 2 2 1 95 5 1 1 2 1 79 1 0 24 22 19 17 15 12 10 8 5 3 0 27 1 26 7 7 22
CALL[ ]	/* CallFunction */";
};
width = 531;
}
);
note = plus;
unicode = 43;
},
{
glyphname = minus;
lastChange = "2025-10-05 11:04:39 +0000";
layers = (
{
layerId = m01;
shapes = (
{
closed = 1;
nodes = (
(68,394,l),
(68,350,l),
(465,350,l),
(465,394,l)
);
}
);
userData = {
assembly = "NPUSHB[ ]	/* 28 values pushed */
0 1 0 0 1 87 0 1 1 0 95 2 1 0 1 0 79 1 0 7 4 0 11 1 10 3 6 22
CALL[ ]	/* CallFunction */";
};
width = 531;
}
);
note = minus;
unicode = 8722;
},
{
glyphname = multiply;
lastChange = "2025-10-05 11:05:25 +0000";
layers = (
{
layerId = m01;
shapes = (
{
closed = 1;
nodes = (
(114,556,l),
(82,525,l),
(420,187,l),
(451,219,l)
);
},
{
closed = 1;
nodes = (
(451,524,l),
(420,556,l),
(82,218,l),
(114,187,l)
);
}
);
userData = {
assembly = "PUSHB[ ]	/* 4 values pushed */
23 9 1 50
CALL[ ]	/* CallFunction */";
};
width = 531;
}
);
note = multiply;
unicode = 215;
},
{
glyphname = divide;
lastChange = "2025-10-05 11:05:35 +0000";
layers = (
{
layerId = m01;
shapes = (
{
closed = 1;
nodes = (
(318,514,o),
(318,538,qs),
(318,561,o),
(286,590,o),
(266,590,qs),
(244,590,o),
(213,561,o),
(213,538,qs),
(213,514,o),
(244,485,o),
(266,485,qs),
(286,485,o)
);
},
{
closed = 1;
nodes = (
(318,182,o),
(318,206,qs),
(318,229,o),
(286,258,o),
(266,258,qs),
(244,258,o),
(213,229,o),
(213,206,qs),
(213,182,o),
(244,153,o),
(266,153,qs),
(286,153,o)
);
},
{
closed = 1;
nodes = (
(68,394,l),
(68,350,l),
(465,350,l),
(465,394,l)
);
}
);
userData = {
assembly = "NPUSHB[ ]	/* 62 values pushed */
0 1 6 1 0 3 1 0 105 0 3 7 1 2 5 3 2 103 0 5 4 4 5 89 0 5 5 4 97 8 1 4 5 4 81 25 24 13 12 1 0 31 29 24 35 25 35 19 16 12 23 13 22 7 5 0 11 1 11 9 7 22
CALL[ ]	/* CallFunction */";
};
width = 531;
}
);
note = divide;
unicode = 247;
},
{
glyphname = equal;
lastChange = "2025-10-05 11:06:00 +0000";
layers = (
{
layerId = m01;
shapes = (
{
closed = 1;
nodes = (
(58,488,l),
(58,444,l),
(475,444,l),
(475,488,l)
);
},
{
closed = 1;
nodes = (
(58,296,l),
(58,252,l),
(475,252,l),
(475,296,l)
);
}
);
userData = {
assembly = "MPPEM[ ]	/* MeasurePixelPerEm */
PUSHB[ ]	/* 1 value pushed */
23
LT[ ]	/* LessThan */
IF[ ]	/* If */
NPUSHB[ ]	/* 20 values pushed */
0 3 5 1 2 3 2 99 4 1 0 0 1 95 0 1 1 17 0 78
ELSE[ ]	/* Else */
NPUSHB[ ]	/* 26 values pushed */
0 1 4 1 0 3 1 0 103 0 3 2 2 3 87 0 3 3 2 95 5 1 2 3 2 79
EIF[ ]	/* EndIf */
NPUSHB[ ]	/* 19 values pushed */
13 12 1 0 19 16 12 23 13 22 7 4 0 11 1 10 6 7 22
CALL[ ]	/* CallFunction */";
};
width = 531;
}
);
note = equal;
unicode = 61;
},
{
glyphname = greater;
lastChange = "2025-10-05 11:08:29 +0000";
layers = (
{
layerId = m01;
shapes = (
{
closed = 1;
nodes = (
(457,389,l),
(88,538,l),
(73,497,l),
(393,367,l),
(73,237,l),
(88,196,l),
(457,345,l)
);
}
);
userData = {
assembly = "PUSHB[ ]	/* 4 values pushed */
13 1 1 50
CALL[ ]	/* CallFunction */";
};
width = 537;
}
);
note = greater;
unicode = 62;
},
{
glyphname = asciitilde;
lastChange = "2025-10-05 11:08:43 +0000";
layers = (
{
layerId = m01;
shapes = (
{
closed = 1;
nodes = (
(362,281,o),
(468,286,o),
(478,414,c),
(444,414,l),
(434,307,o),
(328,362,o),
(244,399,cs),
(165,434,o),
(61,427,o),
(52,301,c),
(86,301,l),
(96,408,o),
(202,355,o),
(286,317,cs)
);
}
);
width = 531;
}
);
note = asciitilde;
unicode = 126;
},
{
glyphname = asciicircum;
lastChange = "2025-10-05 11:08:52 +0000";
layers = (
{
layerId = m01;
shapes = (
{
closed = 1;
nodes = (
(61,510,l),
(83,510,l),
(156,656,l),
(229,510,l),
(251,510,l),
(176,750,l),
(136,750,l)
);
}
);
userData = {
assembly = "PUSHB[ ]	/* 2 values pushed */
6 100
WCVTP[ ]	/* WriteCVTInPixels */
NPUSHB[ ]	/* 12 values pushed */
16 1 0 73 0 0 0 118 38 1 7 23
CALL[ ]	/* CallFunction */
PUSHB[ ]	/* 2 values pushed */
6 0
WCVTP[ ]	/* WriteCVTInPixels */";
};
width = 312;
}
);
note = asciicircum;
unicode = 94;
},
{
glyphname = percent;
lastChange = "2025-10-05 11:09:55 +0000";
layers = (
{
layerId = m01;
shapes = (
{
closed = 1;
nodes = (
(294,490,o),
(294,750,o),
(146,750,cs),
(-2,750,o),
(-2,490,o),
(146,490,cs)
);
},
{
closed = 1;
nodes = (
(117,523,o),
(89,543,o),
(89,605,cs),
(89,635,ls),
(89,697,o),
(117,717,o),
(146,717,cs),
(175,717,o),
(203,697,o),
(203,635,cs),
(203,605,ls),
(203,543,o),
(175,523,o),
(146,523,cs)
);
},
{
closed = 1;
nodes = (
(512,-10,o),
(512,250,o),
(364,250,cs),
(216,250,o),
(216,-10,o),
(364,-10,cs)
);
},
{
closed = 1;
nodes = (
(335,23,o),
(307,43,o),
(307,105,cs),
(307,135,ls),
(307,197,o),
(335,217,o),
(364,217,cs),
(393,217,o),
(421,197,o),
(421,135,cs),
(421,105,ls),
(421,43,o),
(393,23,o),
(364,23,cs)
);
},
{
attr = {
strokeWidth = 40;
};
closed = 0;
nodes = (
(437,660,l),
(98,121,l)
);
}
);
userData = {
assembly = "NPUSHB[ ]	/* 95 values pushed */
12 1 4 10 1 0 7 4 0 105 0 7 0 9 8 7 9 105 0 3 3 14 77 0 5 5 1 97 0 1 1 20 77 11 1 2 2 15 77 14 1 8 8 6 97 13 1 6 6 21 6 78 57 56 41 40 29 28 17 16 1 0 63 61 56 67 57 67 49 47 40 55 41 55 35 33 28 39 29 39 23 20 16 27 17 26 9 7 0 15 1 15 15 7 22
CALL[ ]	/* CallFunction */";
};
width = 500;
}
);
note = percent;
unicode = 37;
},
{
glyphname = perthousand;
lastChange = "2025-10-05 11:11:48 +0000";
layers = (
{
layerId = m01;
shapes = (
{
closed = 1;
nodes = (
(294,490,o),
(294,750,o),
(146,750,cs),
(-2,750,o),
(-2,490,o),
(146,490,cs)
);
},
{
closed = 1;
nodes = (
(117,523,o),
(89,543,o),
(89,605,cs),
(89,635,ls),
(89,697,o),
(117,717,o),
(146,717,cs),
(175,717,o),
(203,697,o),
(203,635,cs),
(203,605,ls),
(203,543,o),
(175,523,o),
(146,523,cs)
);
},
{
closed = 1;
nodes = (
(252,-10,o),
(280,7,o),
(298,32,c),
(316,7,o),
(344,-10,o),
(382,-10,cs),
(530,-10,o),
(530,250,o),
(382,250,cs),
(344,250,o),
(316,233,o),
(298,208,c),
(280,233,o),
(252,250,o),
(214,250,cs),
(66,250,o),
(66,-10,o),
(214,-10,cs)
);
},
{
closed = 1;
nodes = (
(185,23,o),
(157,43,o),
(157,105,cs),
(157,135,ls),
(157,197,o),
(185,217,o),
(214,217,cs),
(243,217,o),
(271,197,o),
(271,135,cs),
(271,105,ls),
(271,43,o),
(243,23,o),
(214,23,cs)
);
},
{
closed = 1;
nodes = (
(353,23,o),
(325,43,o),
(325,105,cs),
(325,135,ls),
(325,197,o),
(353,217,o),
(382,217,cs),
(411,217,o),
(439,197,o),
(439,135,cs),
(439,105,ls),
(439,43,o),
(411,23,o),
(382,23,cs)
);
},
{
attr = {
strokeWidth = 40;
};
closed = 0;
nodes = (
(58,256,l),
(414,533,l)
);
}
);
userData = {
assembly = "NPUSHB[ ]	/* 119 values pushed */
65 51 2 10 11 1 76 16 1 4 14 1 0 7 4 0 105 8 1 7 13 1 11 10 7 11 105 0 3 3 14 77 0 5 5 1 97 0 1 1 20 77 15 1 2 2 15 77 19 12 18 3 10 10 6 97 9 17 2 6 6 21 6 78 81 80 69 68 41 40 29 28 17 16 1 0 87 85 80 91 81 91 75 73 68 79 69 79 63 61 55 53 49 47 40 67 41 67 35 33 28 39 29 39 23 20 16 27 17 26 9 7 0 15 1 15 20 7 22
CALL[ ]	/* CallFunction */";
};
width = 518;
}
);
note = perthousand;
unicode = 8240;
},
{
glyphname = uni0308;
lastChange = "2025-10-04 21:26:23 +0000";
layers = (
{
anchors = (
{
name = _top;
pos = (205,510);
}
);
layerId = m01;
shapes = (
{
closed = 1;
nodes = (
(163,636,o),
(163,656,qs),
(163,676,o),
(138,701,o),
(119,701,qs),
(100,701,o),
(74,676,o),
(74,656,qs),
(74,636,o),
(100,610,o),
(119,610,qs),
(138,610,o)
);
},
{
closed = 1;
nodes = (
(335,636,o),
(335,656,qs),
(335,676,o),
(310,701,o),
(291,701,qs),
(272,701,o),
(246,676,o),
(246,656,qs),
(246,636,o),
(272,610,o),
(291,610,qs),
(310,610,o)
);
}
);
userData = {
assembly = "PUSHB[ ]	/* 2 values pushed */
6 100
WCVTP[ ]	/* WriteCVTInPixels */
NPUSHB[ ]	/* 40 values pushed */
3 1 1 0 0 1 89 3 1 1 1 0 97 5 2 4 3 0 1 0 81 13 12 1 0 19 17 12 23 13 23 7 5 0 11 1 11 6 7 22
CALL[ ]	/* CallFunction */
PUSHB[ ]	/* 2 values pushed */
6 0
WCVTP[ ]	/* WriteCVTInPixels */";
};
width = 0;
}
);
note = uni0308;
unicode = 776;
},
{
glyphname = uni0307;
lastChange = "2025-10-04 21:26:23 +0000";
layers = (
{
anchors = (
{
name = _top;
pos = (110,510);
}
);
layerId = m01;
shapes = (
{
closed = 1;
nodes = (
(159,631,o),
(159,654,qs),
(159,677,o),
(131,706,o),
(110,706,qs),
(89,706,o),
(60,677,o),
(60,654,qs),
(60,631,o),
(89,601,o),
(110,601,qs),
(131,601,o)
);
}
);
userData = {
assembly = "PUSHB[ ]	/* 2 values pushed */
6 100
WCVTP[ ]	/* WriteCVTInPixels */
NPUSHB[ ]	/* 28 values pushed */
0 1 0 0 1 89 0 1 1 0 97 2 1 0 1 0 81 1 0 7 5 0 11 1 11 3 7 22
CALL[ ]	/* CallFunction */
PUSHB[ ]	/* 2 values pushed */
6 0
WCVTP[ ]	/* WriteCVTInPixels */";
};
width = 0;
}
);
note = uni0307;
unicode = 775;
},
{
glyphname = gravecomb;
lastChange = "2025-10-05 11:26:54 +0000";
layers = (
{
anchors = (
{
name = _top;
pos = (178,510);
}
);
layerId = m01;
shapes = (
{
closed = 1;
nodes = (
(163,580,l),
(185,580,l),
(175,760,l),
(105,760,l)
);
}
);
userData = {
assembly = "PUSHB[ ]	/* 2 values pushed */
6 100
WCVTP[ ]	/* WriteCVTInPixels */
PUSHB[ ]	/* 8 values pushed */
0 0 0 118 38 1 7 23
CALL[ ]	/* CallFunction */
PUSHB[ ]	/* 2 values pushed */
6 0
WCVTP[ ]	/* WriteCVTInPixels */";
};
width = 0;
}
);
note = gravecomb;
unicode = 768;
},
{
glyphname = acutecomb;
lastChange = "2025-10-05 11:12:07 +0000";
layers = (
{
anchors = (
{
name = _top;
pos = (177,510);
}
);
layerId = m01;
shapes = (
{
closed = 1;
nodes = (
(171,580,l),
(193,580,l),
(251,760,l),
(181,760,l)
);
}
);
userData = {
assembly = "PUSHB[ ]	/* 2 values pushed */
6 100
WCVTP[ ]	/* WriteCVTInPixels */
PUSHB[ ]	/* 8 values pushed */
0 0 0 118 39 1 7 23
CALL[ ]	/* CallFunction */
PUSHB[ ]	/* 2 values pushed */
6 0
WCVTP[ ]	/* WriteCVTInPixels */";
};
width = 0;
}
);
note = acutecomb;
unicode = 769;
},
{
glyphname = uni0302;
lastChange = "2025-10-05 11:12:18 +0000";
layers = (
{
anchors = (
{
name = _top;
pos = (217,510);
}
);
layerId = m01;
shapes = (
{
closed = 1;
nodes = (
(132,580,l),
(154,580,l),
(217,686,l),
(280,580,l),
(302,580,l),
(237,750,l),
(197,750,l)
);
}
);
userData = {
assembly = "PUSHB[ ]	/* 2 values pushed */
6 100
WCVTP[ ]	/* WriteCVTInPixels */
NPUSHB[ ]	/* 12 values pushed */
16 1 0 73 0 0 0 118 54 1 7 23
CALL[ ]	/* CallFunction */
PUSHB[ ]	/* 2 values pushed */
6 0
WCVTP[ ]	/* WriteCVTInPixels */";
};
width = 0;
}
);
note = uni0302;
unicode = 770;
},
{
glyphname = uni030C;
lastChange = "2025-10-05 11:12:24 +0000";
layers = (
{
anchors = (
{
name = _top;
pos = (217,510);
}
);
layerId = m01;
shapes = (
{
closed = 1;
nodes = (
(238,583,l),
(303,753,l),
(281,753,l),
(218,647,l),
(155,753,l),
(133,753,l),
(198,583,l)
);
}
);
userData = {
assembly = "PUSHB[ ]	/* 2 values pushed */
6 100
WCVTP[ ]	/* WriteCVTInPixels */
NPUSHB[ ]	/* 18 values pushed */
8 1 0 74 1 1 0 0 118 1 0 0 16 1 15 2 7 22
CALL[ ]	/* CallFunction */
PUSHB[ ]	/* 2 values pushed */
6 0
WCVTP[ ]	/* WriteCVTInPixels */";
};
width = 0;
}
);
note = uni030C;
unicode = 780;
},
{
glyphname = uni0306;
lastChange = "2025-10-05 11:12:44 +0000";
layers = (
{
anchors = (
{
name = _top;
pos = (204,510);
}
);
layerId = m01;
shapes = (
{
closed = 1;
nodes = (
(274,589,o),
(289,677,o),
(281,743,c),
(253,743,l),
(256,699,o),
(257,641,o),
(205,641,cs),
(153,641,o),
(155,699,o),
(158,743,c),
(130,743,l),
(122,677,o),
(136,589,o),
(205,589,cs)
);
}
);
userData = {
assembly = "PUSHB[ ]	/* 2 values pushed */
6 100
WCVTP[ ]	/* WriteCVTInPixels */
NPUSHB[ ]	/* 38 values pushed */
3 1 1 2 1 133 0 2 0 0 2 89 0 2 2 0 97 4 1 0 2 0 81 1 0 16 14 11 9 6 4 0 19 1 19 5 7 22
CALL[ ]	/* CallFunction */
PUSHB[ ]	/* 2 values pushed */
6 0
WCVTP[ ]	/* WriteCVTInPixels */";
};
width = 0;
}
);
note = uni0306;
unicode = 774;
},
{
glyphname = uni030A;
lastChange = "2025-10-05 11:13:53 +0000";
layers = (
{
anchors = (
{
name = _top;
pos = (168,566);
}
);
layerId = m01;
shapes = (
{
attr = {
strokeWidth = 38;
};
closed = 1;
nodes = (
(205,623,o),
(236,654,o),
(236,693,cs),
(236,732,o),
(205,763,o),
(168,763,cs),
(130,763,o),
(99,732,o),
(99,693,cs),
(99,654,o),
(130,623,o),
(168,623,cs)
);
}
);
userData = {
assembly = "PUSHB[ ]	/* 2 values pushed */
6 100
WCVTP[ ]	/* WriteCVTInPixels */
NPUSHB[ ]	/* 46 values pushed */
0 1 0 3 2 1 3 105 5 1 2 0 0 2 89 5 1 2 2 0 97 4 1 0 2 0 81 13 12 1 0 19 17 12 23 13 23 7 5 0 11 1 11 6 7 22
CALL[ ]	/* CallFunction */
PUSHB[ ]	/* 2 values pushed */
6 0
WCVTP[ ]	/* WriteCVTInPixels */";
};
width = 0;
}
);
note = uni030A;
unicode = 778;
},
{
glyphname = tildecomb;
lastChange = "2025-10-05 11:50:03 +0000";
layers = (
{
anchors = (
{
name = _top;
pos = (226,510);
}
);
layerId = m01;
shapes = (
{
closed = 1;
nodes = (
(318,607,o),
(323,680,o),
(323,700,c),
(300,700,l),
(300,672,o),
(298,654,o),
(280,654,cs),
(250,654,o),
(231,705,o),
(189,705,cs),
(138,705,o),
(133,632,o),
(133,612,c),
(156,612,l),
(156,640,o),
(158,658,o),
(176,658,cs),
(206,658,o),
(225,607,o),
(267,607,cs)
);
}
);
userData = {
assembly = "PUSHB[ ]	/* 2 values pushed */
6 100
WCVTP[ ]	/* WriteCVTInPixels */
NPUSHB[ ]	/* 46 values pushed */
5 1 3 0 1 4 3 1 105 0 4 0 0 4 89 0 4 4 0 97 2 6 2 0 4 0 81 1 0 26 24 21 19 16 14 11 9 6 4 0 29 1 29 7 7 22
CALL[ ]	/* CallFunction */
PUSHB[ ]	/* 2 values pushed */
6 0
WCVTP[ ]	/* WriteCVTInPixels */";
};
width = 0;
}
);
note = tildecomb;
unicode = 771;
},
{
glyphname = uni0304;
lastChange = "2025-10-05 11:21:29 +0000";
layers = (
{
anchors = (
{
name = _top;
pos = (206,510);
}
);
layerId = m01;
shapes = (
{
closed = 1;
nodes = (
(66,635,l),
(345,635,l),
(345,679,l),
(66,679,l)
);
}
);
userData = {
assembly = "PUSHB[ ]	/* 2 values pushed */
6 100
WCVTP[ ]	/* WriteCVTInPixels */
NPUSHB[ ]	/* 28 values pushed */
0 1 0 0 1 87 0 1 1 0 95 2 1 0 1 0 79 1 0 7 4 0 11 1 10 3 7 22
CALL[ ]	/* CallFunction */
PUSHB[ ]	/* 2 values pushed */
6 0
WCVTP[ ]	/* WriteCVTInPixels */";
};
width = 0;
}
);
note = uni0304;
unicode = 772;
},
{
glyphname = uni0312;
lastChange = "2025-10-05 11:22:56 +0000";
layers = (
{
anchors = (
{
name = _top;
pos = (115,510);
}
);
layerId = m01;
shapes = (
{
closed = 1;
nodes = (
(136,595,o),
(158,616,o),
(158,646,cs),
(158,679,o),
(140,694,o),
(111,694,c),
(117,709,o),
(137,735,o),
(166,751,c),
(147,779,l),
(101,755,o),
(59,705,o),
(59,650,cs),
(59,612,o),
(82,595,o),
(108,595,c)
);
}
);
userData = {
assembly = "PUSHB[ ]	/* 2 values pushed */
6 100
WCVTP[ ]	/* WriteCVTInPixels */
NPUSHB[ ]	/* 14 values pushed */
1 1 0 0 118 1 0 0 20 1 20 2 7 22
CALL[ ]	/* CallFunction */
PUSHB[ ]	/* 2 values pushed */
6 0
WCVTP[ ]	/* WriteCVTInPixels */";
};
width = 0;
}
);
note = uni0312;
unicode = 786;
},
{
glyphname = uni0327;
lastChange = "2025-10-05 11:47:26 +0000";
layers = (
{
anchors = (
{
name = _bottom;
pos = (154,0);
}
);
layerId = m01;
shapes = (
{
closed = 1;
nodes = (
(197.667,-215,o),
(241,-185,o),
(241,-133,cs),
(241,-89,o),
(212,-55,o),
(164,-48,c),
(177,12,l),
(138,12,l),
(119,-82,l),
(168,-77,o),
(195,-108,o),
(195,-138,cs),
(195,-170,o),
(181,-185,o),
(149,-185,cs),
(97,-185,o),
(122.183,-131,o),
(83,-131,cs),
(68.333,-131,o),
(60,-141.333,o),
(60,-156,cs),
(60,-186.667,o),
(95,-215,o),
(147,-215,cs)
);
}
);
width = 0;
}
);
note = uni0327;
unicode = 807;
},
{
glyphname = uni0328;
lastChange = "2025-10-05 11:47:03 +0000";
layers = (
{
anchors = (
{
name = _ogonek;
pos = (194,0);
}
);
layerId = m01;
shapes = (
{
closed = 1;
nodes = (
(163.333,-216,o),
(199,-201,o),
(232,-165,c),
(210,-140,l),
(167,-188,o),
(106,-190,o),
(106,-133,cs),
(106,-82.333,o),
(135.333,-33.333,o),
(194,0,c),
(175,24,l),
(96,-19,o),
(58,-81,o),
(58,-138,cs),
(58,-188,o),
(96.667,-216,o),
(134,-216,cs)
);
}
);
width = 0;
}
);
note = uni0328;
unicode = 808;
},
{
glyphname = acute;
lastChange = "2025-10-05 11:26:44 +0000";
layers = (
{
layerId = m01;
shapes = (
{
closed = 1;
nodes = (
(60,580,l),
(82,580,l),
(140,760,l),
(70,760,l)
);
}
);
width = 200;
}
);
note = acute;
unicode = 180;
},
{
glyphname = bowtie;
lastChange = "2025-10-04 21:26:23 +0000";
layers = (
{
layerId = m01;
shapes = (
{
attr = {
strokePos = 1;
strokeWidth = 52;
};
closed = 1;
nodes = (
(76,-40,l),
(350,237,l),
(624,-40,l),
(624,598,l),
(350,321,l),
(76,598,l)
);
}
);
width = 680;
}
);
unicode = 8904;
},
{
glyphname = newGlyph;
lastChange = "2025-10-04 21:26:23 +0000";
layers = (
{
layerId = m01;
shapes = (
{
closed = 1;
nodes = (
(76,-40,l),
(350,237,l),
(624,-40,l),
(624,598,l),
(350,321,l),
(76,598,l)
);
}
